<?xml version="1.0" encoding="us-ascii" standalone="no"?>

<svg xmlns="http://www.w3.org/2000/svg" contentStyleType="text/css"
     height="310px" preserveAspectRatio="none"
     style="width:309px;height:310px;background:#FFFFFF;" version="1.1"
     viewBox="0 0 309 310" width="309px"
     zoomAndPan="magnify">

    <defs/>

    <g><!--class PointsProvider-->

        <g id="elem_PointsProvider">

            <rect codeLine="1" fill="#F1F1F1" height="64.2969" id="PointsProvider" rx="2.5" ry="2.5"
                  style="stroke:#181818;stroke-width:0.5;" width="259" x="22" y="7"/>

            <ellipse cx="96.75" cy="23" fill="#B4A7E5" rx="11" ry="11" style="stroke:#181818;stroke-width:1.0;"/>

            <path d="M97.7031,19.7813 L99.4219,19.7813 C99.8125,19.7813 100,19.75 100.125,19.6719 C100.3906,19.5156 100.5313,19.2344 100.5313,18.9375 C100.5313,18.6719 100.4219,18.4063 100.1875,18.2344 C100.0156,18.125 99.875,18.0938 99.4219,18.0938 L94.2813,18.0938 C93.8438,18.0938 93.7188,18.1094 93.5625,18.2031 C93.3125,18.3594 93.1563,18.6563 93.1563,18.9375 C93.1563,19.2188 93.2969,19.4688 93.5156,19.6406 C93.6719,19.75 93.8594,19.7813 94.2813,19.7813 L96,19.7813 L96,26.2969 L94.2813,26.2969 C93.8438,26.2969 93.7188,26.3125 93.5625,26.4219 C93.3125,26.5781 93.1563,26.8594 93.1563,27.1563 C93.1563,27.4063 93.2969,27.6719 93.5156,27.8281 C93.6719,27.9531 93.875,28 94.2813,28 L99.4219,28 C100.1719,28 100.5313,27.7188 100.5313,27.1563 C100.5313,26.875 100.4219,26.625 100.1875,26.4531 C100.0156,26.3281 99.875,26.2969 99.4219,26.2969 L97.7031,26.2969 L97.7031,19.7813 Z "
                  fill="#000000"/>

            <text fill="#000000" font-family="sans-serif" font-size="14" font-style="italic" lengthAdjust="spacing"
                  textLength="101" x="117.25" y="27.8467">PointsProvider

            </text>

            <line style="stroke:#181818;stroke-width:0.5;" x1="23" x2="280" y1="39" y2="39"/>

            <line style="stroke:#181818;stroke-width:0.5;" x1="23" x2="280" y1="47" y2="47"/>

            <ellipse cx="33" cy="60.6484" fill="#84BE84" rx="3" ry="3" style="stroke:#038048;stroke-width:1.0;"/>

            <text fill="#000000" font-family="sans-serif" font-size="14" lengthAdjust="spacing" textLength="233" x="42"
                  y="63.9951">computePoints(PlayerTable): int

            </text>

        </g><!--class Card-->

        <g id="elem_Card">

            <rect codeLine="5" fill="#F1F1F1" height="64.2969" id="Card" rx="2.5" ry="2.5"
                  style="stroke:#181818;stroke-width:0.5;" width="68" x="117.5" y="131"/>

            <ellipse cx="133.85" cy="147" fill="#ADD1B2" rx="11" ry="11" style="stroke:#181818;stroke-width:1.0;"/>

            <path d="M136.1938,142.6719 C135.2563,142.2344 134.6625,142.0938 133.7875,142.0938 C131.1625,142.0938 129.1625,144.1719 129.1625,146.8906 L129.1625,148.0156 C129.1625,150.5938 131.2719,152.4844 134.1625,152.4844 C135.3813,152.4844 136.5375,152.1875 137.2875,151.6406 C137.8656,151.2344 138.1938,150.7813 138.1938,150.3906 C138.1938,149.9375 137.8031,149.5469 137.3344,149.5469 C137.1156,149.5469 136.9125,149.625 136.725,149.8125 C136.2719,150.2969 136.2719,150.2969 136.0844,150.3906 C135.6625,150.6563 134.975,150.7813 134.2094,150.7813 C132.1625,150.7813 130.8656,149.6875 130.8656,147.9844 L130.8656,146.8906 C130.8656,145.1094 132.1156,143.7969 133.85,143.7969 C134.4281,143.7969 135.0375,143.9531 135.5063,144.2031 C135.9906,144.4844 136.1625,144.7031 136.2563,145.1094 C136.3188,145.5156 136.35,145.6406 136.4906,145.7656 C136.6313,145.9063 136.8656,146.0156 137.0844,146.0156 C137.35,146.0156 137.6156,145.875 137.7875,145.6563 C137.8969,145.5 137.9281,145.3125 137.9281,144.8906 L137.9281,143.4688 C137.9281,143.0313 137.9125,142.9063 137.8188,142.75 C137.6625,142.4844 137.3813,142.3438 137.0844,142.3438 C136.7875,142.3438 136.5844,142.4375 136.3656,142.75 L136.1938,142.6719 Z "
                  fill="#000000"/>

            <text fill="#000000" font-family="sans-serif" font-size="14" lengthAdjust="spacing" textLength="33"
                  x="148.15" y="151.8467">Card

            </text>

            <line style="stroke:#181818;stroke-width:0.5;" x1="118.5" x2="184.5" y1="163" y2="163"/>

            <rect fill="none" height="6" style="stroke:#C82930;stroke-width:1.0;" width="6" x="125.5" y="173.6484"/>

            <text fill="#000000" font-family="sans-serif" font-size="14" lengthAdjust="spacing" textLength="42"
                  x="137.5" y="179.9951">id: int

            </text>

            <line style="stroke:#181818;stroke-width:0.5;" x1="118.5" x2="184.5" y1="187.2969" y2="187.2969"/>

        </g><!--class PlayableCard-->

        <g id="elem_PlayableCard">

            <rect codeLine="9" fill="#F1F1F1" height="48" id="PlayableCard" rx="2.5" ry="2.5"
                  style="stroke:#181818;stroke-width:0.5;" width="125" x="7" y="255"/>

            <ellipse cx="22" cy="271" fill="#ADD1B2" rx="11" ry="11" style="stroke:#181818;stroke-width:1.0;"/>

            <path d="M24.3438,266.6719 C23.4063,266.2344 22.8125,266.0938 21.9375,266.0938 C19.3125,266.0938 17.3125,268.1719 17.3125,270.8906 L17.3125,272.0156 C17.3125,274.5938 19.4219,276.4844 22.3125,276.4844 C23.5313,276.4844 24.6875,276.1875 25.4375,275.6406 C26.0156,275.2344 26.3438,274.7813 26.3438,274.3906 C26.3438,273.9375 25.9531,273.5469 25.4844,273.5469 C25.2656,273.5469 25.0625,273.625 24.875,273.8125 C24.4219,274.2969 24.4219,274.2969 24.2344,274.3906 C23.8125,274.6563 23.125,274.7813 22.3594,274.7813 C20.3125,274.7813 19.0156,273.6875 19.0156,271.9844 L19.0156,270.8906 C19.0156,269.1094 20.2656,267.7969 22,267.7969 C22.5781,267.7969 23.1875,267.9531 23.6563,268.2031 C24.1406,268.4844 24.3125,268.7031 24.4063,269.1094 C24.4688,269.5156 24.5,269.6406 24.6406,269.7656 C24.7813,269.9063 25.0156,270.0156 25.2344,270.0156 C25.5,270.0156 25.7656,269.875 25.9375,269.6563 C26.0469,269.5 26.0781,269.3125 26.0781,268.8906 L26.0781,267.4688 C26.0781,267.0313 26.0625,266.9063 25.9688,266.75 C25.8125,266.4844 25.5313,266.3438 25.2344,266.3438 C24.9375,266.3438 24.7344,266.4375 24.5156,266.75 L24.3438,266.6719 Z "
                  fill="#000000"/>

            <text fill="#000000" font-family="sans-serif" font-size="14" lengthAdjust="spacing" textLength="93" x="36"
                  y="275.8467">PlayableCard

            </text>

            <line style="stroke:#181818;stroke-width:0.5;" x1="8" x2="131" y1="287" y2="287"/>

            <line style="stroke:#181818;stroke-width:0.5;" x1="8" x2="131" y1="295" y2="295"/>

        </g><!--class ObjectiveCard-->

        <g id="elem_ObjectiveCard">

            <rect codeLine="11" fill="#F1F1F1" height="48" id="ObjectiveCard" rx="2.5" ry="2.5"
                  style="stroke:#181818;stroke-width:0.5;" width="135" x="167" y="255"/>

            <ellipse cx="182" cy="271" fill="#ADD1B2" rx="11" ry="11" style="stroke:#181818;stroke-width:1.0;"/>

            <path d="M184.3438,266.6719 C183.4063,266.2344 182.8125,266.0938 181.9375,266.0938 C179.3125,266.0938 177.3125,268.1719 177.3125,270.8906 L177.3125,272.0156 C177.3125,274.5938 179.4219,276.4844 182.3125,276.4844 C183.5313,276.4844 184.6875,276.1875 185.4375,275.6406 C186.0156,275.2344 186.3438,274.7813 186.3438,274.3906 C186.3438,273.9375 185.9531,273.5469 185.4844,273.5469 C185.2656,273.5469 185.0625,273.625 184.875,273.8125 C184.4219,274.2969 184.4219,274.2969 184.2344,274.3906 C183.8125,274.6563 183.125,274.7813 182.3594,274.7813 C180.3125,274.7813 179.0156,273.6875 179.0156,271.9844 L179.0156,270.8906 C179.0156,269.1094 180.2656,267.7969 182,267.7969 C182.5781,267.7969 183.1875,267.9531 183.6563,268.2031 C184.1406,268.4844 184.3125,268.7031 184.4063,269.1094 C184.4688,269.5156 184.5,269.6406 184.6406,269.7656 C184.7813,269.9063 185.0156,270.0156 185.2344,270.0156 C185.5,270.0156 185.7656,269.875 185.9375,269.6563 C186.0469,269.5 186.0781,269.3125 186.0781,268.8906 L186.0781,267.4688 C186.0781,267.0313 186.0625,266.9063 185.9688,266.75 C185.8125,266.4844 185.5313,266.3438 185.2344,266.3438 C184.9375,266.3438 184.7344,266.4375 184.5156,266.75 L184.3438,266.6719 Z "
                  fill="#000000"/>

            <text fill="#000000" font-family="sans-serif" font-size="14" lengthAdjust="spacing" textLength="103" x="196"
                  y="275.8467">ObjectiveCard

            </text>

            <line style="stroke:#181818;stroke-width:0.5;" x1="168" x2="301" y1="287" y2="287"/>

            <line style="stroke:#181818;stroke-width:0.5;" x1="168" x2="301" y1="295" y2="295"/>

        </g><!--reverse link PointsProvider to Card-->

        <g id="link_PointsProvider_Card">

            <path d="M151.5,89.101 C151.5,107.457 151.5,112.61 151.5,130.955 " fill="none"
                  id="PointsProvider-backto-Card" style="stroke:#181818;stroke-width:1.0;stroke-dasharray:7.0,7.0;"/>

            <polygon fill="none" points="151.5,71.101,145.5,89.101,157.5,89.101,151.5,71.101"
                     style="stroke:#181818;stroke-width:1.0;"/>

        </g><!--reverse link Card to PlayableCard-->

        <g id="link_Card_PlayableCard">

            <path d="M118.5822,209.7635 C105.0202,228.6179 98.5258,237.647 86.1557,254.8446 " fill="none"
                  id="Card-backto-PlayableCard" style="stroke:#181818;stroke-width:1.0;"/>

            <polygon fill="none" points="129.093,195.151,113.7114,206.2599,123.4531,213.267,129.093,195.151"
                     style="stroke:#181818;stroke-width:1.0;"/>

        </g><!--reverse link Card to ObjectiveCard-->

        <g id="link_Card_ObjectiveCard">

            <path d="M184.7745,209.7028 C198.5015,228.5572 205.12,237.647 217.641,254.8446 " fill="none"
                  id="Card-backto-ObjectiveCard" style="stroke:#181818;stroke-width:1.0;"/>

            <polygon fill="none" points="174.18,195.151,179.9239,213.2344,189.6251,206.1713,174.18,195.151"
                     style="stroke:#181818;stroke-width:1.0;"/>

        </g><!--SRC=[ROmx3i8m44Hxds9B4E82j1m05rnWOm_I8d-YzHA18kwEGqG3J3dpvaanw8K3o5SfrhpMIIAKPaSzkr3pU3EiuyOdVa3FF2Hi3zGhztGk96wDZgoH98y96HtzhzjB_BejnaNtlkDkA75rVO3JS4KmcNw95m00]-->

    </g>

</svg>