<?xml version="1.0" encoding="us-ascii" standalone="no"?><svg xmlns="http://www.w3.org/2000/svg" xmlns:xlink="http://www.w3.org/1999/xlink" contentStyleType="text/css" height="178px" preserveAspectRatio="none" style="width:278px;height:178px;background:#FFFFFF;" version="1.1" viewBox="0 0 278 178" width="278px" zoomAndPan="magnify"><defs/><g><!--class Item--><g id="elem_Item"><rect codeLine="1" fill="#F1F1F1" height="56.2656" id="Item" rx="2.5" ry="2.5" style="stroke:#181818;stroke-width:0.5;" width="80" x="90" y="7"/><ellipse cx="105" cy="27.1328" fill="#B4A7E5" rx="11" ry="11" style="stroke:#181818;stroke-width:1.0;"/><path d="M105.9531,23.9141 L107.6719,23.9141 C108.0625,23.9141 108.25,23.8828 108.375,23.8047 C108.6406,23.6484 108.7813,23.3672 108.7813,23.0703 C108.7813,22.8047 108.6719,22.5391 108.4375,22.3672 C108.2656,22.2578 108.125,22.2266 107.6719,22.2266 L102.5313,22.2266 C102.0938,22.2266 101.9688,22.2422 101.8125,22.3359 C101.5625,22.4922 101.4063,22.7891 101.4063,23.0703 C101.4063,23.3516 101.5469,23.6016 101.7656,23.7734 C101.9219,23.8828 102.1094,23.9141 102.5313,23.9141 L104.25,23.9141 L104.25,30.4297 L102.5313,30.4297 C102.0938,30.4297 101.9688,30.4453 101.8125,30.5547 C101.5625,30.7109 101.4063,30.9922 101.4063,31.2891 C101.4063,31.5391 101.5469,31.8047 101.7656,31.9609 C101.9219,32.0859 102.125,32.1328 102.5313,32.1328 L107.6719,32.1328 C108.4219,32.1328 108.7813,31.8516 108.7813,31.2891 C108.7813,31.0078 108.6719,30.7578 108.4375,30.5859 C108.2656,30.4609 108.125,30.4297 107.6719,30.4297 L105.9531,30.4297 L105.9531,23.9141 Z " fill="#000000"/><text fill="#000000" font-family="sans-serif" font-size="12" font-style="italic" lengthAdjust="spacing" textLength="52" x="117" y="23.1387">&#171;sealed&#187;</text><text fill="#000000" font-family="sans-serif" font-size="14" font-style="italic" lengthAdjust="spacing" textLength="32" x="127" y="38.9639">Item</text><line style="stroke:#181818;stroke-width:0.5;" x1="91" x2="169" y1="47.2656" y2="47.2656"/><line style="stroke:#181818;stroke-width:0.5;" x1="91" x2="169" y1="55.2656" y2="55.2656"/></g><!--class Kingdom--><g id="elem_Kingdom"><rect codeLine="3" fill="#F1F1F1" height="48" id="Kingdom" rx="2.5" ry="2.5" style="stroke:#181818;stroke-width:0.5;" width="96" x="7" y="123"/><ellipse cx="22" cy="139" fill="#EB937F" rx="11" ry="11" style="stroke:#181818;stroke-width:1.0;"/><path d="M20.7969,139.875 L22.25,139.875 L22.25,139.9844 C22.25,140.3906 22.2813,140.5469 22.3594,140.7031 C22.5156,140.9531 22.7969,141.1094 23.0938,141.1094 C23.3438,141.1094 23.6094,140.9688 23.7656,140.75 C23.8906,140.5938 23.9219,140.4375 23.9219,139.9844 L23.9219,138.0625 C23.9219,137.9063 23.9219,137.8594 23.9063,137.7031 C23.8438,137.2344 23.5313,136.9219 23.0781,136.9219 C22.8281,136.9219 22.5625,137.0625 22.3906,137.2813 C22.2813,137.4531 22.25,137.6094 22.25,138.0625 L22.25,138.1875 L20.7969,138.1875 L20.7969,135.7813 L24.7813,135.7813 L24.7813,136.6406 C24.7813,137.0469 24.8125,137.2188 24.8906,137.375 C25.0625,137.625 25.3438,137.7813 25.625,137.7813 C25.8906,137.7813 26.1563,137.6406 26.3281,137.4219 C26.4375,137.25 26.4688,137.1094 26.4688,136.6406 L26.4688,134.0938 L18.8438,134.0938 C18.4063,134.0938 18.2813,134.1094 18.125,134.2031 C17.875,134.3594 17.7188,134.6563 17.7188,134.9375 C17.7188,135.2188 17.8594,135.4688 18.0781,135.6406 C18.2344,135.75 18.4219,135.7813 18.8438,135.7813 L19.0938,135.7813 L19.0938,142.2969 L18.8438,142.2969 C18.4375,142.2969 18.2813,142.3125 18.125,142.4219 C17.875,142.5938 17.7188,142.8594 17.7188,143.1563 C17.7188,143.4219 17.8594,143.6719 18.0781,143.8281 C18.2188,143.9531 18.4531,144 18.8438,144 L26.8438,144 L26.8438,141.4219 C26.8438,140.9844 26.8125,140.8438 26.7344,140.6875 C26.5625,140.4375 26.2813,140.2813 26,140.2813 C25.7344,140.2813 25.4688,140.3906 25.2969,140.6406 C25.1875,140.7969 25.1563,140.9375 25.1563,141.4219 L25.1563,142.2969 L20.7969,142.2969 L20.7969,139.875 Z " fill="#000000"/><text fill="#000000" font-family="sans-serif" font-size="14" lengthAdjust="spacing" textLength="64" x="36" y="143.8467">Kingdom</text><line style="stroke:#181818;stroke-width:0.5;" x1="8" x2="102" y1="155" y2="155"/><line style="stroke:#181818;stroke-width:0.5;" x1="8" x2="102" y1="163" y2="163"/></g><!--class SpecialObject--><g id="elem_SpecialObject"><rect codeLine="5" fill="#F1F1F1" height="48" id="SpecialObject" rx="2.5" ry="2.5" style="stroke:#181818;stroke-width:0.5;" width="133" x="138.5" y="123"/><ellipse cx="153.5" cy="139" fill="#EB937F" rx="11" ry="11" style="stroke:#181818;stroke-width:1.0;"/><path d="M152.2969,139.875 L153.75,139.875 L153.75,139.9844 C153.75,140.3906 153.7813,140.5469 153.8594,140.7031 C154.0156,140.9531 154.2969,141.1094 154.5938,141.1094 C154.8438,141.1094 155.1094,140.9688 155.2656,140.75 C155.3906,140.5938 155.4219,140.4375 155.4219,139.9844 L155.4219,138.0625 C155.4219,137.9063 155.4219,137.8594 155.4063,137.7031 C155.3438,137.2344 155.0313,136.9219 154.5781,136.9219 C154.3281,136.9219 154.0625,137.0625 153.8906,137.2813 C153.7813,137.4531 153.75,137.6094 153.75,138.0625 L153.75,138.1875 L152.2969,138.1875 L152.2969,135.7813 L156.2813,135.7813 L156.2813,136.6406 C156.2813,137.0469 156.3125,137.2188 156.3906,137.375 C156.5625,137.625 156.8438,137.7813 157.125,137.7813 C157.3906,137.7813 157.6563,137.6406 157.8281,137.4219 C157.9375,137.25 157.9688,137.1094 157.9688,136.6406 L157.9688,134.0938 L150.3438,134.0938 C149.9063,134.0938 149.7813,134.1094 149.625,134.2031 C149.375,134.3594 149.2188,134.6563 149.2188,134.9375 C149.2188,135.2188 149.3594,135.4688 149.5781,135.6406 C149.7344,135.75 149.9219,135.7813 150.3438,135.7813 L150.5938,135.7813 L150.5938,142.2969 L150.3438,142.2969 C149.9375,142.2969 149.7813,142.3125 149.625,142.4219 C149.375,142.5938 149.2188,142.8594 149.2188,143.1563 C149.2188,143.4219 149.3594,143.6719 149.5781,143.8281 C149.7188,143.9531 149.9531,144 150.3438,144 L158.3438,144 L158.3438,141.4219 C158.3438,140.9844 158.3125,140.8438 158.2344,140.6875 C158.0625,140.4375 157.7813,140.2813 157.5,140.2813 C157.2344,140.2813 156.9688,140.3906 156.7969,140.6406 C156.6875,140.7969 156.6563,140.9375 156.6563,141.4219 L156.6563,142.2969 L152.2969,142.2969 L152.2969,139.875 Z " fill="#000000"/><text fill="#000000" font-family="sans-serif" font-size="14" lengthAdjust="spacing" textLength="101" x="167.5" y="143.8467">SpecialObject</text><line style="stroke:#181818;stroke-width:0.5;" x1="139.5" x2="270.5" y1="155" y2="155"/><line style="stroke:#181818;stroke-width:0.5;" x1="139.5" x2="270.5" y1="163" y2="163"/></g><!--reverse link Item to Kingdom--><g id="link_Item_Kingdom"><path d="M101.3207,78.063 C88.8274,96.386 82.6649,105.4249 70.791,122.8398 " fill="none" id="Item-backto-Kingdom" style="stroke:#181818;stroke-width:1.0;stroke-dasharray:7.0,7.0;"/><polygon fill="none" points="111.461,63.191,96.3634,74.6829,106.2781,81.443,111.461,63.191" style="stroke:#181818;stroke-width:1.0;"/></g><!--reverse link Item to SpecialObject--><g id="link_Item_SpecialObject"><path d="M158.6791,78.0631 C171.1721,96.3861 177.335,105.4249 189.209,122.8398 " fill="none" id="Item-backto-SpecialObject" style="stroke:#181818;stroke-width:1.0;stroke-dasharray:7.0,7.0;"/><polygon fill="none" points="148.539,63.191,153.7217,81.4431,163.6364,74.683,148.539,63.191" style="stroke:#181818;stroke-width:1.0;"/></g><!--SRC=[oymhIIrAIqnELV0iISrLiB4fJatCIKsni-FYIiqhpLNmpinBJydFLSZCBSX9pKtDAoa6AuJA1XUa9cScvlWdPQKcbw2h0G00]--></g></svg>