<?xml version="1.0" encoding="us-ascii" standalone="no"?>
<svg xmlns="http://www.w3.org/2000/svg" contentStyleType="text/css"
     height="366px" preserveAspectRatio="none" style="width:582px;height:366px;background:#FFFFFF;" version="1.1"
     viewBox="0 0 582 366" width="582px" zoomAndPan="magnify">
    <defs/>
    <g>
        <text fill="#000000" font-family="sans-serif" font-size="14" font-weight="bold" lengthAdjust="spacing"
              textLength="161" x="207.5" y="27.9951">Client disconnection
        </text>
        <rect fill="#DDDDDD" height="317.2578" style="stroke:#181818;stroke-width:0.5;" width="51" x="1" y="43.2969"/>
        <text fill="#000000" font-family="sans-serif" font-size="13" font-weight="bold" lengthAdjust="spacing"
              textLength="33" x="10" y="55.3638">User
        </text>
        <rect fill="#DDDDDD" height="317.2578" style="stroke:#181818;stroke-width:0.5;" width="522" x="54" y="43.2969"/>
        <text fill="#000000" font-family="sans-serif" font-size="13" font-weight="bold" lengthAdjust="spacing"
              textLength="47" x="291.5" y="55.3638">Server
        </text>
        <rect fill="#FFFFFF" height="64.2656" style="stroke:#181818;stroke-width:1.0;" width="10" x="93" y="169.8594"/>
        <rect fill="#FFFFFF" height="29.1328" style="stroke:#181818;stroke-width:1.0;" width="10" x="318" y="234.125"/>
        <line style="stroke:#181818;stroke-width:0.5;stroke-dasharray:5.0,5.0;" x1="26" x2="26" y1="138.7266"
              y2="281.2578"/>
        <line style="stroke:#181818;stroke-width:0.5;stroke-dasharray:5.0,5.0;" x1="98" x2="98" y1="138.7266"
              y2="281.2578"/>
        <line style="stroke:#181818;stroke-width:0.5;stroke-dasharray:5.0,5.0;" x1="322.5" x2="322.5" y1="138.7266"
              y2="281.2578"/>
        <line style="stroke:#181818;stroke-width:0.5;stroke-dasharray:5.0,5.0;" x1="548" x2="548" y1="138.7266"
              y2="281.2578"/>
        <text fill="#000000" font-family="sans-serif" font-size="14" lengthAdjust="spacing" textLength="37" x="5"
              y="135.4248">Mario
        </text>
        <ellipse cx="26.5" cy="70.9297" fill="#E2E2F0" rx="8" ry="8" style="stroke:#181818;stroke-width:0.5;"/>
        <path d="M26.5,78.9297 L26.5,105.9297 M13.5,86.9297 L39.5,86.9297 M26.5,105.9297 L13.5,120.9297 M26.5,105.9297 L39.5,120.9297 "
              fill="none" style="stroke:#181818;stroke-width:0.5;"/>
        <text fill="#000000" font-family="sans-serif" font-size="14" lengthAdjust="spacing" textLength="37" x="5"
              y="293.2529">Mario
        </text>
        <ellipse cx="26.5" cy="305.0547" fill="#E2E2F0" rx="8" ry="8" style="stroke:#181818;stroke-width:0.5;"/>
        <path d="M26.5,313.0547 L26.5,340.0547 M13.5,321.0547 L39.5,321.0547 M26.5,340.0547 L13.5,355.0547 M26.5,340.0547 L39.5,355.0547 "
              fill="none" style="stroke:#181818;stroke-width:0.5;"/>
        <text fill="#000000" font-family="sans-serif" font-size="14" lengthAdjust="spacing" textLength="74" x="58"
              y="135.4248">VirtualView
        </text>
        <ellipse cx="98" cy="106.4297" fill="#E2E2F0" rx="12" ry="12" style="stroke:#181818;stroke-width:0.5;"/>
        <line style="stroke:#181818;stroke-width:0.5;" x1="86" x2="110" y1="120.4297" y2="120.4297"/>
        <text fill="#000000" font-family="sans-serif" font-size="14" lengthAdjust="spacing" textLength="74" x="58"
              y="293.2529">VirtualView
        </text>
        <ellipse cx="98" cy="312.5547" fill="#E2E2F0" rx="12" ry="12" style="stroke:#181818;stroke-width:0.5;"/>
        <line style="stroke:#181818;stroke-width:0.5;" x1="86" x2="110" y1="326.5547" y2="326.5547"/>
        <text fill="#000000" font-family="sans-serif" font-size="14" lengthAdjust="spacing" textLength="67" x="286.5"
              y="135.4248">Controller
        </text>
        <ellipse cx="323" cy="106.4297" fill="#E2E2F0" rx="12" ry="12" style="stroke:#181818;stroke-width:0.5;"/>
        <line style="stroke:#181818;stroke-width:0.5;" x1="311" x2="335" y1="120.4297" y2="120.4297"/>
        <text fill="#000000" font-family="sans-serif" font-size="14" lengthAdjust="spacing" textLength="67" x="286.5"
              y="293.2529">Controller
        </text>
        <ellipse cx="323" cy="312.5547" fill="#E2E2F0" rx="12" ry="12" style="stroke:#181818;stroke-width:0.5;"/>
        <line style="stroke:#181818;stroke-width:0.5;" x1="311" x2="335" y1="326.5547" y2="326.5547"/>
        <text fill="#000000" font-family="sans-serif" font-size="14" lengthAdjust="spacing" textLength="42" x="524"
              y="135.4248">Model
        </text>
        <ellipse cx="548" cy="106.4297" fill="#E2E2F0" rx="12" ry="12" style="stroke:#181818;stroke-width:0.5;"/>
        <line style="stroke:#181818;stroke-width:0.5;" x1="536" x2="560" y1="120.4297" y2="120.4297"/>
        <text fill="#000000" font-family="sans-serif" font-size="14" lengthAdjust="spacing" textLength="42" x="524"
              y="293.2529">Model
        </text>
        <ellipse cx="548" cy="312.5547" fill="#E2E2F0" rx="12" ry="12" style="stroke:#181818;stroke-width:0.5;"/>
        <line style="stroke:#181818;stroke-width:0.5;" x1="536" x2="560" y1="326.5547" y2="326.5547"/>
        <rect fill="#FFFFFF" height="64.2656" style="stroke:#181818;stroke-width:1.0;" width="10" x="93" y="169.8594"/>
        <rect fill="#FFFFFF" height="29.1328" style="stroke:#181818;stroke-width:1.0;" width="10" x="318" y="234.125"/>
        <line style="stroke:#181818;stroke-width:2.0;" x1="33.5" x2="43.5" y1="164.8594" y2="174.8594"/>
        <line style="stroke:#181818;stroke-width:2.0;" x1="33.5" x2="43.5" y1="174.8594" y2="164.8594"/>
        <line style="stroke:#181818;stroke-width:1.0;" x1="38.5" x2="92" y1="169.8594" y2="169.8594"/>
        <text fill="#000000" font-family="sans-serif" font-size="13" font-weight="bold" lengthAdjust="spacing"
              textLength="9" x="43.5" y="164.7935">1
        </text>
        <text fill="#000000" font-family="sans-serif" font-size="13" lengthAdjust="spacing" textLength="27" x="56.5"
              y="164.7935">ping
        </text>
        <path d="M108,182.8594 L108,207.8594 L179,207.8594 L179,192.8594 L169,182.8594 L108,182.8594 " fill="#FEFFDD"
              style="stroke:#181818;stroke-width:0.5;"/>
        <path d="M169,182.8594 L169,192.8594 L179,192.8594 L169,182.8594 " fill="#FEFFDD"
              style="stroke:#181818;stroke-width:0.5;"/>
        <text fill="#000000" font-family="sans-serif" font-size="13" lengthAdjust="spacing" textLength="50" x="114"
              y="199.9263">timeout
        </text>
        <polygon fill="#181818" points="306,230.125,316,234.125,306,238.125,310,234.125"
                 style="stroke:#181818;stroke-width:1.0;"/>
        <line style="stroke:#181818;stroke-width:1.0;" x1="98" x2="312" y1="234.125" y2="234.125"/>
        <text fill="#000000" font-family="sans-serif" font-size="13" font-weight="bold" lengthAdjust="spacing"
              textLength="9" x="105" y="229.0591">2
        </text>
        <text fill="#000000" font-family="sans-serif" font-size="13" lengthAdjust="spacing" textLength="183" x="118"
              y="229.0591">disconnectPlayer(username)
        </text>
        <polygon fill="#181818" points="536,259.2578,546,263.2578,536,267.2578,540,263.2578"
                 style="stroke:#181818;stroke-width:1.0;"/>
        <line style="stroke:#181818;stroke-width:1.0;" x1="323" x2="542" y1="263.2578" y2="263.2578"/>
        <text fill="#000000" font-family="sans-serif" font-size="13" font-weight="bold" lengthAdjust="spacing"
              textLength="9" x="330" y="258.1919">3
        </text>
        <text fill="#000000" font-family="sans-serif" font-size="13" lengthAdjust="spacing" textLength="183" x="343"
              y="258.1919">disconnectPlayer(username)
        </text><!--SRC=[ZL2n3e903DtlAphgu0ymk32Jc1ZPJwvYawCrHm_XxpqW2XW7EpNljU-zraOLZiqLWp5NwU7IfivMAW4A6qWCieD4pEmPGvTuP2KTeAIWqVgIyFc6Sc4DulqoL8X3lwWap2FadX8DZjfAcB5I4ZPcfGU7Opy7oE11N8-HgBEA6rEM10Igxmfosp2GIgb1YJfvZvDV-gkisIh9oTi1mowcFx1jS6yS_lJ-WAkJpTAF1jFf_selgoy0]-->
    </g>
</svg>