<svg xmlns="http://www.w3.org/2000/svg" contentStyleType="text/css"
     height="1075px" preserveAspectRatio="none" style="width:774px;height:1075px;background:#FFFFFF;" version="1.1"
     viewBox="0 0 774 1075" width="774px" zoomAndPan="magnify">
    <defs/>
    <g>
        <text fill="#000000" font-family="sans-serif" font-size="14" font-weight="bold" lengthAdjust="spacing"
              textLength="70.9375" x="353.0469" y="29.9659">Heartbeat
        </text>
        <rect fill="#DDDDDD" height="1023.456" style="stroke:#181818;stroke-width:0.5;" width="224.9063" x="26"
              y="46.0679"/>
        <text fill="#000000" font-family="sans-serif" font-size="13" font-weight="bold" lengthAdjust="spacing"
              textLength="29.625" x="123.6406" y="59.9649">User
        </text>
        <rect fill="#DDDDDD" height="1023.456" style="stroke:#181818;stroke-width:0.5;" width="499.125" x="252.9063"
              y="46.0679"/>
        <text fill="#000000" font-family="sans-serif" font-size="13" font-weight="bold" lengthAdjust="spacing"
              textLength="40.4375" x="482.25" y="59.9649">Server
        </text>
        <rect fill="#FFFFFF" height="733.4961" style="stroke:#181818;stroke-width:1.0;" width="10" x="172.9063"
              y="243.9599"/>
        <rect fill="#FFFFFF" height="701.7901" style="stroke:#181818;stroke-width:1.0;" width="10" x="327.4063"
              y="275.6659"/>
        <rect fill="#FFFFFF" height="63.412" style="stroke:#181818;stroke-width:1.0;" width="10" x="523.2188"
              y="615.414"/>
        <rect fill="#FFFFFF" height="63.412" style="stroke:#181818;stroke-width:1.0;" width="10" x="523.2188"
              y="892.044"/>
        <rect fill="#FFFFFF" height="31.706" style="stroke:#181818;stroke-width:1.0;" width="10" x="719.0313"
              y="647.12"/>
        <rect fill="#FFFFFF" height="31.706" style="stroke:#181818;stroke-width:1.0;" width="10" x="719.0313"
              y="923.75"/>
        <rect fill="none" height="648.0841" style="stroke:#000000;stroke-width:1.5;" width="758.0313" x="10"
              y="322.3719"/>
        <rect fill="none" height="614.3781" style="stroke:#000000;stroke-width:1.5;" width="738.0313" x="20"
              y="349.0779"/>
        <line style="stroke:#181818;stroke-width:0.5;stroke-dasharray:5.0,5.0;" x1="52" x2="52" y1="146.8419"
              y2="987.456"/>
        <line style="stroke:#181818;stroke-width:0.5;stroke-dasharray:5.0,5.0;" x1="177.9063" x2="177.9063"
              y1="146.8419" y2="987.456"/>
        <line style="stroke:#181818;stroke-width:0.5;stroke-dasharray:5.0,5.0;" x1="331.9063" x2="331.9063"
              y1="146.8419" y2="987.456"/>
        <line style="stroke:#181818;stroke-width:0.5;stroke-dasharray:5.0,5.0;" x1="527.7188" x2="527.7188"
              y1="146.8419" y2="987.456"/>
        <line style="stroke:#181818;stroke-width:0.5;stroke-dasharray:5.0,5.0;" x1="724.0313" x2="724.0313"
              y1="146.8419" y2="987.456"/>
        <text fill="#000000" font-family="sans-serif" font-size="14" lengthAdjust="spacing" textLength="39" x="30"
              y="142.7399">Mario
        </text>
        <ellipse cx="52.5" cy="76.2739" fill="#E2E2F0" rx="8" ry="8" style="stroke:#181818;stroke-width:0.5;"/>
        <path d="M52.5,84.2739 L52.5,111.2739 M39.5,92.2739 L65.5,92.2739 M52.5,111.2739 L39.5,126.2739 M52.5,111.2739 L65.5,126.2739 "
              fill="none" style="stroke:#181818;stroke-width:0.5;"/>
        <text fill="#000000" font-family="sans-serif" font-size="14" lengthAdjust="spacing" textLength="39" x="30"
              y="1001.422">Mario
        </text>
        <ellipse cx="52.5" cy="1014.024" fill="#E2E2F0" rx="8" ry="8" style="stroke:#181818;stroke-width:0.5;"/>
        <path d="M52.5,1022.024 L52.5,1049.024 M39.5,1030.024 L65.5,1030.024 M52.5,1049.024 L39.5,1064.024 M52.5,1049.024 L65.5,1064.024 "
              fill="none" style="stroke:#181818;stroke-width:0.5;"/>
        <rect fill="#E2E2F0" height="52.1358" rx="2.5" ry="2.5" style="stroke:#181818;stroke-width:0.5;" width="138"
              x="108.9063" y="93.706"/>
        <text fill="#000000" font-family="sans-serif" font-size="14" lengthAdjust="spacing" textLength="124"
              x="115.9063" y="115.672">HeartbeatSender /
        </text>
        <text fill="#000000" font-family="sans-serif" font-size="14" lengthAdjust="spacing" textLength="88" x="133.9063"
              y="134.7399">PongHandler
        </text>
        <rect fill="#E2E2F0" height="52.1358" rx="2.5" ry="2.5" style="stroke:#181818;stroke-width:0.5;" width="138"
              x="108.9063" y="986.456"/>
        <text fill="#000000" font-family="sans-serif" font-size="14" lengthAdjust="spacing" textLength="124"
              x="115.9063" y="1008.422">HeartbeatSender /
        </text>
        <text fill="#000000" font-family="sans-serif" font-size="14" lengthAdjust="spacing" textLength="88" x="133.9063"
              y="1027.4899">PongHandler
        </text>
        <rect fill="#E2E2F0" height="52.1358" rx="2.5" ry="2.5" style="stroke:#181818;stroke-width:0.5;" width="151"
              x="256.9063" y="93.706"/>
        <text fill="#000000" font-family="sans-serif" font-size="14" lengthAdjust="spacing" textLength="137"
              x="263.9063" y="115.672">HeartbeatManager /
        </text>
        <text fill="#000000" font-family="sans-serif" font-size="14" lengthAdjust="spacing" textLength="84" x="290.4063"
              y="134.7399">PingHandler
        </text>
        <rect fill="#E2E2F0" height="52.1358" rx="2.5" ry="2.5" style="stroke:#181818;stroke-width:0.5;" width="151"
              x="256.9063" y="986.456"/>
        <text fill="#000000" font-family="sans-serif" font-size="14" lengthAdjust="spacing" textLength="137"
              x="263.9063" y="1008.422">HeartbeatManager /
        </text>
        <text fill="#000000" font-family="sans-serif" font-size="14" lengthAdjust="spacing" textLength="84" x="290.4063"
              y="1027.4899">PingHandler
        </text>
        <text fill="#000000" font-family="sans-serif" font-size="14" lengthAdjust="spacing" textLength="67" x="491.7188"
              y="142.7399">Controller
        </text>
        <ellipse cx="528.2188" cy="111.7739" fill="#E2E2F0" rx="12" ry="12" style="stroke:#181818;stroke-width:0.5;"/>
        <line style="stroke:#181818;stroke-width:0.5;" x1="516.2188" x2="540.2188" y1="125.7739" y2="125.7739"/>
        <text fill="#000000" font-family="sans-serif" font-size="14" lengthAdjust="spacing" textLength="67" x="491.7188"
              y="1001.422">Controller
        </text>
        <ellipse cx="528.2188" cy="1021.524" fill="#E2E2F0" rx="12" ry="12" style="stroke:#181818;stroke-width:0.5;"/>
        <line style="stroke:#181818;stroke-width:0.5;" x1="516.2188" x2="540.2188" y1="1035.524" y2="1035.524"/>
        <text fill="#000000" font-family="sans-serif" font-size="14" lengthAdjust="spacing" textLength="42" x="700.0313"
              y="142.7399">Model
        </text>
        <ellipse cx="724.0313" cy="111.7739" fill="#E2E2F0" rx="12" ry="12" style="stroke:#181818;stroke-width:0.5;"/>
        <line style="stroke:#181818;stroke-width:0.5;" x1="712.0313" x2="736.0313" y1="125.7739" y2="125.7739"/>
        <text fill="#000000" font-family="sans-serif" font-size="14" lengthAdjust="spacing" textLength="42" x="700.0313"
              y="1001.422">Model
        </text>
        <ellipse cx="724.0313" cy="1021.524" fill="#E2E2F0" rx="12" ry="12" style="stroke:#181818;stroke-width:0.5;"/>
        <line style="stroke:#181818;stroke-width:0.5;" x1="712.0313" x2="736.0313" y1="1035.524" y2="1035.524"/>
        <rect fill="#FFFFFF" height="733.4961" style="stroke:#181818;stroke-width:1.0;" width="10" x="172.9063"
              y="243.9599"/>
        <rect fill="#FFFFFF" height="701.7901" style="stroke:#181818;stroke-width:1.0;" width="10" x="327.4063"
              y="275.6659"/>
        <rect fill="#FFFFFF" height="63.412" style="stroke:#181818;stroke-width:1.0;" width="10" x="523.2188"
              y="615.414"/>
        <rect fill="#FFFFFF" height="63.412" style="stroke:#181818;stroke-width:1.0;" width="10" x="523.2188"
              y="892.044"/>
        <rect fill="#FFFFFF" height="31.706" style="stroke:#181818;stroke-width:1.0;" width="10" x="719.0313"
              y="647.12"/>
        <rect fill="#FFFFFF" height="31.706" style="stroke:#181818;stroke-width:1.0;" width="10" x="719.0313"
              y="923.75"/>
        <polygon fill="#181818" points="516.2188,176.5479,526.2188,180.5479,516.2188,184.5479,520.2188,180.5479"
                 style="stroke:#181818;stroke-width:1.0;"/>
        <line style="stroke:#181818;stroke-width:1.0;" x1="52.5" x2="522.2188" y1="180.5479" y2="180.5479"/>
        <text fill="#000000" font-family="sans-serif" font-size="13" font-weight="bold" lengthAdjust="spacing"
              textLength="7.4063" x="59.5" y="174.7389">1
        </text>
        <text fill="#000000" font-family="sans-serif" font-size="13" lengthAdjust="spacing" textLength="137" x="70.9063"
              y="174.7389">Login(see initialization)
        </text>
        <polygon fill="#181818" points="712.0313,208.2539,722.0313,212.2539,712.0313,216.2539,716.0313,212.2539"
                 style="stroke:#181818;stroke-width:1.0;"/>
        <line style="stroke:#181818;stroke-width:1.0;" x1="528.2188" x2="718.0313" y1="212.2539" y2="212.2539"/>
        <text fill="#000000" font-family="sans-serif" font-size="13" font-weight="bold" lengthAdjust="spacing"
              textLength="7.4063" x="535.2188" y="206.4449">2
        </text>
        <text fill="#000000" font-family="sans-serif" font-size="13" lengthAdjust="spacing" textLength="34" x="546.625"
              y="206.4449">Login
        </text>
        <polygon fill="#181818" points="160.9063,239.9599,170.9063,243.9599,160.9063,247.9599,164.9063,243.9599"
                 style="stroke:#181818;stroke-width:1.0;"/>
        <line style="stroke:#181818;stroke-width:1.0;" x1="52.5" x2="166.9063" y1="243.9599" y2="243.9599"/>
        <text fill="#000000" font-family="sans-serif" font-size="13" font-weight="bold" lengthAdjust="spacing"
              textLength="7.4063" x="59.5" y="238.1509">3
        </text>
        <text fill="#000000" font-family="sans-serif" font-size="13" lengthAdjust="spacing" textLength="90" x="70.9063"
              y="238.1509">StartHeartbeat
        </text>
        <polygon fill="#181818" points="315.4063,271.6659,325.4063,275.6659,315.4063,279.6659,319.4063,275.6659"
                 style="stroke:#181818;stroke-width:1.0;"/>
        <line style="stroke:#181818;stroke-width:1.0;" x1="182.9063" x2="321.4063" y1="275.6659" y2="275.6659"/>
        <text fill="#000000" font-family="sans-serif" font-size="13" font-weight="bold" lengthAdjust="spacing"
              textLength="7.4063" x="189.9063" y="269.8569">4
        </text>
        <text fill="#000000" font-family="sans-serif" font-size="13" lengthAdjust="spacing" textLength="27" x="201.3125"
              y="269.8569">Ping
        </text>
        <polygon fill="#181818" points="193.9063,303.3719,183.9063,307.3719,193.9063,311.3719,189.9063,307.3719"
                 style="stroke:#181818;stroke-width:1.0;"/>
        <line style="stroke:#181818;stroke-width:1.0;stroke-dasharray:2.0,2.0;" x1="187.9063" x2="326.4063"
              y1="307.3719" y2="307.3719"/>
        <text fill="#000000" font-family="sans-serif" font-size="13" font-weight="bold" lengthAdjust="spacing"
              textLength="7.4063" x="199.9063" y="301.5629">5
        </text>
        <text fill="#000000" font-family="sans-serif" font-size="13" lengthAdjust="spacing" textLength="32" x="211.3125"
              y="301.5629">Pong
        </text>
        <path d="M10,322.3719 L83.625,322.3719 L83.625,332.0779 L73.625,342.0779 L10,342.0779 L10,322.3719 "
              fill="#EEEEEE" style="stroke:#000000;stroke-width:1.5;"/>
        <rect fill="none" height="648.0841" style="stroke:#000000;stroke-width:1.5;" width="758.0313" x="10"
              y="322.3719"/>
        <text fill="#000000" font-family="sans-serif" font-size="13" font-weight="bold" lengthAdjust="spacing"
              textLength="28.625" x="25" y="337.2689">loop
        </text>
        <text fill="#000000" font-family="sans-serif" font-size="11" font-weight="bold" lengthAdjust="spacing"
              textLength="97.1563" x="98.625" y="336.1308">[every n seconds]
        </text>
        <path d="M20,349.0779 L81.2188,349.0779 L81.2188,358.784 L71.2188,368.784 L20,368.784 L20,349.0779 "
              fill="#EEEEEE" style="stroke:#000000;stroke-width:1.5;"/>
        <rect fill="none" height="614.3781" style="stroke:#000000;stroke-width:1.5;" width="738.0313" x="20"
              y="349.0779"/>
        <text fill="#000000" font-family="sans-serif" font-size="13" font-weight="bold" lengthAdjust="spacing"
              textLength="16.2188" x="35" y="363.975">alt
        </text>
        <text fill="#000000" font-family="sans-serif" font-size="11" font-weight="bold" lengthAdjust="spacing"
              textLength="73.7813" x="96.2188" y="362.8369">[no problem]
        </text>
        <path d="M44,373.784 L44,436.784 L167,436.784 L167,383.784 L157,373.784 L44,373.784 " fill="#FEFFDD"
              style="stroke:#181818;stroke-width:0.5;"/>
        <path d="M157,373.784 L157,383.784 L167,383.784 L157,373.784 " fill="#FEFFDD"
              style="stroke:#181818;stroke-width:0.5;"/>
        <text fill="#000000" font-family="sans-serif" font-size="13" lengthAdjust="spacing" textLength="82" x="50"
              y="392.681">There's 5 tries
        </text>
        <text fill="#000000" font-family="sans-serif" font-size="13" lengthAdjust="spacing" textLength="102" x="50"
              y="410.387">before the player
        </text>
        <text fill="#000000" font-family="sans-serif" font-size="13" lengthAdjust="spacing" textLength="92" x="50"
              y="428.093">is disconnected
        </text>
        <polygon fill="#181818" points="315.4063,461.608,325.4063,465.608,315.4063,469.608,319.4063,465.608"
                 style="stroke:#181818;stroke-width:1.0;"/>
        <line style="stroke:#181818;stroke-width:1.0;" x1="182.9063" x2="321.4063" y1="465.608" y2="465.608"/>
        <text fill="#000000" font-family="sans-serif" font-size="13" font-weight="bold" lengthAdjust="spacing"
              textLength="7.4063" x="189.9063" y="459.799">6
        </text>
        <text fill="#000000" font-family="sans-serif" font-size="13" lengthAdjust="spacing" textLength="27" x="201.3125"
              y="459.799">Ping
        </text>
        <polygon fill="#181818" points="193.9063,493.314,183.9063,497.314,193.9063,501.314,189.9063,497.314"
                 style="stroke:#181818;stroke-width:1.0;"/>
        <line style="stroke:#181818;stroke-width:1.0;stroke-dasharray:2.0,2.0;" x1="187.9063" x2="326.4063" y1="497.314"
              y2="497.314"/>
        <text fill="#000000" font-family="sans-serif" font-size="13" font-weight="bold" lengthAdjust="spacing"
              textLength="7.4063" x="199.9063" y="491.505">7
        </text>
        <text fill="#000000" font-family="sans-serif" font-size="13" lengthAdjust="spacing" textLength="32" x="211.3125"
              y="491.505">Pong
        </text>
        <line style="stroke:#000000;stroke-width:1.0;stroke-dasharray:2.0,2.0;" x1="20" x2="758.0313" y1="506.314"
              y2="506.314"/>
        <text fill="#000000" font-family="sans-serif" font-size="11" font-weight="bold" lengthAdjust="spacing"
              textLength="98.1563" x="25" y="518.073">[Sender problem]
        </text>
        <line style="stroke:#181818;stroke-width:2.0;" x1="309.4063" x2="319.4063" y1="541.002" y2="551.002"/>
        <line style="stroke:#181818;stroke-width:2.0;" x1="309.4063" x2="319.4063" y1="551.002" y2="541.002"/>
        <line style="stroke:#181818;stroke-width:1.0;" x1="182.9063" x2="314.4063" y1="546.002" y2="546.002"/>
        <text fill="#000000" font-family="sans-serif" font-size="13" font-weight="bold" lengthAdjust="spacing"
              textLength="7.4063" x="189.9063" y="540.1929">8
        </text>
        <text fill="#000000" font-family="sans-serif" font-size="13" lengthAdjust="spacing" textLength="27" x="201.3125"
              y="540.1929">Ping
        </text>
        <path d="M342,559.002 L342,586.002 L413,586.002 L413,569.002 L403,559.002 L342,559.002 " fill="#FEFFDD"
              style="stroke:#181818;stroke-width:0.5;"/>
        <path d="M403,559.002 L403,569.002 L413,569.002 L403,559.002 " fill="#FEFFDD"
              style="stroke:#181818;stroke-width:0.5;"/>
        <text fill="#000000" font-family="sans-serif" font-size="13" lengthAdjust="spacing" textLength="50" x="348"
              y="577.899">Timeout
        </text>
        <polygon fill="#181818" points="511.2188,611.414,521.2188,615.414,511.2188,619.414,515.2188,615.414"
                 style="stroke:#181818;stroke-width:1.0;"/>
        <line style="stroke:#181818;stroke-width:1.0;" x1="337.4063" x2="517.2188" y1="615.414" y2="615.414"/>
        <text fill="#000000" font-family="sans-serif" font-size="13" font-weight="bold" lengthAdjust="spacing"
              textLength="7.4063" x="344.4063" y="609.605">9
        </text>
        <text fill="#000000" font-family="sans-serif" font-size="13" lengthAdjust="spacing" textLength="148"
              x="355.8125" y="609.605">DisconnectPlayer(player)
        </text>
        <polygon fill="#181818" points="707.0313,643.12,717.0313,647.12,707.0313,651.12,711.0313,647.12"
                 style="stroke:#181818;stroke-width:1.0;"/>
        <line style="stroke:#181818;stroke-width:1.0;" x1="533.2188" x2="713.0313" y1="647.12" y2="647.12"/>
        <text fill="#000000" font-family="sans-serif" font-size="13" font-weight="bold" lengthAdjust="spacing"
              textLength="14.8125" x="540.2188" y="641.311">10
        </text>
        <text fill="#000000" font-family="sans-serif" font-size="13" lengthAdjust="spacing" textLength="148"
              x="559.0313" y="641.311">DisconnectPlayer(player)
        </text>
        <polygon fill="#181818" points="539.2188,674.826,529.2188,678.826,539.2188,682.826,535.2188,678.826"
                 style="stroke:#181818;stroke-width:1.0;"/>
        <line style="stroke:#181818;stroke-width:1.0;stroke-dasharray:2.0,2.0;" x1="533.2188" x2="723.0313" y1="678.826"
              y2="678.826"/>
        <text fill="#000000" font-family="sans-serif" font-size="13" font-weight="bold" lengthAdjust="spacing"
              textLength="14.8125" x="545.2188" y="673.017">11
        </text>
        <text fill="#000000" font-family="sans-serif" font-size="13" lengthAdjust="spacing" textLength="18" x="564.0313"
              y="673.017">OK
        </text>
        <polygon fill="#181818" points="63.5,706.532,53.5,710.532,63.5,714.532,59.5,710.532"
                 style="stroke:#181818;stroke-width:1.0;"/>
        <line style="stroke:#181818;stroke-width:1.0;" x1="57.5" x2="171.9063" y1="710.532" y2="710.532"/>
        <text fill="#000000" font-family="sans-serif" font-size="13" font-weight="bold" lengthAdjust="spacing"
              textLength="14.8125" x="69.5" y="704.723">12
        </text>
        <text fill="#000000" font-family="sans-serif" font-size="13" lengthAdjust="spacing" textLength="66" x="88.3125"
              y="704.723">Disconnect
        </text>
        <line style="stroke:#000000;stroke-width:1.0;stroke-dasharray:2.0,2.0;" x1="20" x2="758.0313" y1="719.532"
              y2="719.532"/>
        <text fill="#000000" font-family="sans-serif" font-size="11" font-weight="bold" lengthAdjust="spacing"
              textLength="105.8438" x="25" y="731.2909">[Receiver problem]
        </text>
        <polygon fill="#181818" points="315.4063,755.2199,325.4063,759.2199,315.4063,763.2199,319.4063,759.2199"
                 style="stroke:#181818;stroke-width:1.0;"/>
        <line style="stroke:#181818;stroke-width:1.0;" x1="182.9063" x2="321.4063" y1="759.2199" y2="759.2199"/>
        <text fill="#000000" font-family="sans-serif" font-size="13" font-weight="bold" lengthAdjust="spacing"
              textLength="14.8125" x="189.9063" y="753.4109">13
        </text>
        <text fill="#000000" font-family="sans-serif" font-size="13" lengthAdjust="spacing" textLength="27" x="208.7188"
              y="753.4109">Ping
        </text>
        <line style="stroke:#181818;stroke-width:2.0;" x1="189.9063" x2="199.9063" y1="785.926" y2="795.926"/>
        <line style="stroke:#181818;stroke-width:2.0;" x1="189.9063" x2="199.9063" y1="795.926" y2="785.926"/>
        <line style="stroke:#181818;stroke-width:1.0;" x1="194.9063" x2="326.4063" y1="790.926" y2="790.926"/>
        <text fill="#000000" font-family="sans-serif" font-size="13" font-weight="bold" lengthAdjust="spacing"
              textLength="14.8125" x="199.9063" y="785.117">14
        </text>
        <text fill="#000000" font-family="sans-serif" font-size="13" lengthAdjust="spacing" textLength="32" x="218.7188"
              y="785.117">Pong
        </text>
        <path d="M96,803.926 L96,830.926 L167,830.926 L167,813.926 L157,803.926 L96,803.926 " fill="#FEFFDD"
              style="stroke:#181818;stroke-width:0.5;"/>
        <path d="M157,803.926 L157,813.926 L167,813.926 L157,803.926 " fill="#FEFFDD"
              style="stroke:#181818;stroke-width:0.5;"/>
        <text fill="#000000" font-family="sans-serif" font-size="13" lengthAdjust="spacing" textLength="50" x="102"
              y="822.823">Timeout
        </text>
        <polygon fill="#181818" points="63.5,856.338,53.5,860.338,63.5,864.338,59.5,860.338"
                 style="stroke:#181818;stroke-width:1.0;"/>
        <line style="stroke:#181818;stroke-width:1.0;" x1="57.5" x2="171.9063" y1="860.338" y2="860.338"/>
        <text fill="#000000" font-family="sans-serif" font-size="13" font-weight="bold" lengthAdjust="spacing"
              textLength="14.8125" x="69.5" y="854.529">15
        </text>
        <text fill="#000000" font-family="sans-serif" font-size="13" lengthAdjust="spacing" textLength="66" x="88.3125"
              y="854.529">Disconnect
        </text>
        <polygon fill="#181818" points="511.2188,888.044,521.2188,892.044,511.2188,896.044,515.2188,892.044"
                 style="stroke:#181818;stroke-width:1.0;"/>
        <line style="stroke:#181818;stroke-width:1.0;" x1="337.4063" x2="517.2188" y1="892.044" y2="892.044"/>
        <text fill="#000000" font-family="sans-serif" font-size="13" font-weight="bold" lengthAdjust="spacing"
              textLength="14.8125" x="344.4063" y="886.235">16
        </text>
        <text fill="#000000" font-family="sans-serif" font-size="13" lengthAdjust="spacing" textLength="148"
              x="363.2188" y="886.235">DisconnectPlayer(player)
        </text>
        <polygon fill="#181818" points="707.0313,919.75,717.0313,923.75,707.0313,927.75,711.0313,923.75"
                 style="stroke:#181818;stroke-width:1.0;"/>
        <line style="stroke:#181818;stroke-width:1.0;" x1="533.2188" x2="713.0313" y1="923.75" y2="923.75"/>
        <text fill="#000000" font-family="sans-serif" font-size="13" font-weight="bold" lengthAdjust="spacing"
              textLength="14.8125" x="540.2188" y="917.941">17
        </text>
        <text fill="#000000" font-family="sans-serif" font-size="13" lengthAdjust="spacing" textLength="148"
              x="559.0313" y="917.941">DisconnectPlayer(player)
        </text>
        <polygon fill="#181818" points="539.2188,951.456,529.2188,955.456,539.2188,959.456,535.2188,955.456"
                 style="stroke:#181818;stroke-width:1.0;"/>
        <line style="stroke:#181818;stroke-width:1.0;stroke-dasharray:2.0,2.0;" x1="533.2188" x2="723.0313" y1="955.456"
              y2="955.456"/>
        <text fill="#000000" font-family="sans-serif" font-size="13" font-weight="bold" lengthAdjust="spacing"
              textLength="14.8125" x="545.2188" y="949.647">18
        </text>
        <text fill="#000000" font-family="sans-serif" font-size="13" lengthAdjust="spacing" textLength="18" x="564.0313"
              y="949.647">OK
        </text><!--SRC=[vLGzRzim4DtvAmvPaWokfouUihH3WDPeK3T0XooKT9OFe7WgUJBg_FfIb4JHYGLdBmT1le_7zzwTV7iGQVrclMwDjj8rvbF9pThZdmvjYQkATErqevJkX6tN5EYK4XA3y8ZQIO5Qb2huBppxaDAbi8EjTiIg3MaggGsmS9EATsWhTB1-iKziwqTjAuFk1hI78QF24mBU0Bf3Tmonor1RRNKzOj4vrayiaOuHBP0zmHUsujYOERBb2iryMQGCguUiSWFVkIPxvn61B0bfGwzQYEszcglwdeWrbiz8WvuDx2JmpSmA7j5H2qw2rMX9Q9beRw0ND5ScEMfwWrLsG- -aCimjO4YTm8B7actbbO9mj16m3AtZmc0JG_sn790DxWLuFt61xFmweCDR3vz17A4_onMuPuSW1uImDwStdUIX8XyOM2m5gvJhtUvlJO55vLF1ijo8P_pauZjr2Vht4dRKxwW-H0EInMSMK8FSoRA0cT_vvdnDyf-YFNU3I_UfCOqssyoKlBXT7uSSLZl5uyzeOCxmnxTKKE6RrWk9IpJdwSMTpodEuqaEBGxe-kp33D_D_aCRV6ryrnJyhoCUpUh_7bLMCLgSHT9Nymy0]-->
    </g>
</svg>