<?xml version="1.0" encoding="us-ascii" standalone="no"?>
<svg xmlns="http://www.w3.org/2000/svg" contentStyleType="text/css"
     height="927px" preserveAspectRatio="none" style="width:1767px;height:927px;background:#F8F8FF;" version="1.1"
     viewBox="0 0 1767 927" width="1767px" zoomAndPan="magnify">
    <defs/>
    <g>
        <rect fill="#F8F8FF" height="927" style="stroke:none;stroke-width:1.0;" width="1767" x="0"
              y="0"/><!--cluster cards-->
        <g id="cluster_cards">
            <path d="M8.5,6 L54.5,6 A3.75,3.75 0 0 1 57,8.5 L64,28.2969 L1757.5,28.2969 A2.5,2.5 0 0 1 1760,30.7969 L1760,917.5 A2.5,2.5 0 0 1 1757.5,920 L8.5,920 A2.5,2.5 0 0 1 6,917.5 L6,8.5 A2.5,2.5 0 0 1 8.5,6 "
                  fill="none" style="stroke:#000000;stroke-width:1.5;"/>
            <line style="stroke:#000000;stroke-width:1.5;" x1="6" x2="64" y1="28.2969" y2="28.2969"/>
            <text fill="#000000" font-family="sans-serif" font-size="14" font-weight="bold" lengthAdjust="spacing"
                  textLength="45" x="10" y="20.9951">cards
            </text>
        </g><!--cluster objective-->
        <g id="cluster_objective">
            <path d="M32.5,49 L107.5,49 A3.75,3.75 0 0 1 110,51.5 L117,71.2969 L1733.5,71.2969 A2.5,2.5 0 0 1 1736,73.7969 L1736,893.5 A2.5,2.5 0 0 1 1733.5,896 L32.5,896 A2.5,2.5 0 0 1 30,893.5 L30,51.5 A2.5,2.5 0 0 1 32.5,49 "
                  fill="none" style="stroke:#000000;stroke-width:1.5;"/>
            <line style="stroke:#000000;stroke-width:1.5;" x1="30" x2="117" y1="71.2969" y2="71.2969"/>
            <text fill="#000000" font-family="sans-serif" font-size="14" font-weight="bold" lengthAdjust="spacing"
                  textLength="74" x="34" y="63.9951">objective
            </text>
        </g><!--class ObjectiveCard-->
        <g id="elem_ObjectiveCard">
            <rect codeLine="4" fill="#F1F1F1" height="194.6719" id="ObjectiveCard" rx="2.5" ry="2.5"
                  style="stroke:#181818;stroke-width:0.5;" width="470" x="758" y="84"/>
            <ellipse cx="938.25" cy="100" fill="#A9DCDF" rx="11" ry="11" style="stroke:#181818;stroke-width:1.0;"/>
            <path d="M940.3281,101.8125 L940.7188,102.7969 L940.3281,102.7969 C939.875,102.7969 939.7656,102.8125 939.6094,102.9219 C939.3594,103.0781 939.2031,103.3594 939.2031,103.6563 C939.2031,103.9219 939.3438,104.1719 939.5625,104.3281 C939.7031,104.4531 939.9063,104.5 940.3281,104.5 L942.6875,104.5 C943.0469,104.5 943.2656,104.4688 943.4063,104.375 C943.6563,104.2344 943.8125,103.9375 943.8125,103.6563 C943.8125,103.375 943.6719,103.125 943.4531,102.9688 C943.2813,102.8281 943.125,102.7969 942.6563,102.7969 L939.2656,94.5938 L935.5938,94.5938 C935.1406,94.5938 935.0156,94.6094 934.8594,94.7031 C934.6094,94.875 934.4531,95.1563 934.4531,95.4375 C934.4531,95.7188 934.5938,95.9688 934.8125,96.1406 C934.9844,96.25 935.1563,96.2813 935.5938,96.2813 L936.6719,96.2813 L934.0313,102.7969 C933.6094,102.7969 933.4531,102.8125 933.2969,102.9219 C933.0469,103.0781 932.8906,103.3594 932.8906,103.6563 C932.8906,104.2188 933.2656,104.5 934.0156,104.5 L936.2813,104.5 C936.6406,104.5 936.8594,104.4688 936.9844,104.375 C937.25,104.2344 937.3906,103.9375 937.3906,103.6563 C937.3906,103.375 937.2656,103.125 937.0469,102.9531 C936.875,102.8281 936.7344,102.7969 936.2813,102.7969 L935.8906,102.7969 L936.2813,101.8125 L940.3281,101.8125 Z M939.625,100.1094 L936.9531,100.1094 L938.2969,96.8438 L939.625,100.1094 Z "
                  fill="#000000"/>
            <text fill="#000000" font-family="sans-serif" font-size="14" font-style="italic" lengthAdjust="spacing"
                  textLength="101" x="958.75" y="104.8467">ObjectiveCard
            </text>
            <line style="stroke:#181818;stroke-width:0.5;" x1="759" x2="1227" y1="116" y2="116"/>
            <rect fill="none" height="6" style="stroke:#C82930;stroke-width:1.0;" width="6" x="766" y="126.6484"/>
            <text fill="#000000" font-family="sans-serif" font-size="14" lengthAdjust="spacing" textLength="42" x="778"
                  y="132.9951">id: int
            </text>
            <rect fill="none" height="6" style="stroke:#C82930;stroke-width:1.0;" width="6" x="766" y="142.9453"/>
            <text fill="#000000" font-family="sans-serif" font-size="14" lengthAdjust="spacing" textLength="75" x="778"
                  y="149.292">points: int
            </text>
            <line style="stroke:#181818;stroke-width:0.5;" x1="759" x2="1227" y1="156.5938" y2="156.5938"/>
            <polygon fill="#FFFF44" points="769,165.2422,773,169.2422,769,173.2422,765,169.2422"
                     style="stroke:#B38D22;stroke-width:1.0;"/>
            <text fill="#000000" font-family="sans-serif" font-size="14" lengthAdjust="spacing" textLength="238" x="778"
                  y="173.5889">ObjectiveCard(ObjectiveBuilder):
            </text>
            <ellipse cx="769" cy="186.5391" fill="#84BE84" rx="3" ry="3" style="stroke:#038048;stroke-width:1.0;"/>
            <text fill="#000000" font-family="sans-serif" font-size="14" lengthAdjust="spacing" textLength="77" x="778"
                  y="189.8857">getId(): int
            </text>
            <ellipse cx="769" cy="202.8359" fill="#84BE84" rx="3" ry="3" style="stroke:#038048;stroke-width:1.0;"/>
            <text fill="#000000" font-family="sans-serif" font-size="14" lengthAdjust="spacing" textLength="412" x="778"
                  y="206.1826">getColorRequirements(): ImmutableMap&lt;Color, Integer&gt;
            </text>
            <ellipse cx="769" cy="219.1328" fill="#84BE84" rx="3" ry="3" style="stroke:#038048;stroke-width:1.0;"/>
            <text fill="#000000" font-family="sans-serif" font-size="14" lengthAdjust="spacing" textLength="219" x="778"
                  y="222.4795">getType(): ObjectiveCardType
            </text>
            <ellipse cx="769" cy="235.4297" fill="#84BE84" rx="3" ry="3" style="stroke:#038048;stroke-width:1.0;"/>
            <text fill="#000000" font-family="sans-serif" font-size="14" lengthAdjust="spacing" textLength="109" x="778"
                  y="238.7764">getPoints(): int
            </text>
            <ellipse cx="769" cy="251.7266" fill="#84BE84" rx="3" ry="3" style="stroke:#038048;stroke-width:1.0;"/>
            <text fill="#000000" font-family="sans-serif" font-size="14" lengthAdjust="spacing" textLength="444" x="778"
                  y="255.0732">getSymbolRequirements(): ImmutableMap&lt;Symbol, Integer&gt;
            </text>
            <ellipse cx="769" cy="268.0234" fill="#84BE84" rx="3" ry="3" style="stroke:#038048;stroke-width:1.0;"/>
            <text fill="#000000" font-family="sans-serif" font-size="14" lengthAdjust="spacing" textLength="203" x="778"
                  y="271.3701">countPoints(PlayerField): int
            </text>
        </g><!--class CollectingCard-->
        <g id="elem_CollectingCard">
            <rect codeLine="16" fill="#F1F1F1" height="64.2969" id="CollectingCard" rx="2.5" ry="2.5"
                  style="stroke:#181818;stroke-width:0.5;" width="270" x="520" y="371.5"/>
            <ellipse cx="598.25" cy="387.5" fill="#A9DCDF" rx="11" ry="11" style="stroke:#181818;stroke-width:1.0;"/>
            <path d="M600.3281,389.3125 L600.7188,390.2969 L600.3281,390.2969 C599.875,390.2969 599.7656,390.3125 599.6094,390.4219 C599.3594,390.5781 599.2031,390.8594 599.2031,391.1563 C599.2031,391.4219 599.3438,391.6719 599.5625,391.8281 C599.7031,391.9531 599.9063,392 600.3281,392 L602.6875,392 C603.0469,392 603.2656,391.9688 603.4063,391.875 C603.6563,391.7344 603.8125,391.4375 603.8125,391.1563 C603.8125,390.875 603.6719,390.625 603.4531,390.4688 C603.2813,390.3281 603.125,390.2969 602.6563,390.2969 L599.2656,382.0938 L595.5938,382.0938 C595.1406,382.0938 595.0156,382.1094 594.8594,382.2031 C594.6094,382.375 594.4531,382.6563 594.4531,382.9375 C594.4531,383.2188 594.5938,383.4688 594.8125,383.6406 C594.9844,383.75 595.1563,383.7813 595.5938,383.7813 L596.6719,383.7813 L594.0313,390.2969 C593.6094,390.2969 593.4531,390.3125 593.2969,390.4219 C593.0469,390.5781 592.8906,390.8594 592.8906,391.1563 C592.8906,391.7188 593.2656,392 594.0156,392 L596.2813,392 C596.6406,392 596.8594,391.9688 596.9844,391.875 C597.25,391.7344 597.3906,391.4375 597.3906,391.1563 C597.3906,390.875 597.2656,390.625 597.0469,390.4531 C596.875,390.3281 596.7344,390.2969 596.2813,390.2969 L595.8906,390.2969 L596.2813,389.3125 L600.3281,389.3125 Z M599.625,387.6094 L596.9531,387.6094 L598.2969,384.3438 L599.625,387.6094 Z "
                  fill="#000000"/>
            <text fill="#000000" font-family="sans-serif" font-size="14" font-style="italic" lengthAdjust="spacing"
                  textLength="105" x="618.75" y="392.3467">CollectingCard
            </text>
            <line style="stroke:#181818;stroke-width:0.5;" x1="521" x2="789" y1="403.5" y2="403.5"/>
            <line style="stroke:#181818;stroke-width:0.5;" x1="521" x2="789" y1="411.5" y2="411.5"/>
            <polygon fill="#FFFF44" points="531,420.1484,535,424.1484,531,428.1484,527,424.1484"
                     style="stroke:#B38D22;stroke-width:1.0;"/>
            <text fill="#000000" font-family="sans-serif" font-size="14" lengthAdjust="spacing" textLength="244" x="540"
                  y="428.4951">CollectingCard(CollectingBuilder):
            </text>
        </g><!--class PositioningCard-->
        <g id="elem_PositioningCard">
            <rect codeLine="19" fill="#F1F1F1" height="113.1875" id="PositioningCard" rx="2.5" ry="2.5"
                  style="stroke:#181818;stroke-width:0.5;" width="379" x="1187.5" y="347"/>
            <ellipse cx="1317.25" cy="363" fill="#A9DCDF" rx="11" ry="11" style="stroke:#181818;stroke-width:1.0;"/>
            <path d="M1319.3281,364.8125 L1319.7188,365.7969 L1319.3281,365.7969 C1318.875,365.7969 1318.7656,365.8125 1318.6094,365.9219 C1318.3594,366.0781 1318.2031,366.3594 1318.2031,366.6563 C1318.2031,366.9219 1318.3438,367.1719 1318.5625,367.3281 C1318.7031,367.4531 1318.9063,367.5 1319.3281,367.5 L1321.6875,367.5 C1322.0469,367.5 1322.2656,367.4688 1322.4063,367.375 C1322.6563,367.2344 1322.8125,366.9375 1322.8125,366.6563 C1322.8125,366.375 1322.6719,366.125 1322.4531,365.9688 C1322.2813,365.8281 1322.125,365.7969 1321.6563,365.7969 L1318.2656,357.5938 L1314.5938,357.5938 C1314.1406,357.5938 1314.0156,357.6094 1313.8594,357.7031 C1313.6094,357.875 1313.4531,358.1563 1313.4531,358.4375 C1313.4531,358.7188 1313.5938,358.9688 1313.8125,359.1406 C1313.9844,359.25 1314.1563,359.2813 1314.5938,359.2813 L1315.6719,359.2813 L1313.0313,365.7969 C1312.6094,365.7969 1312.4531,365.8125 1312.2969,365.9219 C1312.0469,366.0781 1311.8906,366.3594 1311.8906,366.6563 C1311.8906,367.2188 1312.2656,367.5 1313.0156,367.5 L1315.2813,367.5 C1315.6406,367.5 1315.8594,367.4688 1315.9844,367.375 C1316.25,367.2344 1316.3906,366.9375 1316.3906,366.6563 C1316.3906,366.375 1316.2656,366.125 1316.0469,365.9531 C1315.875,365.8281 1315.7344,365.7969 1315.2813,365.7969 L1314.8906,365.7969 L1315.2813,364.8125 L1319.3281,364.8125 Z M1318.625,363.1094 L1315.9531,363.1094 L1317.2969,359.8438 L1318.625,363.1094 Z "
                  fill="#000000"/>
            <text fill="#000000" font-family="sans-serif" font-size="14" font-style="italic" lengthAdjust="spacing"
                  textLength="111" x="1337.75" y="367.8467">PositioningCard
            </text>
            <line style="stroke:#181818;stroke-width:0.5;" x1="1188.5" x2="1565.5" y1="379" y2="379"/>
            <rect fill="none" height="6" style="stroke:#C82930;stroke-width:1.0;" width="6" x="1195.5" y="389.6484"/>
            <text fill="#000000" font-family="sans-serif" font-size="14" lengthAdjust="spacing" textLength="353"
                  x="1207.5" y="395.9951">colorsOfPattern: ImmutableMap&lt;Color, Integer&gt;
            </text>
            <line style="stroke:#181818;stroke-width:0.5;" x1="1188.5" x2="1565.5" y1="403.2969" y2="403.2969"/>
            <polygon fill="#FFFF44" points="1198.5,411.9453,1202.5,415.9453,1198.5,419.9453,1194.5,415.9453"
                     style="stroke:#B38D22;stroke-width:1.0;"/>
            <text fill="#000000" font-family="sans-serif" font-size="14" lengthAdjust="spacing" textLength="258"
                  x="1207.5" y="420.292">PositioningCard(PositioningBuilder):
            </text>
            <ellipse cx="1198.5" cy="433.2422" fill="#84BE84" rx="3" ry="3" style="stroke:#038048;stroke-width:1.0;"/>
            <text fill="#000000" font-family="sans-serif" font-size="14" lengthAdjust="spacing" textLength="142"
                  x="1207.5" y="436.5889">isFlipped(): boolean
            </text>
            <ellipse cx="1198.5" cy="449.5391" fill="#84BE84" rx="3" ry="3" style="stroke:#038048;stroke-width:1.0;"/>
            <text fill="#000000" font-family="sans-serif" font-size="14" lengthAdjust="spacing" textLength="147"
                  x="1207.5" y="452.8857">isRotated(): boolean
            </text>
        </g><!--class ColorCollectCard-->
        <g id="elem_ColorCollectCard">
            <rect codeLine="26" fill="#F1F1F1" height="80.5938" id="ColorCollectCard" rx="2.5" ry="2.5"
                  style="stroke:#181818;stroke-width:0.5;" width="369" x="46.5" y="536"/>
            <ellipse cx="165.75" cy="552" fill="#ADD1B2" rx="11" ry="11" style="stroke:#181818;stroke-width:1.0;"/>
            <path d="M168.0938,547.6719 C167.1563,547.2344 166.5625,547.0938 165.6875,547.0938 C163.0625,547.0938 161.0625,549.1719 161.0625,551.8906 L161.0625,553.0156 C161.0625,555.5938 163.1719,557.4844 166.0625,557.4844 C167.2813,557.4844 168.4375,557.1875 169.1875,556.6406 C169.7656,556.2344 170.0938,555.7813 170.0938,555.3906 C170.0938,554.9375 169.7031,554.5469 169.2344,554.5469 C169.0156,554.5469 168.8125,554.625 168.625,554.8125 C168.1719,555.2969 168.1719,555.2969 167.9844,555.3906 C167.5625,555.6563 166.875,555.7813 166.1094,555.7813 C164.0625,555.7813 162.7656,554.6875 162.7656,552.9844 L162.7656,551.8906 C162.7656,550.1094 164.0156,548.7969 165.75,548.7969 C166.3281,548.7969 166.9375,548.9531 167.4063,549.2031 C167.8906,549.4844 168.0625,549.7031 168.1563,550.1094 C168.2188,550.5156 168.25,550.6406 168.3906,550.7656 C168.5313,550.9063 168.7656,551.0156 168.9844,551.0156 C169.25,551.0156 169.5156,550.875 169.6875,550.6563 C169.7969,550.5 169.8281,550.3125 169.8281,549.8906 L169.8281,548.4688 C169.8281,548.0313 169.8125,547.9063 169.7188,547.75 C169.5625,547.4844 169.2813,547.3438 168.9844,547.3438 C168.6875,547.3438 168.4844,547.4375 168.2656,547.75 L168.0938,547.6719 Z "
                  fill="#000000"/>
            <text fill="#000000" font-family="sans-serif" font-size="14" lengthAdjust="spacing" textLength="122"
                  x="186.25" y="556.8467">ColorCollectCard
            </text>
            <line style="stroke:#181818;stroke-width:0.5;" x1="47.5" x2="414.5" y1="568" y2="568"/>
            <rect fill="none" height="6" style="stroke:#C82930;stroke-width:1.0;" width="6" x="54.5" y="578.6484"/>
            <text fill="#000000" font-family="sans-serif" font-size="14" lengthAdjust="spacing" textLength="343"
                  x="66.5" y="584.9951">colorToCollect: ImmutableMap&lt;Color, Integer&gt;
            </text>
            <line style="stroke:#181818;stroke-width:0.5;" x1="47.5" x2="414.5" y1="592.2969" y2="592.2969"/>
            <rect fill="#F24D5C" height="6" style="stroke:#C82930;stroke-width:1.0;" width="6" x="54.5" y="602.9453"/>
            <text fill="#000000" font-family="sans-serif" font-size="14" lengthAdjust="spacing" textLength="276"
                  x="66.5" y="609.292">ColorCollectCard(ColorCollectBuilder):
            </text>
        </g><!--class SymbolCollectCard-->
        <g id="elem_SymbolCollectCard">
            <rect codeLine="30" fill="#F1F1F1" height="80.5938" id="SymbolCollectCard" rx="2.5" ry="2.5"
                  style="stroke:#181818;stroke-width:0.5;" width="401" x="450.5" y="536"/>
            <ellipse cx="577.75" cy="552" fill="#ADD1B2" rx="11" ry="11" style="stroke:#181818;stroke-width:1.0;"/>
            <path d="M580.0938,547.6719 C579.1563,547.2344 578.5625,547.0938 577.6875,547.0938 C575.0625,547.0938 573.0625,549.1719 573.0625,551.8906 L573.0625,553.0156 C573.0625,555.5938 575.1719,557.4844 578.0625,557.4844 C579.2813,557.4844 580.4375,557.1875 581.1875,556.6406 C581.7656,556.2344 582.0938,555.7813 582.0938,555.3906 C582.0938,554.9375 581.7031,554.5469 581.2344,554.5469 C581.0156,554.5469 580.8125,554.625 580.625,554.8125 C580.1719,555.2969 580.1719,555.2969 579.9844,555.3906 C579.5625,555.6563 578.875,555.7813 578.1094,555.7813 C576.0625,555.7813 574.7656,554.6875 574.7656,552.9844 L574.7656,551.8906 C574.7656,550.1094 576.0156,548.7969 577.75,548.7969 C578.3281,548.7969 578.9375,548.9531 579.4063,549.2031 C579.8906,549.4844 580.0625,549.7031 580.1563,550.1094 C580.2188,550.5156 580.25,550.6406 580.3906,550.7656 C580.5313,550.9063 580.7656,551.0156 580.9844,551.0156 C581.25,551.0156 581.5156,550.875 581.6875,550.6563 C581.7969,550.5 581.8281,550.3125 581.8281,549.8906 L581.8281,548.4688 C581.8281,548.0313 581.8125,547.9063 581.7188,547.75 C581.5625,547.4844 581.2813,547.3438 580.9844,547.3438 C580.6875,547.3438 580.4844,547.4375 580.2656,547.75 L580.0938,547.6719 Z "
                  fill="#000000"/>
            <text fill="#000000" font-family="sans-serif" font-size="14" lengthAdjust="spacing" textLength="138"
                  x="598.25" y="556.8467">SymbolCollectCard
            </text>
            <line style="stroke:#181818;stroke-width:0.5;" x1="451.5" x2="850.5" y1="568" y2="568"/>
            <rect fill="none" height="6" style="stroke:#C82930;stroke-width:1.0;" width="6" x="458.5" y="578.6484"/>
            <text fill="#000000" font-family="sans-serif" font-size="14" lengthAdjust="spacing" textLength="375"
                  x="470.5" y="584.9951">symbolToCollect: ImmutableMap&lt;Symbol, Integer&gt;
            </text>
            <line style="stroke:#181818;stroke-width:0.5;" x1="451.5" x2="850.5" y1="592.2969" y2="592.2969"/>
            <rect fill="#F24D5C" height="6" style="stroke:#C82930;stroke-width:1.0;" width="6" x="458.5" y="602.9453"/>
            <text fill="#000000" font-family="sans-serif" font-size="14" lengthAdjust="spacing" textLength="308"
                  x="470.5" y="609.292">SymbolCollectCard(SymbolCollectBuilder):
            </text>
        </g><!--class TripletCard-->
        <g id="elem_TripletCard">
            <rect codeLine="35" fill="#F1F1F1" height="80.5938" id="TripletCard" rx="2.5" ry="2.5"
                  style="stroke:#181818;stroke-width:0.5;" width="222" x="1271" y="536"/>
            <ellipse cx="1336.75" cy="552" fill="#ADD1B2" rx="11" ry="11" style="stroke:#181818;stroke-width:1.0;"/>
            <path d="M1339.0938,547.6719 C1338.1563,547.2344 1337.5625,547.0938 1336.6875,547.0938 C1334.0625,547.0938 1332.0625,549.1719 1332.0625,551.8906 L1332.0625,553.0156 C1332.0625,555.5938 1334.1719,557.4844 1337.0625,557.4844 C1338.2813,557.4844 1339.4375,557.1875 1340.1875,556.6406 C1340.7656,556.2344 1341.0938,555.7813 1341.0938,555.3906 C1341.0938,554.9375 1340.7031,554.5469 1340.2344,554.5469 C1340.0156,554.5469 1339.8125,554.625 1339.625,554.8125 C1339.1719,555.2969 1339.1719,555.2969 1338.9844,555.3906 C1338.5625,555.6563 1337.875,555.7813 1337.1094,555.7813 C1335.0625,555.7813 1333.7656,554.6875 1333.7656,552.9844 L1333.7656,551.8906 C1333.7656,550.1094 1335.0156,548.7969 1336.75,548.7969 C1337.3281,548.7969 1337.9375,548.9531 1338.4063,549.2031 C1338.8906,549.4844 1339.0625,549.7031 1339.1563,550.1094 C1339.2188,550.5156 1339.25,550.6406 1339.3906,550.7656 C1339.5313,550.9063 1339.7656,551.0156 1339.9844,551.0156 C1340.25,551.0156 1340.5156,550.875 1340.6875,550.6563 C1340.7969,550.5 1340.8281,550.3125 1340.8281,549.8906 L1340.8281,548.4688 C1340.8281,548.0313 1340.8125,547.9063 1340.7188,547.75 C1340.5625,547.4844 1340.2813,547.3438 1339.9844,547.3438 C1339.6875,547.3438 1339.4844,547.4375 1339.2656,547.75 L1339.0938,547.6719 Z "
                  fill="#000000"/>
            <text fill="#000000" font-family="sans-serif" font-size="14" lengthAdjust="spacing" textLength="82"
                  x="1357.25" y="556.8467">TripletCard
            </text>
            <line style="stroke:#181818;stroke-width:0.5;" x1="1272" x2="1492" y1="568" y2="568"/>
            <rect fill="none" height="6" style="stroke:#C82930;stroke-width:1.0;" width="6" x="1279" y="578.6484"/>
            <text fill="#000000" font-family="sans-serif" font-size="14" lengthAdjust="spacing" textLength="148"
                  x="1291" y="584.9951">flippedFlag: boolean
            </text>
            <line style="stroke:#181818;stroke-width:0.5;" x1="1272" x2="1492" y1="592.2969" y2="592.2969"/>
            <rect fill="#F24D5C" height="6" style="stroke:#C82930;stroke-width:1.0;" width="6" x="1279" y="602.9453"/>
            <text fill="#000000" font-family="sans-serif" font-size="14" lengthAdjust="spacing" textLength="196"
                  x="1291" y="609.292">TripletCard(TripletBuilder):
            </text>
        </g><!--class LCard-->
        <g id="elem_LCard">
            <rect codeLine="39" fill="#F1F1F1" height="96.8906" id="LCard" rx="2.5" ry="2.5"
                  style="stroke:#181818;stroke-width:0.5;" width="192" x="1528" y="528"/>
            <ellipse cx="1599.25" cy="544" fill="#ADD1B2" rx="11" ry="11" style="stroke:#181818;stroke-width:1.0;"/>
            <path d="M1601.5938,539.6719 C1600.6563,539.2344 1600.0625,539.0938 1599.1875,539.0938 C1596.5625,539.0938 1594.5625,541.1719 1594.5625,543.8906 L1594.5625,545.0156 C1594.5625,547.5938 1596.6719,549.4844 1599.5625,549.4844 C1600.7813,549.4844 1601.9375,549.1875 1602.6875,548.6406 C1603.2656,548.2344 1603.5938,547.7813 1603.5938,547.3906 C1603.5938,546.9375 1603.2031,546.5469 1602.7344,546.5469 C1602.5156,546.5469 1602.3125,546.625 1602.125,546.8125 C1601.6719,547.2969 1601.6719,547.2969 1601.4844,547.3906 C1601.0625,547.6563 1600.375,547.7813 1599.6094,547.7813 C1597.5625,547.7813 1596.2656,546.6875 1596.2656,544.9844 L1596.2656,543.8906 C1596.2656,542.1094 1597.5156,540.7969 1599.25,540.7969 C1599.8281,540.7969 1600.4375,540.9531 1600.9063,541.2031 C1601.3906,541.4844 1601.5625,541.7031 1601.6563,542.1094 C1601.7188,542.5156 1601.75,542.6406 1601.8906,542.7656 C1602.0313,542.9063 1602.2656,543.0156 1602.4844,543.0156 C1602.75,543.0156 1603.0156,542.875 1603.1875,542.6563 C1603.2969,542.5 1603.3281,542.3125 1603.3281,541.8906 L1603.3281,540.4688 C1603.3281,540.0313 1603.3125,539.9063 1603.2188,539.75 C1603.0625,539.4844 1602.7813,539.3438 1602.4844,539.3438 C1602.1875,539.3438 1601.9844,539.4375 1601.7656,539.75 L1601.5938,539.6719 Z "
                  fill="#000000"/>
            <text fill="#000000" font-family="sans-serif" font-size="14" lengthAdjust="spacing" textLength="41"
                  x="1619.75" y="548.8467">LCard
            </text>
            <line style="stroke:#181818;stroke-width:0.5;" x1="1529" x2="1719" y1="560" y2="560"/>
            <rect fill="none" height="6" style="stroke:#C82930;stroke-width:1.0;" width="6" x="1536" y="570.6484"/>
            <text fill="#000000" font-family="sans-serif" font-size="14" lengthAdjust="spacing" textLength="161"
                  x="1548" y="576.9951">isFlippedFlag: boolean
            </text>
            <rect fill="none" height="6" style="stroke:#C82930;stroke-width:1.0;" width="6" x="1536" y="586.9453"/>
            <text fill="#000000" font-family="sans-serif" font-size="14" lengthAdjust="spacing" textLength="166"
                  x="1548" y="593.292">isRotatedFlag: boolean
            </text>
            <line style="stroke:#181818;stroke-width:0.5;" x1="1529" x2="1719" y1="600.5938" y2="600.5938"/>
            <rect fill="#F24D5C" height="6" style="stroke:#C82930;stroke-width:1.0;" width="6" x="1536" y="611.2422"/>
            <text fill="#000000" font-family="sans-serif" font-size="14" lengthAdjust="spacing" textLength="114"
                  x="1548" y="617.5889">LCard(LBuilder):
            </text>
        </g><!--class ObjectiveBuilder-->
        <g id="elem_ObjectiveBuilder">
            <rect codeLine="45" fill="#F1F1F1" height="129.4844" id="ObjectiveBuilder" rx="2.5" ry="2.5"
                  style="stroke:#181818;stroke-width:0.5;" width="301" x="842.5" y="339"/>
            <ellipse cx="857.5" cy="355" fill="#A9DCDF" rx="11" ry="11" style="stroke:#181818;stroke-width:1.0;"/>
            <path d="M859.5781,356.8125 L859.9688,357.7969 L859.5781,357.7969 C859.125,357.7969 859.0156,357.8125 858.8594,357.9219 C858.6094,358.0781 858.4531,358.3594 858.4531,358.6563 C858.4531,358.9219 858.5938,359.1719 858.8125,359.3281 C858.9531,359.4531 859.1563,359.5 859.5781,359.5 L861.9375,359.5 C862.2969,359.5 862.5156,359.4688 862.6563,359.375 C862.9063,359.2344 863.0625,358.9375 863.0625,358.6563 C863.0625,358.375 862.9219,358.125 862.7031,357.9688 C862.5313,357.8281 862.375,357.7969 861.9063,357.7969 L858.5156,349.5938 L854.8438,349.5938 C854.3906,349.5938 854.2656,349.6094 854.1094,349.7031 C853.8594,349.875 853.7031,350.1563 853.7031,350.4375 C853.7031,350.7188 853.8438,350.9688 854.0625,351.1406 C854.2344,351.25 854.4063,351.2813 854.8438,351.2813 L855.9219,351.2813 L853.2813,357.7969 C852.8594,357.7969 852.7031,357.8125 852.5469,357.9219 C852.2969,358.0781 852.1406,358.3594 852.1406,358.6563 C852.1406,359.2188 852.5156,359.5 853.2656,359.5 L855.5313,359.5 C855.8906,359.5 856.1094,359.4688 856.2344,359.375 C856.5,359.2344 856.6406,358.9375 856.6406,358.6563 C856.6406,358.375 856.5156,358.125 856.2969,357.9531 C856.125,357.8281 855.9844,357.7969 855.5313,357.7969 L855.1406,357.7969 L855.5313,356.8125 L859.5781,356.8125 Z M858.875,355.1094 L856.2031,355.1094 L857.5469,351.8438 L858.875,355.1094 Z "
                  fill="#000000"/>
            <text fill="#000000" font-family="sans-serif" font-size="14" font-style="italic" lengthAdjust="spacing"
                  textLength="118" x="871.5" y="359.8467">ObjectiveBuilder
            </text>
            <rect fill="#F8F8FF" height="15.9688" style="stroke:#181818;stroke-width:1.0;stroke-dasharray:2.0,2.0;"
                  width="149" x="997.5" y="336"/>
            <text fill="#000000" font-family="sans-serif" font-size="12" font-style="italic" lengthAdjust="spacing"
                  textLength="147" x="998.5" y="348.1387">T extends ObjectiveCard
            </text>
            <line style="stroke:#181818;stroke-width:0.5;" x1="843.5" x2="1142.5" y1="371" y2="371"/>
            <rect fill="none" height="6" style="stroke:#C82930;stroke-width:1.0;" width="6" x="850.5" y="381.6484"/>
            <text fill="#000000" font-family="sans-serif" font-size="14" lengthAdjust="spacing" textLength="42"
                  x="862.5" y="387.9951">id: int
            </text>
            <rect fill="none" height="6" style="stroke:#C82930;stroke-width:1.0;" width="6" x="850.5" y="397.9453"/>
            <text fill="#000000" font-family="sans-serif" font-size="14" lengthAdjust="spacing" textLength="75"
                  x="862.5" y="404.292">points: int
            </text>
            <line style="stroke:#181818;stroke-width:0.5;" x1="843.5" x2="1142.5" y1="411.5938" y2="411.5938"/>
            <polygon fill="#FFFF44" points="853.5,420.2422,857.5,424.2422,853.5,428.2422,849.5,424.2422"
                     style="stroke:#B38D22;stroke-width:1.0;"/>
            <text fill="#000000" font-family="sans-serif" font-size="14" lengthAdjust="spacing" textLength="171"
                  x="862.5" y="428.5889">ObjectiveBuilder(id, int)
            </text>
            <text fill="#000000" font-family="sans-serif" font-size="14" lengthAdjust="spacing" textLength="4" x="862.5"
                  y="444.8857">&#160;
            </text>
            <ellipse cx="853.5" cy="457.8359" fill="#84BE84" rx="3" ry="3" style="stroke:#038048;stroke-width:1.0;"/>
            <text fill="#000000" font-family="sans-serif" font-size="14" font-style="italic" lengthAdjust="spacing"
                  textLength="87" x="862.5" y="461.1826">build(): &lt;T&gt;
            </text>
        </g><!--class CollectingBuilder-->
        <g id="elem_CollectingBuilder">
            <rect codeLine="53" fill="#F1F1F1" height="48" id="CollectingBuilder" rx="2.5" ry="2.5"
                  style="stroke:#181818;stroke-width:0.5;" width="154" x="887" y="552.5"/>
            <ellipse cx="902" cy="568.5" fill="#A9DCDF" rx="11" ry="11" style="stroke:#181818;stroke-width:1.0;"/>
            <path d="M904.0781,570.3125 L904.4688,571.2969 L904.0781,571.2969 C903.625,571.2969 903.5156,571.3125 903.3594,571.4219 C903.1094,571.5781 902.9531,571.8594 902.9531,572.1563 C902.9531,572.4219 903.0938,572.6719 903.3125,572.8281 C903.4531,572.9531 903.6563,573 904.0781,573 L906.4375,573 C906.7969,573 907.0156,572.9688 907.1563,572.875 C907.4063,572.7344 907.5625,572.4375 907.5625,572.1563 C907.5625,571.875 907.4219,571.625 907.2031,571.4688 C907.0313,571.3281 906.875,571.2969 906.4063,571.2969 L903.0156,563.0938 L899.3438,563.0938 C898.8906,563.0938 898.7656,563.1094 898.6094,563.2031 C898.3594,563.375 898.2031,563.6563 898.2031,563.9375 C898.2031,564.2188 898.3438,564.4688 898.5625,564.6406 C898.7344,564.75 898.9063,564.7813 899.3438,564.7813 L900.4219,564.7813 L897.7813,571.2969 C897.3594,571.2969 897.2031,571.3125 897.0469,571.4219 C896.7969,571.5781 896.6406,571.8594 896.6406,572.1563 C896.6406,572.7188 897.0156,573 897.7656,573 L900.0313,573 C900.3906,573 900.6094,572.9688 900.7344,572.875 C901,572.7344 901.1406,572.4375 901.1406,572.1563 C901.1406,571.875 901.0156,571.625 900.7969,571.4531 C900.625,571.3281 900.4844,571.2969 900.0313,571.2969 L899.6406,571.2969 L900.0313,570.3125 L904.0781,570.3125 Z M903.375,568.6094 L900.7031,568.6094 L902.0469,565.3438 L903.375,568.6094 Z "
                  fill="#000000"/>
            <text fill="#000000" font-family="sans-serif" font-size="14" font-style="italic" lengthAdjust="spacing"
                  textLength="122" x="916" y="573.3467">CollectingBuilder
            </text>
            <line style="stroke:#181818;stroke-width:0.5;" x1="888" x2="1040" y1="584.5" y2="584.5"/>
            <line style="stroke:#181818;stroke-width:0.5;" x1="888" x2="1040" y1="592.5" y2="592.5"/>
        </g><!--class PositioningBuilder-->
        <g id="elem_PositioningBuilder">
            <rect codeLine="57" fill="#F1F1F1" height="48" id="PositioningBuilder" rx="2.5" ry="2.5"
                  style="stroke:#181818;stroke-width:0.5;" width="160" x="1076" y="552.5"/>
            <ellipse cx="1091" cy="568.5" fill="#A9DCDF" rx="11" ry="11" style="stroke:#181818;stroke-width:1.0;"/>
            <path d="M1093.0781,570.3125 L1093.4688,571.2969 L1093.0781,571.2969 C1092.625,571.2969 1092.5156,571.3125 1092.3594,571.4219 C1092.1094,571.5781 1091.9531,571.8594 1091.9531,572.1563 C1091.9531,572.4219 1092.0938,572.6719 1092.3125,572.8281 C1092.4531,572.9531 1092.6563,573 1093.0781,573 L1095.4375,573 C1095.7969,573 1096.0156,572.9688 1096.1563,572.875 C1096.4063,572.7344 1096.5625,572.4375 1096.5625,572.1563 C1096.5625,571.875 1096.4219,571.625 1096.2031,571.4688 C1096.0313,571.3281 1095.875,571.2969 1095.4063,571.2969 L1092.0156,563.0938 L1088.3438,563.0938 C1087.8906,563.0938 1087.7656,563.1094 1087.6094,563.2031 C1087.3594,563.375 1087.2031,563.6563 1087.2031,563.9375 C1087.2031,564.2188 1087.3438,564.4688 1087.5625,564.6406 C1087.7344,564.75 1087.9063,564.7813 1088.3438,564.7813 L1089.4219,564.7813 L1086.7813,571.2969 C1086.3594,571.2969 1086.2031,571.3125 1086.0469,571.4219 C1085.7969,571.5781 1085.6406,571.8594 1085.6406,572.1563 C1085.6406,572.7188 1086.0156,573 1086.7656,573 L1089.0313,573 C1089.3906,573 1089.6094,572.9688 1089.7344,572.875 C1090,572.7344 1090.1406,572.4375 1090.1406,572.1563 C1090.1406,571.875 1090.0156,571.625 1089.7969,571.4531 C1089.625,571.3281 1089.4844,571.2969 1089.0313,571.2969 L1088.6406,571.2969 L1089.0313,570.3125 L1093.0781,570.3125 Z M1092.375,568.6094 L1089.7031,568.6094 L1091.0469,565.3438 L1092.375,568.6094 Z "
                  fill="#000000"/>
            <text fill="#000000" font-family="sans-serif" font-size="14" font-style="italic" lengthAdjust="spacing"
                  textLength="128" x="1105" y="573.3467">PositioningBuilder
            </text>
            <line style="stroke:#181818;stroke-width:0.5;" x1="1077" x2="1235" y1="584.5" y2="584.5"/>
            <line style="stroke:#181818;stroke-width:0.5;" x1="1077" x2="1235" y1="592.5" y2="592.5"/>
        </g><!--class ColorCollectBuilder-->
        <g id="elem_ColorCollectBuilder">
            <rect codeLine="61" fill="#F1F1F1" height="96.8906" id="ColorCollectBuilder" rx="2.5" ry="2.5"
                  style="stroke:#181818;stroke-width:0.5;" width="331" x="106.5" y="734"/>
            <ellipse cx="198.25" cy="750" fill="#ADD1B2" rx="11" ry="11" style="stroke:#181818;stroke-width:1.0;"/>
            <path d="M200.5938,745.6719 C199.6563,745.2344 199.0625,745.0938 198.1875,745.0938 C195.5625,745.0938 193.5625,747.1719 193.5625,749.8906 L193.5625,751.0156 C193.5625,753.5938 195.6719,755.4844 198.5625,755.4844 C199.7813,755.4844 200.9375,755.1875 201.6875,754.6406 C202.2656,754.2344 202.5938,753.7813 202.5938,753.3906 C202.5938,752.9375 202.2031,752.5469 201.7344,752.5469 C201.5156,752.5469 201.3125,752.625 201.125,752.8125 C200.6719,753.2969 200.6719,753.2969 200.4844,753.3906 C200.0625,753.6563 199.375,753.7813 198.6094,753.7813 C196.5625,753.7813 195.2656,752.6875 195.2656,750.9844 L195.2656,749.8906 C195.2656,748.1094 196.5156,746.7969 198.25,746.7969 C198.8281,746.7969 199.4375,746.9531 199.9063,747.2031 C200.3906,747.4844 200.5625,747.7031 200.6563,748.1094 C200.7188,748.5156 200.75,748.6406 200.8906,748.7656 C201.0313,748.9063 201.2656,749.0156 201.4844,749.0156 C201.75,749.0156 202.0156,748.875 202.1875,748.6563 C202.2969,748.5 202.3281,748.3125 202.3281,747.8906 L202.3281,746.4688 C202.3281,746.0313 202.3125,745.9063 202.2188,745.75 C202.0625,745.4844 201.7813,745.3438 201.4844,745.3438 C201.1875,745.3438 200.9844,745.4375 200.7656,745.75 L200.5938,745.6719 Z "
                  fill="#000000"/>
            <text fill="#000000" font-family="sans-serif" font-size="14" lengthAdjust="spacing" textLength="139"
                  x="218.75" y="754.8467">ColorCollectBuilder
            </text>
            <line style="stroke:#181818;stroke-width:0.5;" x1="107.5" x2="436.5" y1="766" y2="766"/>
            <rect fill="none" height="6" style="stroke:#C82930;stroke-width:1.0;" width="6" x="114.5" y="776.6484"/>
            <text fill="#000000" font-family="sans-serif" font-size="14" lengthAdjust="spacing" textLength="305"
                  x="126.5" y="782.9951">colorToCollect: EnumMap&lt;Color, Integer&gt;
            </text>
            <line style="stroke:#181818;stroke-width:0.5;" x1="107.5" x2="436.5" y1="790.2969" y2="790.2969"/>
            <ellipse cx="117.5" cy="803.9453" fill="#84BE84" rx="3" ry="3" style="stroke:#038048;stroke-width:1.0;"/>
            <text fill="#000000" font-family="sans-serif" font-size="14" lengthAdjust="spacing" textLength="286"
                  x="126.5" y="807.292">hasColor(Color, int): ColorCollectBuilder
            </text>
            <ellipse cx="117.5" cy="820.2422" fill="#84BE84" rx="3" ry="3" style="stroke:#038048;stroke-width:1.0;"/>
            <text fill="#000000" font-family="sans-serif" font-size="14" lengthAdjust="spacing" textLength="258"
                  x="126.5" y="823.5889">hasColor(Color): ColorCollectBuilder
            </text>
        </g><!--class SymbolCollectBuilder-->
        <g id="elem_SymbolCollectBuilder">
            <rect codeLine="67" fill="#F1F1F1" height="96.8906" id="SymbolCollectBuilder" rx="2.5" ry="2.5"
                  style="stroke:#181818;stroke-width:0.5;" width="363" x="514.5" y="734"/>
            <ellipse cx="614.25" cy="750" fill="#ADD1B2" rx="11" ry="11" style="stroke:#181818;stroke-width:1.0;"/>
            <path d="M616.5938,745.6719 C615.6563,745.2344 615.0625,745.0938 614.1875,745.0938 C611.5625,745.0938 609.5625,747.1719 609.5625,749.8906 L609.5625,751.0156 C609.5625,753.5938 611.6719,755.4844 614.5625,755.4844 C615.7813,755.4844 616.9375,755.1875 617.6875,754.6406 C618.2656,754.2344 618.5938,753.7813 618.5938,753.3906 C618.5938,752.9375 618.2031,752.5469 617.7344,752.5469 C617.5156,752.5469 617.3125,752.625 617.125,752.8125 C616.6719,753.2969 616.6719,753.2969 616.4844,753.3906 C616.0625,753.6563 615.375,753.7813 614.6094,753.7813 C612.5625,753.7813 611.2656,752.6875 611.2656,750.9844 L611.2656,749.8906 C611.2656,748.1094 612.5156,746.7969 614.25,746.7969 C614.8281,746.7969 615.4375,746.9531 615.9063,747.2031 C616.3906,747.4844 616.5625,747.7031 616.6563,748.1094 C616.7188,748.5156 616.75,748.6406 616.8906,748.7656 C617.0313,748.9063 617.2656,749.0156 617.4844,749.0156 C617.75,749.0156 618.0156,748.875 618.1875,748.6563 C618.2969,748.5 618.3281,748.3125 618.3281,747.8906 L618.3281,746.4688 C618.3281,746.0313 618.3125,745.9063 618.2188,745.75 C618.0625,745.4844 617.7813,745.3438 617.4844,745.3438 C617.1875,745.3438 616.9844,745.4375 616.7656,745.75 L616.5938,745.6719 Z "
                  fill="#000000"/>
            <text fill="#000000" font-family="sans-serif" font-size="14" lengthAdjust="spacing" textLength="155"
                  x="634.75" y="754.8467">SymbolCollectBuilder
            </text>
            <line style="stroke:#181818;stroke-width:0.5;" x1="515.5" x2="876.5" y1="766" y2="766"/>
            <rect fill="none" height="6" style="stroke:#C82930;stroke-width:1.0;" width="6" x="522.5" y="776.6484"/>
            <text fill="#000000" font-family="sans-serif" font-size="14" lengthAdjust="spacing" textLength="337"
                  x="534.5" y="782.9951">symbolToCollect: EnumMap&lt;Symbol, Integer&gt;
            </text>
            <line style="stroke:#181818;stroke-width:0.5;" x1="515.5" x2="876.5" y1="790.2969" y2="790.2969"/>
            <ellipse cx="525.5" cy="803.9453" fill="#84BE84" rx="3" ry="3" style="stroke:#038048;stroke-width:1.0;"/>
            <text fill="#000000" font-family="sans-serif" font-size="14" lengthAdjust="spacing" textLength="334"
                  x="534.5" y="807.292">hasSymbol(Symbol, int): SymbolCollectBuilder
            </text>
            <ellipse cx="525.5" cy="820.2422" fill="#84BE84" rx="3" ry="3" style="stroke:#038048;stroke-width:1.0;"/>
            <text fill="#000000" font-family="sans-serif" font-size="14" lengthAdjust="spacing" textLength="306"
                  x="534.5" y="823.5889">hasSymbol(Symbol): SymbolCollectBuilder
            </text>
        </g><!--class TripletBuilder-->
        <g id="elem_TripletBuilder">
            <rect codeLine="74" fill="#F1F1F1" height="129.4844" id="TripletBuilder" rx="2.5" ry="2.5"
                  style="stroke:#181818;stroke-width:0.5;" width="363" x="958.5" y="718"/>
            <ellipse cx="1086.25" cy="734" fill="#ADD1B2" rx="11" ry="11" style="stroke:#181818;stroke-width:1.0;"/>
            <path d="M1088.5938,729.6719 C1087.6563,729.2344 1087.0625,729.0938 1086.1875,729.0938 C1083.5625,729.0938 1081.5625,731.1719 1081.5625,733.8906 L1081.5625,735.0156 C1081.5625,737.5938 1083.6719,739.4844 1086.5625,739.4844 C1087.7813,739.4844 1088.9375,739.1875 1089.6875,738.6406 C1090.2656,738.2344 1090.5938,737.7813 1090.5938,737.3906 C1090.5938,736.9375 1090.2031,736.5469 1089.7344,736.5469 C1089.5156,736.5469 1089.3125,736.625 1089.125,736.8125 C1088.6719,737.2969 1088.6719,737.2969 1088.4844,737.3906 C1088.0625,737.6563 1087.375,737.7813 1086.6094,737.7813 C1084.5625,737.7813 1083.2656,736.6875 1083.2656,734.9844 L1083.2656,733.8906 C1083.2656,732.1094 1084.5156,730.7969 1086.25,730.7969 C1086.8281,730.7969 1087.4375,730.9531 1087.9063,731.2031 C1088.3906,731.4844 1088.5625,731.7031 1088.6563,732.1094 C1088.7188,732.5156 1088.75,732.6406 1088.8906,732.7656 C1089.0313,732.9063 1089.2656,733.0156 1089.4844,733.0156 C1089.75,733.0156 1090.0156,732.875 1090.1875,732.6563 C1090.2969,732.5 1090.3281,732.3125 1090.3281,731.8906 L1090.3281,730.4688 C1090.3281,730.0313 1090.3125,729.9063 1090.2188,729.75 C1090.0625,729.4844 1089.7813,729.3438 1089.4844,729.3438 C1089.1875,729.3438 1088.9844,729.4375 1088.7656,729.75 L1088.5938,729.6719 Z "
                  fill="#000000"/>
            <text fill="#000000" font-family="sans-serif" font-size="14" lengthAdjust="spacing" textLength="99"
                  x="1106.75" y="738.8467">TripletBuilder
            </text>
            <line style="stroke:#181818;stroke-width:0.5;" x1="959.5" x2="1320.5" y1="750" y2="750"/>
            <polygon fill="none" points="969.5,758.6484,973.5,762.6484,969.5,766.6484,965.5,762.6484"
                     style="stroke:#B38D22;stroke-width:1.0;"/>
            <text fill="#000000" font-family="sans-serif" font-size="14" lengthAdjust="spacing" textLength="337"
                  x="978.5" y="766.9951">colorRequirements: EnumMap&lt;Color, Integer&gt;
            </text>
            <rect fill="none" height="6" style="stroke:#C82930;stroke-width:1.0;" width="6" x="966.5" y="776.9453"/>
            <text fill="#000000" font-family="sans-serif" font-size="14" lengthAdjust="spacing" textLength="148"
                  x="978.5" y="783.292">flippedFlag: boolean
            </text>
            <rect fill="none" height="6" style="stroke:#C82930;stroke-width:1.0;" width="6" x="966.5" y="793.2422"/>
            <text fill="#000000" font-family="sans-serif" font-size="14" lengthAdjust="spacing" textLength="155"
                  x="978.5" y="799.5889">colorOfPattern: Color
            </text>
            <line style="stroke:#181818;stroke-width:0.5;" x1="959.5" x2="1320.5" y1="806.8906" y2="806.8906"/>
            <ellipse cx="969.5" cy="820.5391" fill="#84BE84" rx="3" ry="3" style="stroke:#038048;stroke-width:1.0;"/>
            <text fill="#000000" font-family="sans-serif" font-size="14" lengthAdjust="spacing" textLength="241"
                  x="978.5" y="823.8857">isFlipped(boolean): TripletBuilder
            </text>
            <ellipse cx="969.5" cy="836.8359" fill="#84BE84" rx="3" ry="3" style="stroke:#038048;stroke-width:1.0;"/>
            <text fill="#000000" font-family="sans-serif" font-size="14" lengthAdjust="spacing" textLength="218"
                  x="978.5" y="840.1826">hasColor(Color): TripletBuilder
            </text>
        </g><!--class LBuilder-->
        <g id="elem_LBuilder">
            <rect codeLine="83" fill="#F1F1F1" height="194.6719" id="LBuilder" rx="2.5" ry="2.5"
                  style="stroke:#181818;stroke-width:0.5;" width="363" x="1356.5" y="685"/>
            <ellipse cx="1504.75" cy="701" fill="#ADD1B2" rx="11" ry="11" style="stroke:#181818;stroke-width:1.0;"/>
            <path d="M1507.0938,696.6719 C1506.1563,696.2344 1505.5625,696.0938 1504.6875,696.0938 C1502.0625,696.0938 1500.0625,698.1719 1500.0625,700.8906 L1500.0625,702.0156 C1500.0625,704.5938 1502.1719,706.4844 1505.0625,706.4844 C1506.2813,706.4844 1507.4375,706.1875 1508.1875,705.6406 C1508.7656,705.2344 1509.0938,704.7813 1509.0938,704.3906 C1509.0938,703.9375 1508.7031,703.5469 1508.2344,703.5469 C1508.0156,703.5469 1507.8125,703.625 1507.625,703.8125 C1507.1719,704.2969 1507.1719,704.2969 1506.9844,704.3906 C1506.5625,704.6563 1505.875,704.7813 1505.1094,704.7813 C1503.0625,704.7813 1501.7656,703.6875 1501.7656,701.9844 L1501.7656,700.8906 C1501.7656,699.1094 1503.0156,697.7969 1504.75,697.7969 C1505.3281,697.7969 1505.9375,697.9531 1506.4063,698.2031 C1506.8906,698.4844 1507.0625,698.7031 1507.1563,699.1094 C1507.2188,699.5156 1507.25,699.6406 1507.3906,699.7656 C1507.5313,699.9063 1507.7656,700.0156 1507.9844,700.0156 C1508.25,700.0156 1508.5156,699.875 1508.6875,699.6563 C1508.7969,699.5 1508.8281,699.3125 1508.8281,698.8906 L1508.8281,697.4688 C1508.8281,697.0313 1508.8125,696.9063 1508.7188,696.75 C1508.5625,696.4844 1508.2813,696.3438 1507.9844,696.3438 C1507.6875,696.3438 1507.4844,696.4375 1507.2656,696.75 L1507.0938,696.6719 Z "
                  fill="#000000"/>
            <text fill="#000000" font-family="sans-serif" font-size="14" lengthAdjust="spacing" textLength="58"
                  x="1525.25" y="705.8467">LBuilder
            </text>
            <line style="stroke:#181818;stroke-width:0.5;" x1="1357.5" x2="1718.5" y1="717" y2="717"/>
            <rect fill="none" height="6" style="stroke:#C82930;stroke-width:1.0;" width="6" x="1364.5" y="727.6484"/>
            <text fill="#000000" font-family="sans-serif" font-size="14" lengthAdjust="spacing" textLength="148"
                  x="1376.5" y="733.9951">flippedFlag: boolean
            </text>
            <rect fill="none" height="6" style="stroke:#C82930;stroke-width:1.0;" width="6" x="1364.5" y="743.9453"/>
            <text fill="#000000" font-family="sans-serif" font-size="14" lengthAdjust="spacing" textLength="151"
                  x="1376.5" y="750.292">rotatedFlag: boolean
            </text>
            <rect fill="none" height="6" style="stroke:#C82930;stroke-width:1.0;" width="6" x="1364.5" y="760.2422"/>
            <text fill="#000000" font-family="sans-serif" font-size="14" lengthAdjust="spacing" textLength="141"
                  x="1376.5" y="766.5889">primaryColor: Color
            </text>
            <rect fill="none" height="6" style="stroke:#C82930;stroke-width:1.0;" width="6" x="1364.5" y="776.5391"/>
            <text fill="#000000" font-family="sans-serif" font-size="14" lengthAdjust="spacing" textLength="158"
                  x="1376.5" y="782.8857">secondaryColor: Color
            </text>
            <rect fill="none" height="6" style="stroke:#C82930;stroke-width:1.0;" width="6" x="1364.5" y="792.8359"/>
            <text fill="#000000" font-family="sans-serif" font-size="14" lengthAdjust="spacing" textLength="337"
                  x="1376.5" y="799.1826">colorRequirements: EnumMap&lt;Color, Integer&gt;
            </text>
            <line style="stroke:#181818;stroke-width:0.5;" x1="1357.5" x2="1718.5" y1="806.4844" y2="806.4844"/>
            <ellipse cx="1367.5" cy="820.1328" fill="#84BE84" rx="3" ry="3" style="stroke:#038048;stroke-width:1.0;"/>
            <text fill="#000000" font-family="sans-serif" font-size="14" lengthAdjust="spacing" textLength="200"
                  x="1376.5" y="823.4795">isFlipped(boolean): LBuilder
            </text>
            <ellipse cx="1367.5" cy="836.4297" fill="#84BE84" rx="3" ry="3" style="stroke:#038048;stroke-width:1.0;"/>
            <text fill="#000000" font-family="sans-serif" font-size="14" lengthAdjust="spacing" textLength="205"
                  x="1376.5" y="839.7764">isRotated(boolean): LBuilder
            </text>
            <ellipse cx="1367.5" cy="852.7266" fill="#84BE84" rx="3" ry="3" style="stroke:#038048;stroke-width:1.0;"/>
            <text fill="#000000" font-family="sans-serif" font-size="14" lengthAdjust="spacing" textLength="232"
                  x="1376.5" y="856.0732">hasPrimaryColor(Color): LBuilder
            </text>
            <ellipse cx="1367.5" cy="869.0234" fill="#84BE84" rx="3" ry="3" style="stroke:#038048;stroke-width:1.0;"/>
            <text fill="#000000" font-family="sans-serif" font-size="14" lengthAdjust="spacing" textLength="252"
                  x="1376.5" y="872.3701">hasSecondaryColor(Color): LBuilder
            </text>
        </g><!--reverse link ObjectiveCard to CollectingCard-->
        <g id="link_ObjectiveCard_CollectingCard">
            <path d="M829.1702,289.1343 C778.1622,322.3353 739.742,347.342 702.688,371.461 " fill="none"
                  id="ObjectiveCard-backto-CollectingCard" style="stroke:#181818;stroke-width:1.0;"/>
            <polygon fill="none" points="844.256,279.315,825.8971,284.1057,832.4433,294.1629,844.256,279.315"
                     style="stroke:#181818;stroke-width:1.0;"/>
        </g><!--reverse link ObjectiveCard to PositioningCard-->
        <g id="link_ObjectiveCard_PositioningCard">
            <path d="M1177.3278,288.1039 C1217.7978,311.2929 1244.06,326.335 1280,346.926 " fill="none"
                  id="ObjectiveCard-backto-PositioningCard" style="stroke:#181818;stroke-width:1.0;"/>
            <polygon fill="none" points="1161.71,279.155,1174.3449,293.3099,1180.3108,282.898,1161.71,279.155"
                     style="stroke:#181818;stroke-width:1.0;"/>
        </g><!--reverse link CollectingCard to ColorCollectCard-->
        <g id="link_CollectingCard_ColorCollectCard">
            <path d="M561.0315,442.3974 C491.1645,470.5744 404.659,505.463 329.014,535.971 " fill="none"
                  id="CollectingCard-backto-ColorCollectCard" style="stroke:#181818;stroke-width:1.0;"/>
            <polygon fill="none" points="577.725,435.665,558.7873,436.8329,563.2756,447.9619,577.725,435.665"
                     style="stroke:#181818;stroke-width:1.0;"/>
        </g><!--reverse link CollectingCard to SymbolCollectCard-->
        <g id="link_CollectingCard_SymbolCollectCard">
            <path d="M653.8454,453.8591 C653.1874,482.0131 652.638,505.477 651.926,535.907 " fill="none"
                  id="CollectingCard-backto-SymbolCollectCard" style="stroke:#181818;stroke-width:1.0;"/>
            <polygon fill="none" points="654.266,435.864,647.8471,453.7189,659.8438,453.9993,654.266,435.864"
                     style="stroke:#181818;stroke-width:1.0;"/>
        </g><!--reverse link PositioningCard to TripletCard-->
        <g id="link_PositioningCard_TripletCard">
            <path d="M1379.1503,478.0112 C1379.8803,502.7812 1380.18,513.404 1380.84,535.952 " fill="none"
                  id="PositioningCard-backto-TripletCard" style="stroke:#181818;stroke-width:1.0;"/>
            <polygon fill="none" points="1378.62,460.019,1373.1529,478.1879,1385.1476,477.8344,1378.62,460.019"
                     style="stroke:#181818;stroke-width:1.0;"/>
        </g><!--reverse link PositioningCard to LCard-->
        <g id="link_PositioningCard_LCard">
            <path d="M1471.9904,470.2634 C1503.5504,492.1084 1524.62,506.698 1554.99,527.725 " fill="none"
                  id="PositioningCard-backto-LCard" style="stroke:#181818;stroke-width:1.0;"/>
            <polygon fill="none" points="1457.19,460.019,1468.5756,475.1969,1475.4052,465.33,1457.19,460.019"
                     style="stroke:#181818;stroke-width:1.0;"/>
        </g><!--reverse link ObjectiveBuilder to CollectingBuilder-->
        <g id="link_ObjectiveBuilder_CollectingBuilder">
            <path d="M979.1915,485.9206 C974.1995,515.3576 971.59,530.746 967.933,552.31 " fill="none"
                  id="ObjectiveBuilder-backto-CollectingBuilder" style="stroke:#181818;stroke-width:1.0;"/>
            <polygon fill="none" points="982.201,468.174,973.2759,484.9175,985.107,486.9238,982.201,468.174"
                     style="stroke:#181818;stroke-width:1.0;"/>
        </g><!--reverse link ObjectiveBuilder to PositioningBuilder-->
        <g id="link_ObjectiveBuilder_PositioningBuilder">
            <path d="M1066.1172,481.2052 C1094.1672,510.6422 1113.34,530.746 1133.9,552.31 " fill="none"
                  id="ObjectiveBuilder-backto-PositioningBuilder" style="stroke:#181818;stroke-width:1.0;"/>
            <polygon fill="none" points="1053.7,468.174,1061.7735,485.3443,1070.461,477.0661,1053.7,468.174"
                     style="stroke:#181818;stroke-width:1.0;"/>
        </g><!--reverse link CollectingBuilder to ColorCollectBuilder-->
        <g id="link_CollectingBuilder_ColorCollectBuilder">
            <path d="M908.5665,609.0882 C891.9275,617.9242 887.955,618.891 869,625 C709.604,676.372 657.83,638.311 497,685 C453.63,697.59 407.503,716.353 368.378,733.995 "
                  fill="none" id="CollectingBuilder-backto-ColorCollectBuilder"
                  style="stroke:#181818;stroke-width:1.0;"/>
            <polygon fill="none" points="924.464,600.646,905.7525,603.7891,911.3806,614.3874,924.464,600.646"
                     style="stroke:#181818;stroke-width:1.0;"/>
        </g><!--reverse link CollectingBuilder to SymbolCollectBuilder-->
        <g id="link_CollectingBuilder_SymbolCollectBuilder">
            <path d="M919.4552,611.4072 C877.1552,643.6052 813.629,691.961 758.547,733.889 " fill="none"
                  id="CollectingBuilder-backto-SymbolCollectBuilder" style="stroke:#181818;stroke-width:1.0;"/>
            <polygon fill="none" points="933.778,600.505,915.8212,606.633,923.0893,616.1815,933.778,600.505"
                     style="stroke:#181818;stroke-width:1.0;"/>
        </g><!--reverse link PositioningBuilder to TripletBuilder-->
        <g id="link_PositioningBuilder_TripletBuilder">
            <path d="M1152.7892,618.4496 C1150.5692,646.6876 1148.13,677.796 1145,717.717 " fill="none"
                  id="PositioningBuilder-backto-TripletBuilder" style="stroke:#181818;stroke-width:1.0;"/>
            <polygon fill="none" points="1154.2,600.505,1146.8077,617.9794,1158.7708,618.9199,1154.2,600.505"
                     style="stroke:#181818;stroke-width:1.0;"/>
        </g><!--reverse link PositioningBuilder to LBuilder-->
        <g id="link_PositioningBuilder_LBuilder">
            <path d="M1214.9574,608.9849 C1253.9774,629.8249 1298.35,653.522 1357.3,684.998 " fill="none"
                  id="PositioningBuilder-backto-LBuilder" style="stroke:#181818;stroke-width:1.0;"/>
            <polygon fill="none" points="1199.08,600.505,1212.1308,614.2773,1217.784,603.6924,1199.08,600.505"
                     style="stroke:#181818;stroke-width:1.0;"/>
        </g><!--reverse link ObjectiveCard to ObjectiveBuilder-->
        <g id="link_ObjectiveCard_ObjectiveBuilder">
            <path codeLine="96" d="M993,295.315 C993,315.489 993,320.264 993,338.871 " fill="none"
                  id="ObjectiveCard-backto-ObjectiveBuilder" style="stroke:#181818;stroke-width:1.0;"/>
            <ellipse cx="993" cy="287.315" fill="#F8F8FF" rx="8" ry="8" style="stroke:#181818;stroke-width:1.0;"/>
            <line style="stroke:#181818;stroke-width:1.0;" x1="993" x2="993" y1="295.315" y2="279.315"/>
            <line style="stroke:#181818;stroke-width:1.0;" x1="985" x2="1001" y1="287.315" y2="287.315"/>
        </g><!--reverse link CollectingCard to CollectingBuilder-->
        <g id="link_CollectingCard_CollectingBuilder">
            <path codeLine="97" d="M725.3153,443.4123 C786.2413,477.1293 867.95,522.346 922.416,552.487 " fill="none"
                  id="CollectingCard-backto-CollectingBuilder" style="stroke:#181818;stroke-width:1.0;"/>
            <ellipse cx="718.3156" cy="439.5387" fill="#F8F8FF" rx="8" ry="8" style="stroke:#181818;stroke-width:1.0;"/>
            <line style="stroke:#181818;stroke-width:1.0;" x1="725.3153" x2="711.316" y1="443.4123" y2="435.665"/>
            <line style="stroke:#181818;stroke-width:1.0;" x1="714.442" x2="722.1893" y1="446.5383" y2="432.539"/>
        </g><!--reverse link PositioningCard to PositioningBuilder-->
        <g id="link_PositioningCard_PositioningBuilder">
            <path codeLine="98" d="M1292.5954,469.8099 C1252.1354,501.1139 1216.4,528.767 1185.92,552.347 " fill="none"
                  id="PositioningCard-backto-PositioningBuilder" style="stroke:#181818;stroke-width:1.0;"/>
            <ellipse cx="1298.9227" cy="464.9144" fill="#F8F8FF" rx="8" ry="8"
                     style="stroke:#181818;stroke-width:1.0;"/>
            <line style="stroke:#181818;stroke-width:1.0;" x1="1292.5954" x2="1305.25" y1="469.8099" y2="460.019"/>
            <line style="stroke:#181818;stroke-width:1.0;" x1="1294.0273" x2="1303.8181" y1="458.5871" y2="471.2417"/>
        </g><!--reverse link ColorCollectCard to ColorCollectBuilder-->
        <g id="link_ColorCollectCard_ColorCollectBuilder">
            <path codeLine="99" d="M242.1554,633.0044 C248.8664,666.3984 255.316,698.486 262.433,733.896 " fill="none"
                  id="ColorCollectCard-backto-ColorCollectBuilder" style="stroke:#181818;stroke-width:1.0;"/>
            <ellipse cx="240.5792" cy="625.1612" fill="#F8F8FF" rx="8" ry="8" style="stroke:#181818;stroke-width:1.0;"/>
            <line style="stroke:#181818;stroke-width:1.0;" x1="242.1554" x2="239.003" y1="633.0044" y2="617.318"/>
            <line style="stroke:#181818;stroke-width:1.0;" x1="232.736" x2="248.4224" y1="626.7374" y2="623.585"/>
        </g><!--reverse link SymbolCollectCard to SymbolCollectBuilder-->
        <g id="link_SymbolCollectCard_SymbolCollectBuilder">
            <path codeLine="100" d="M663.2299,632.9423 C670.5969,666.3363 677.688,698.486 685.499,733.896 " fill="none"
                  id="SymbolCollectCard-backto-SymbolCollectBuilder" style="stroke:#181818;stroke-width:1.0;"/>
            <ellipse cx="661.5064" cy="625.1302" fill="#F8F8FF" rx="8" ry="8" style="stroke:#181818;stroke-width:1.0;"/>
            <line style="stroke:#181818;stroke-width:1.0;" x1="663.2299" x2="659.783" y1="632.9423" y2="617.318"/>
            <line style="stroke:#181818;stroke-width:1.0;" x1="653.6943" x2="669.3186" y1="626.8536" y2="623.4067"/>
        </g><!--reverse link TripletCard to TripletBuilder-->
        <g id="link_TripletCard_TripletBuilder">
            <path codeLine="101" d="M1322.8167,627.3874 C1288.8667,656.0064 1254.51,684.967 1215.38,717.954 "
                  fill="none" id="TripletCard-backto-TripletBuilder" style="stroke:#181818;stroke-width:1.0;"/>
            <ellipse cx="1328.9333" cy="622.2312" fill="#F8F8FF" rx="8" ry="8"
                     style="stroke:#181818;stroke-width:1.0;"/>
            <line style="stroke:#181818;stroke-width:1.0;" x1="1322.8167" x2="1335.05" y1="627.3874" y2="617.075"/>
            <line style="stroke:#181818;stroke-width:1.0;" x1="1323.7771" x2="1334.0895" y1="616.1145" y2="628.3479"/>
        </g><!--reverse link LCard to LBuilder-->
        <g id="link_LCard_LBuilder">
            <path codeLine="102" d="M1597.7307,639.8128 C1590.1807,657.7088 1587.52,664.024 1578.77,684.788 "
                  fill="none" id="LCard-backto-LBuilder" style="stroke:#181818;stroke-width:1.0;"/>
            <ellipse cx="1600.8404" cy="632.4419" fill="#F8F8FF" rx="8" ry="8"
                     style="stroke:#181818;stroke-width:1.0;"/>
            <line style="stroke:#181818;stroke-width:1.0;" x1="1597.7307" x2="1603.95" y1="639.8128" y2="625.071"/>
            <line style="stroke:#181818;stroke-width:1.0;" x1="1593.4695" x2="1608.2112" y1="629.3322" y2="635.5515"/>
        </g><!--SRC=[bLRTRjiW5BxtKo3jXgZD7Y2ASj5gaI9bQjJc1R1D7LOC7f1jKPHtdy7O1eCT9rU1yy7vpdT-iFmYh482bU05PL-5u6UMltBA1IXENAg_9w9mabIr3HKOP4ZayZjFV-5CaJ_uce3wXrAf1CeKo2YI4horrjSQ31e80D_yVTYjNiw4vbWiLXQu12HV0S9KjwvulPBktXCeiDhbS15i6khl-FUP25pY-fZ6xChoh51AyKzKhGtY6UoOmWKM6_VmyL9XZVUOwaqNT31i8gu_BcNAwQJl1X9ndjMojpSVABfWiIMOvewJMnBJkWw6QggiC6BZVmgpV922FWC-6lPBFmUtcAS3bqGHpcQw6i2XimuJdkcKoBVF0r8A2pOpOKHkAQagRCeWvPnYn1pZErT8XKQhOoSV5rO6BofVgMl7T7W0kXiZWHsvjS-8w-QGQuhb4NR12UZjXFoaCOyHZ5QhfzzHa8fYdzmWypqx1mpj_v3HPvFIBKN5C6-zs_qyXmO6zv41qrPEwAOnszg9iPYSUDOLM1_Z_R7fnc4uv-AJpXkSzdf8ycSDMIGTw0bSMquta6gOhllrSJDhThIq0yxMS4qchWaxU-OzOGiEpmSCNVM6lVM3dSlnSQ4bEY5fZD12j8Ih687HCnDmBwXOsysBAkZ8DgoW6NsIZHcsg2Qq68s9OrCdOcq_32oiXAjJnTdmPRwViebnuDI0yswOYrnb-ZV27gvZzDbFvJg2z7JOFwB0tM34sD2niq6G4ecBuTP6wjGDpZZBn-qFg7z7ldqeNF_OJi9gVGzE49tCSUY75r4SRBFXVt4-BPV1v36mmSUInWMzQ833RnsD35FRtkb_GTXRepCYVD4rUhJdtDTL0oFbkE-CdIx9xJy0]-->
    </g>
</svg>