<?xml version="1.0" encoding="us-ascii" standalone="no"?>
<svg xmlns="http://www.w3.org/2000/svg" contentStyleType="text/css"
     height="515px" preserveAspectRatio="none" style="width:1482px;height:515px;background:#F8F8FF;" version="1.1"
     viewBox="0 0 1482 515" width="1482px" zoomAndPan="magnify">
    <defs/>
    <g>
        <rect fill="#F8F8FF" height="515" style="stroke:none;stroke-width:1.0;" width="1482" x="0"
              y="0"/><!--cluster cards-->
        <g id="cluster_cards">
            <path d="M8.5,6 L54.5,6 A3.75,3.75 0 0 1 57,8.5 L64,28.2969 L1179.5,28.2969 A2.5,2.5 0 0 1 1182,30.7969 L1182,505.5 A2.5,2.5 0 0 1 1179.5,508 L8.5,508 A2.5,2.5 0 0 1 6,505.5 L6,8.5 A2.5,2.5 0 0 1 8.5,6 "
                  fill="none" style="stroke:#000000;stroke-width:1.5;"/>
            <line style="stroke:#000000;stroke-width:1.5;" x1="6" x2="64" y1="28.2969" y2="28.2969"/>
            <text fill="#000000" font-family="sans-serif" font-size="14" font-weight="bold" lengthAdjust="spacing"
                  textLength="45" x="10" y="20.9951">cards
            </text>
        </g><!--cluster utils-->
        <g id="cluster_utils">
            <path d="M32.5,49 L70.5,49 A3.75,3.75 0 0 1 73,51.5 L80,71.2969 L1155.5,71.2969 A2.5,2.5 0 0 1 1158,73.7969 L1158,481.5 A2.5,2.5 0 0 1 1155.5,484 L32.5,484 A2.5,2.5 0 0 1 30,481.5 L30,51.5 A2.5,2.5 0 0 1 32.5,49 "
                  fill="none" style="stroke:#000000;stroke-width:1.5;"/>
            <line style="stroke:#000000;stroke-width:1.5;" x1="30" x2="80" y1="71.2969" y2="71.2969"/>
            <text fill="#000000" font-family="sans-serif" font-size="14" font-weight="bold" lengthAdjust="spacing"
                  textLength="37" x="34" y="63.9951">utils
            </text>
        </g><!--class FieldCard-->
        <g id="elem_FieldCard">
            <rect codeLine="4" fill="#F1F1F1" height="56.2656" id="FieldCard" rx="2.5" ry="2.5"
                  style="stroke:#181818;stroke-width:0.5;" width="100" x="1042" y="141"/>
            <ellipse cx="1057" cy="161.1328" fill="#B4A7E5" rx="11" ry="11" style="stroke:#181818;stroke-width:1.0;"/>
            <path d="M1057.9531,157.9141 L1059.6719,157.9141 C1060.0625,157.9141 1060.25,157.8828 1060.375,157.8047 C1060.6406,157.6484 1060.7813,157.3672 1060.7813,157.0703 C1060.7813,156.8047 1060.6719,156.5391 1060.4375,156.3672 C1060.2656,156.2578 1060.125,156.2266 1059.6719,156.2266 L1054.5313,156.2266 C1054.0938,156.2266 1053.9688,156.2422 1053.8125,156.3359 C1053.5625,156.4922 1053.4063,156.7891 1053.4063,157.0703 C1053.4063,157.3516 1053.5469,157.6016 1053.7656,157.7734 C1053.9219,157.8828 1054.1094,157.9141 1054.5313,157.9141 L1056.25,157.9141 L1056.25,164.4297 L1054.5313,164.4297 C1054.0938,164.4297 1053.9688,164.4453 1053.8125,164.5547 C1053.5625,164.7109 1053.4063,164.9922 1053.4063,165.2891 C1053.4063,165.5391 1053.5469,165.8047 1053.7656,165.9609 C1053.9219,166.0859 1054.125,166.1328 1054.5313,166.1328 L1059.6719,166.1328 C1060.4219,166.1328 1060.7813,165.8516 1060.7813,165.2891 C1060.7813,165.0078 1060.6719,164.7578 1060.4375,164.5859 C1060.2656,164.4609 1060.125,164.4297 1059.6719,164.4297 L1057.9531,164.4297 L1057.9531,157.9141 Z "
                  fill="#000000"/>
            <text fill="#000000" font-family="sans-serif" font-size="12" font-style="italic" lengthAdjust="spacing"
                  textLength="52" x="1079" y="157.1387">&#171;sealed&#187;
            </text>
            <text fill="#000000" font-family="sans-serif" font-size="14" font-style="italic" lengthAdjust="spacing"
                  textLength="68" x="1071" y="172.9639">FieldCard
            </text>
            <line style="stroke:#181818;stroke-width:0.5;" x1="1043" x2="1141" y1="181.2656" y2="181.2656"/>
            <line style="stroke:#181818;stroke-width:0.5;" x1="1043" x2="1141" y1="189.2656" y2="189.2656"/>
        </g><!--class CornerContainer-->
        <g id="elem_CornerContainer">
            <rect codeLine="13" fill="#F1F1F1" height="72.5625" id="CornerContainer" rx="2.5" ry="2.5"
                  style="stroke:#181818;stroke-width:0.5;" width="179" x="181.5" y="132.5"/>
            <ellipse cx="209.1" cy="152.6328" fill="#B4A7E5" rx="11" ry="11" style="stroke:#181818;stroke-width:1.0;"/>
            <path d="M210.0531,149.4141 L211.7719,149.4141 C212.1625,149.4141 212.35,149.3828 212.475,149.3047 C212.7406,149.1484 212.8813,148.8672 212.8813,148.5703 C212.8813,148.3047 212.7719,148.0391 212.5375,147.8672 C212.3656,147.7578 212.225,147.7266 211.7719,147.7266 L206.6313,147.7266 C206.1938,147.7266 206.0688,147.7422 205.9125,147.8359 C205.6625,147.9922 205.5063,148.2891 205.5063,148.5703 C205.5063,148.8516 205.6469,149.1016 205.8656,149.2734 C206.0219,149.3828 206.2094,149.4141 206.6313,149.4141 L208.35,149.4141 L208.35,155.9297 L206.6313,155.9297 C206.1938,155.9297 206.0688,155.9453 205.9125,156.0547 C205.6625,156.2109 205.5063,156.4922 205.5063,156.7891 C205.5063,157.0391 205.6469,157.3047 205.8656,157.4609 C206.0219,157.5859 206.225,157.6328 206.6313,157.6328 L211.7719,157.6328 C212.5219,157.6328 212.8813,157.3516 212.8813,156.7891 C212.8813,156.5078 212.7719,156.2578 212.5375,156.0859 C212.3656,155.9609 212.225,155.9297 211.7719,155.9297 L210.0531,155.9297 L210.0531,149.4141 Z "
                  fill="#000000"/>
            <text fill="#000000" font-family="sans-serif" font-size="12" font-style="italic" lengthAdjust="spacing"
                  textLength="52" x="259.4" y="148.6387">&#171;sealed&#187;
            </text>
            <text fill="#000000" font-family="sans-serif" font-size="14" font-style="italic" lengthAdjust="spacing"
                  textLength="119" x="225.9" y="164.4639">CornerContainer
            </text>
            <line style="stroke:#181818;stroke-width:0.5;" x1="182.5" x2="359.5" y1="172.7656" y2="172.7656"/>
            <line style="stroke:#181818;stroke-width:0.5;" x1="182.5" x2="359.5" y1="180.7656" y2="180.7656"/>
            <ellipse cx="192.5" cy="194.4141" fill="#84BE84" rx="3" ry="3" style="stroke:#038048;stroke-width:1.0;"/>
            <text fill="#000000" font-family="sans-serif" font-size="14" lengthAdjust="spacing" textLength="153"
                  x="201.5" y="197.7607">isAvailable(): boolean
            </text>
        </g><!--class Item-->
        <g id="elem_Item">
            <rect codeLine="17" fill="#F1F1F1" height="56.2656" id="Item" rx="2.5" ry="2.5"
                  style="stroke:#181818;stroke-width:0.5;" width="80" x="66" y="141"/>
            <ellipse cx="81" cy="161.1328" fill="#B4A7E5" rx="11" ry="11" style="stroke:#181818;stroke-width:1.0;"/>
            <path d="M81.9531,157.9141 L83.6719,157.9141 C84.0625,157.9141 84.25,157.8828 84.375,157.8047 C84.6406,157.6484 84.7813,157.3672 84.7813,157.0703 C84.7813,156.8047 84.6719,156.5391 84.4375,156.3672 C84.2656,156.2578 84.125,156.2266 83.6719,156.2266 L78.5313,156.2266 C78.0938,156.2266 77.9688,156.2422 77.8125,156.3359 C77.5625,156.4922 77.4063,156.7891 77.4063,157.0703 C77.4063,157.3516 77.5469,157.6016 77.7656,157.7734 C77.9219,157.8828 78.1094,157.9141 78.5313,157.9141 L80.25,157.9141 L80.25,164.4297 L78.5313,164.4297 C78.0938,164.4297 77.9688,164.4453 77.8125,164.5547 C77.5625,164.7109 77.4063,164.9922 77.4063,165.2891 C77.4063,165.5391 77.5469,165.8047 77.7656,165.9609 C77.9219,166.0859 78.125,166.1328 78.5313,166.1328 L83.6719,166.1328 C84.4219,166.1328 84.7813,165.8516 84.7813,165.2891 C84.7813,165.0078 84.6719,164.7578 84.4375,164.5859 C84.2656,164.4609 84.125,164.4297 83.6719,164.4297 L81.9531,164.4297 L81.9531,157.9141 Z "
                  fill="#000000"/>
            <text fill="#000000" font-family="sans-serif" font-size="12" font-style="italic" lengthAdjust="spacing"
                  textLength="52" x="93" y="157.1387">&#171;sealed&#187;
            </text>
            <text fill="#000000" font-family="sans-serif" font-size="14" font-style="italic" lengthAdjust="spacing"
                  textLength="32" x="103" y="172.9639">Item
            </text>
            <line style="stroke:#181818;stroke-width:0.5;" x1="67" x2="145" y1="181.2656" y2="181.2656"/>
            <line style="stroke:#181818;stroke-width:0.5;" x1="67" x2="145" y1="189.2656" y2="189.2656"/>
        </g><!--class Corner-->
        <g id="elem_Corner">
            <rect codeLine="19" fill="#F1F1F1" height="121.4531" id="Corner" rx="2.5" ry="2.5"
                  style="stroke:#181818;stroke-width:0.5;" width="119" x="570.5" y="108.5"/>
            <ellipse cx="585.5" cy="128.6328" fill="#EB937F" rx="11" ry="11" style="stroke:#181818;stroke-width:1.0;"/>
            <path d="M584.2969,129.5078 L585.75,129.5078 L585.75,129.6172 C585.75,130.0234 585.7813,130.1797 585.8594,130.3359 C586.0156,130.5859 586.2969,130.7422 586.5938,130.7422 C586.8438,130.7422 587.1094,130.6016 587.2656,130.3828 C587.3906,130.2266 587.4219,130.0703 587.4219,129.6172 L587.4219,127.6953 C587.4219,127.5391 587.4219,127.4922 587.4063,127.3359 C587.3438,126.8672 587.0313,126.5547 586.5781,126.5547 C586.3281,126.5547 586.0625,126.6953 585.8906,126.9141 C585.7813,127.0859 585.75,127.2422 585.75,127.6953 L585.75,127.8203 L584.2969,127.8203 L584.2969,125.4141 L588.2813,125.4141 L588.2813,126.2734 C588.2813,126.6797 588.3125,126.8516 588.3906,127.0078 C588.5625,127.2578 588.8438,127.4141 589.125,127.4141 C589.3906,127.4141 589.6563,127.2734 589.8281,127.0547 C589.9375,126.8828 589.9688,126.7422 589.9688,126.2734 L589.9688,123.7266 L582.3438,123.7266 C581.9063,123.7266 581.7813,123.7422 581.625,123.8359 C581.375,123.9922 581.2188,124.2891 581.2188,124.5703 C581.2188,124.8516 581.3594,125.1016 581.5781,125.2734 C581.7344,125.3828 581.9219,125.4141 582.3438,125.4141 L582.5938,125.4141 L582.5938,131.9297 L582.3438,131.9297 C581.9375,131.9297 581.7813,131.9453 581.625,132.0547 C581.375,132.2266 581.2188,132.4922 581.2188,132.7891 C581.2188,133.0547 581.3594,133.3047 581.5781,133.4609 C581.7188,133.5859 581.9531,133.6328 582.3438,133.6328 L590.3438,133.6328 L590.3438,131.0547 C590.3438,130.6172 590.3125,130.4766 590.2344,130.3203 C590.0625,130.0703 589.7813,129.9141 589.5,129.9141 C589.2344,129.9141 588.9688,130.0234 588.7969,130.2734 C588.6875,130.4297 588.6563,130.5703 588.6563,131.0547 L588.6563,131.9297 L584.2969,131.9297 L584.2969,129.5078 Z "
                  fill="#000000"/>
            <text fill="#000000" font-family="sans-serif" font-size="12" font-style="italic" lengthAdjust="spacing"
                  textLength="91" x="597.5" y="124.6387">&#171;enumeration&#187;
            </text>
            <text fill="#000000" font-family="sans-serif" font-size="14" lengthAdjust="spacing" textLength="49"
                  x="618.5" y="140.4639">Corner
            </text>
            <line style="stroke:#181818;stroke-width:0.5;" x1="571.5" x2="688.5" y1="148.7656" y2="148.7656"/>
            <ellipse cx="581.5" cy="162.4141" fill="none" rx="3" ry="3" style="stroke:#038048;stroke-width:1.0;"/>
            <text fill="#000000" font-family="sans-serif" font-size="14" lengthAdjust="spacing" textLength="78"
                  x="590.5" y="165.7607">DOWN_RX:
            </text>
            <ellipse cx="581.5" cy="178.7109" fill="none" rx="3" ry="3" style="stroke:#038048;stroke-width:1.0;"/>
            <text fill="#000000" font-family="sans-serif" font-size="14" lengthAdjust="spacing" textLength="61"
                  x="590.5" y="182.0576">TOP_RX:
            </text>
            <ellipse cx="581.5" cy="195.0078" fill="none" rx="3" ry="3" style="stroke:#038048;stroke-width:1.0;"/>
            <text fill="#000000" font-family="sans-serif" font-size="14" lengthAdjust="spacing" textLength="76"
                  x="590.5" y="198.3545">DOWN_LX:
            </text>
            <ellipse cx="581.5" cy="211.3047" fill="none" rx="3" ry="3" style="stroke:#038048;stroke-width:1.0;"/>
            <text fill="#000000" font-family="sans-serif" font-size="14" lengthAdjust="spacing" textLength="59"
                  x="590.5" y="214.6514">TOP_LX:
            </text>
            <line style="stroke:#181818;stroke-width:0.5;" x1="571.5" x2="688.5" y1="221.9531" y2="221.9531"/>
        </g><!--class Availability-->
        <g id="elem_Availability">
            <rect codeLine="26" fill="#F1F1F1" height="88.8594" id="Availability" rx="2.5" ry="2.5"
                  style="stroke:#181818;stroke-width:0.5;" width="119" x="354.5" y="346.5"/>
            <ellipse cx="369.5" cy="366.6328" fill="#EB937F" rx="11" ry="11" style="stroke:#181818;stroke-width:1.0;"/>
            <path d="M368.2969,367.5078 L369.75,367.5078 L369.75,367.6172 C369.75,368.0234 369.7813,368.1797 369.8594,368.3359 C370.0156,368.5859 370.2969,368.7422 370.5938,368.7422 C370.8438,368.7422 371.1094,368.6016 371.2656,368.3828 C371.3906,368.2266 371.4219,368.0703 371.4219,367.6172 L371.4219,365.6953 C371.4219,365.5391 371.4219,365.4922 371.4063,365.3359 C371.3438,364.8672 371.0313,364.5547 370.5781,364.5547 C370.3281,364.5547 370.0625,364.6953 369.8906,364.9141 C369.7813,365.0859 369.75,365.2422 369.75,365.6953 L369.75,365.8203 L368.2969,365.8203 L368.2969,363.4141 L372.2813,363.4141 L372.2813,364.2734 C372.2813,364.6797 372.3125,364.8516 372.3906,365.0078 C372.5625,365.2578 372.8438,365.4141 373.125,365.4141 C373.3906,365.4141 373.6563,365.2734 373.8281,365.0547 C373.9375,364.8828 373.9688,364.7422 373.9688,364.2734 L373.9688,361.7266 L366.3438,361.7266 C365.9063,361.7266 365.7813,361.7422 365.625,361.8359 C365.375,361.9922 365.2188,362.2891 365.2188,362.5703 C365.2188,362.8516 365.3594,363.1016 365.5781,363.2734 C365.7344,363.3828 365.9219,363.4141 366.3438,363.4141 L366.5938,363.4141 L366.5938,369.9297 L366.3438,369.9297 C365.9375,369.9297 365.7813,369.9453 365.625,370.0547 C365.375,370.2266 365.2188,370.4922 365.2188,370.7891 C365.2188,371.0547 365.3594,371.3047 365.5781,371.4609 C365.7188,371.5859 365.9531,371.6328 366.3438,371.6328 L374.3438,371.6328 L374.3438,369.0547 C374.3438,368.6172 374.3125,368.4766 374.2344,368.3203 C374.0625,368.0703 373.7813,367.9141 373.5,367.9141 C373.2344,367.9141 372.9688,368.0234 372.7969,368.2734 C372.6875,368.4297 372.6563,368.5703 372.6563,369.0547 L372.6563,369.9297 L368.2969,369.9297 L368.2969,367.5078 Z "
                  fill="#000000"/>
            <text fill="#000000" font-family="sans-serif" font-size="12" font-style="italic" lengthAdjust="spacing"
                  textLength="91" x="381.5" y="362.6387">&#171;enumeration&#187;
            </text>
            <text fill="#000000" font-family="sans-serif" font-size="14" lengthAdjust="spacing" textLength="79"
                  x="387.5" y="378.4639">Availability
            </text>
            <line style="stroke:#181818;stroke-width:0.5;" x1="355.5" x2="472.5" y1="386.7656" y2="386.7656"/>
            <ellipse cx="365.5" cy="400.4141" fill="none" rx="3" ry="3" style="stroke:#038048;stroke-width:1.0;"/>
            <text fill="#000000" font-family="sans-serif" font-size="14" lengthAdjust="spacing" textLength="55"
                  x="374.5" y="403.7607">USABLE
            </text>
            <ellipse cx="365.5" cy="416.7109" fill="none" rx="3" ry="3" style="stroke:#038048;stroke-width:1.0;"/>
            <text fill="#000000" font-family="sans-serif" font-size="14" lengthAdjust="spacing" textLength="92"
                  x="374.5" y="420.0576">NOT_USABLE
            </text>
            <line style="stroke:#181818;stroke-width:0.5;" x1="355.5" x2="472.5" y1="427.3594" y2="427.3594"/>
        </g><!--class Color-->
        <g id="elem_Color">
            <rect codeLine="30" fill="#F1F1F1" height="121.4531" id="Color" rx="2.5" ry="2.5"
                  style="stroke:#181818;stroke-width:0.5;" width="119" x="200.5" y="330.5"/>
            <ellipse cx="215.5" cy="350.6328" fill="#EB937F" rx="11" ry="11" style="stroke:#181818;stroke-width:1.0;"/>
            <path d="M214.2969,351.5078 L215.75,351.5078 L215.75,351.6172 C215.75,352.0234 215.7813,352.1797 215.8594,352.3359 C216.0156,352.5859 216.2969,352.7422 216.5938,352.7422 C216.8438,352.7422 217.1094,352.6016 217.2656,352.3828 C217.3906,352.2266 217.4219,352.0703 217.4219,351.6172 L217.4219,349.6953 C217.4219,349.5391 217.4219,349.4922 217.4063,349.3359 C217.3438,348.8672 217.0313,348.5547 216.5781,348.5547 C216.3281,348.5547 216.0625,348.6953 215.8906,348.9141 C215.7813,349.0859 215.75,349.2422 215.75,349.6953 L215.75,349.8203 L214.2969,349.8203 L214.2969,347.4141 L218.2813,347.4141 L218.2813,348.2734 C218.2813,348.6797 218.3125,348.8516 218.3906,349.0078 C218.5625,349.2578 218.8438,349.4141 219.125,349.4141 C219.3906,349.4141 219.6563,349.2734 219.8281,349.0547 C219.9375,348.8828 219.9688,348.7422 219.9688,348.2734 L219.9688,345.7266 L212.3438,345.7266 C211.9063,345.7266 211.7813,345.7422 211.625,345.8359 C211.375,345.9922 211.2188,346.2891 211.2188,346.5703 C211.2188,346.8516 211.3594,347.1016 211.5781,347.2734 C211.7344,347.3828 211.9219,347.4141 212.3438,347.4141 L212.5938,347.4141 L212.5938,353.9297 L212.3438,353.9297 C211.9375,353.9297 211.7813,353.9453 211.625,354.0547 C211.375,354.2266 211.2188,354.4922 211.2188,354.7891 C211.2188,355.0547 211.3594,355.3047 211.5781,355.4609 C211.7188,355.5859 211.9531,355.6328 212.3438,355.6328 L220.3438,355.6328 L220.3438,353.0547 C220.3438,352.6172 220.3125,352.4766 220.2344,352.3203 C220.0625,352.0703 219.7813,351.9141 219.5,351.9141 C219.2344,351.9141 218.9688,352.0234 218.7969,352.2734 C218.6875,352.4297 218.6563,352.5703 218.6563,353.0547 L218.6563,353.9297 L214.2969,353.9297 L214.2969,351.5078 Z "
                  fill="#000000"/>
            <text fill="#000000" font-family="sans-serif" font-size="12" font-style="italic" lengthAdjust="spacing"
                  textLength="91" x="227.5" y="346.6387">&#171;enumeration&#187;
            </text>
            <text fill="#000000" font-family="sans-serif" font-size="14" lengthAdjust="spacing" textLength="38" x="254"
                  y="362.4639">Color
            </text>
            <line style="stroke:#181818;stroke-width:0.5;" x1="201.5" x2="318.5" y1="370.7656" y2="370.7656"/>
            <ellipse cx="211.5" cy="384.4141" fill="none" rx="3" ry="3" style="stroke:#038048;stroke-width:1.0;"/>
            <text fill="#000000" font-family="sans-serif" font-size="14" lengthAdjust="spacing" textLength="35"
                  x="220.5" y="387.7607">RED:
            </text>
            <ellipse cx="211.5" cy="400.7109" fill="none" rx="3" ry="3" style="stroke:#038048;stroke-width:1.0;"/>
            <text fill="#000000" font-family="sans-serif" font-size="14" lengthAdjust="spacing" textLength="59"
                  x="220.5" y="404.0576">PURPLE:
            </text>
            <ellipse cx="211.5" cy="417.0078" fill="none" rx="3" ry="3" style="stroke:#038048;stroke-width:1.0;"/>
            <text fill="#000000" font-family="sans-serif" font-size="14" lengthAdjust="spacing" textLength="41"
                  x="220.5" y="420.3545">BLUE:
            </text>
            <ellipse cx="211.5" cy="433.3047" fill="none" rx="3" ry="3" style="stroke:#038048;stroke-width:1.0;"/>
            <text fill="#000000" font-family="sans-serif" font-size="14" lengthAdjust="spacing" textLength="54"
                  x="220.5" y="436.6514">GREEN:
            </text>
            <line style="stroke:#181818;stroke-width:0.5;" x1="201.5" x2="318.5" y1="443.9531" y2="443.9531"/>
        </g><!--class Symbol-->
        <g id="elem_Symbol">
            <rect codeLine="36" fill="#F1F1F1" height="105.1563" id="Symbol" rx="2.5" ry="2.5"
                  style="stroke:#181818;stroke-width:0.5;" width="119" x="46.5" y="338.5"/>
            <ellipse cx="61.5" cy="358.6328" fill="#EB937F" rx="11" ry="11" style="stroke:#181818;stroke-width:1.0;"/>
            <path d="M60.2969,359.5078 L61.75,359.5078 L61.75,359.6172 C61.75,360.0234 61.7813,360.1797 61.8594,360.3359 C62.0156,360.5859 62.2969,360.7422 62.5938,360.7422 C62.8438,360.7422 63.1094,360.6016 63.2656,360.3828 C63.3906,360.2266 63.4219,360.0703 63.4219,359.6172 L63.4219,357.6953 C63.4219,357.5391 63.4219,357.4922 63.4063,357.3359 C63.3438,356.8672 63.0313,356.5547 62.5781,356.5547 C62.3281,356.5547 62.0625,356.6953 61.8906,356.9141 C61.7813,357.0859 61.75,357.2422 61.75,357.6953 L61.75,357.8203 L60.2969,357.8203 L60.2969,355.4141 L64.2813,355.4141 L64.2813,356.2734 C64.2813,356.6797 64.3125,356.8516 64.3906,357.0078 C64.5625,357.2578 64.8438,357.4141 65.125,357.4141 C65.3906,357.4141 65.6563,357.2734 65.8281,357.0547 C65.9375,356.8828 65.9688,356.7422 65.9688,356.2734 L65.9688,353.7266 L58.3438,353.7266 C57.9063,353.7266 57.7813,353.7422 57.625,353.8359 C57.375,353.9922 57.2188,354.2891 57.2188,354.5703 C57.2188,354.8516 57.3594,355.1016 57.5781,355.2734 C57.7344,355.3828 57.9219,355.4141 58.3438,355.4141 L58.5938,355.4141 L58.5938,361.9297 L58.3438,361.9297 C57.9375,361.9297 57.7813,361.9453 57.625,362.0547 C57.375,362.2266 57.2188,362.4922 57.2188,362.7891 C57.2188,363.0547 57.3594,363.3047 57.5781,363.4609 C57.7188,363.5859 57.9531,363.6328 58.3438,363.6328 L66.3438,363.6328 L66.3438,361.0547 C66.3438,360.6172 66.3125,360.4766 66.2344,360.3203 C66.0625,360.0703 65.7813,359.9141 65.5,359.9141 C65.2344,359.9141 64.9688,360.0234 64.7969,360.2734 C64.6875,360.4297 64.6563,360.5703 64.6563,361.0547 L64.6563,361.9297 L60.2969,361.9297 L60.2969,359.5078 Z "
                  fill="#000000"/>
            <text fill="#000000" font-family="sans-serif" font-size="12" font-style="italic" lengthAdjust="spacing"
                  textLength="91" x="73.5" y="354.6387">&#171;enumeration&#187;
            </text>
            <text fill="#000000" font-family="sans-serif" font-size="14" lengthAdjust="spacing" textLength="54" x="92"
                  y="370.4639">Symbol
            </text>
            <line style="stroke:#181818;stroke-width:0.5;" x1="47.5" x2="164.5" y1="378.7656" y2="378.7656"/>
            <ellipse cx="57.5" cy="392.4141" fill="none" rx="3" ry="3" style="stroke:#038048;stroke-width:1.0;"/>
            <text fill="#000000" font-family="sans-serif" font-size="14" lengthAdjust="spacing" textLength="52" x="66.5"
                  y="395.7607">PAPER:
            </text>
            <ellipse cx="57.5" cy="408.7109" fill="none" rx="3" ry="3" style="stroke:#038048;stroke-width:1.0;"/>
            <text fill="#000000" font-family="sans-serif" font-size="14" lengthAdjust="spacing" textLength="52" x="66.5"
                  y="412.0576">GLASS:
            </text>
            <ellipse cx="57.5" cy="425.0078" fill="none" rx="3" ry="3" style="stroke:#038048;stroke-width:1.0;"/>
            <text fill="#000000" font-family="sans-serif" font-size="14" lengthAdjust="spacing" textLength="70" x="66.5"
                  y="428.3545">FEATHER:
            </text>
            <line style="stroke:#181818;stroke-width:0.5;" x1="47.5" x2="164.5" y1="435.6563" y2="435.6563"/>
        </g><!--class ObjectiveCardType-->
        <g id="elem_ObjectiveCardType">
            <rect codeLine="41" fill="#F1F1F1" height="170.3438" id="ObjectiveCardType" rx="2.5" ry="2.5"
                  style="stroke:#181818;stroke-width:0.5;" width="282" x="725" y="84"/>
            <ellipse cx="792.25" cy="104.1328" fill="#EB937F" rx="11" ry="11" style="stroke:#181818;stroke-width:1.0;"/>
            <path d="M791.0469,105.0078 L792.5,105.0078 L792.5,105.1172 C792.5,105.5234 792.5313,105.6797 792.6094,105.8359 C792.7656,106.0859 793.0469,106.2422 793.3438,106.2422 C793.5938,106.2422 793.8594,106.1016 794.0156,105.8828 C794.1406,105.7266 794.1719,105.5703 794.1719,105.1172 L794.1719,103.1953 C794.1719,103.0391 794.1719,102.9922 794.1563,102.8359 C794.0938,102.3672 793.7813,102.0547 793.3281,102.0547 C793.0781,102.0547 792.8125,102.1953 792.6406,102.4141 C792.5313,102.5859 792.5,102.7422 792.5,103.1953 L792.5,103.3203 L791.0469,103.3203 L791.0469,100.9141 L795.0313,100.9141 L795.0313,101.7734 C795.0313,102.1797 795.0625,102.3516 795.1406,102.5078 C795.3125,102.7578 795.5938,102.9141 795.875,102.9141 C796.1406,102.9141 796.4063,102.7734 796.5781,102.5547 C796.6875,102.3828 796.7188,102.2422 796.7188,101.7734 L796.7188,99.2266 L789.0938,99.2266 C788.6563,99.2266 788.5313,99.2422 788.375,99.3359 C788.125,99.4922 787.9688,99.7891 787.9688,100.0703 C787.9688,100.3516 788.1094,100.6016 788.3281,100.7734 C788.4844,100.8828 788.6719,100.9141 789.0938,100.9141 L789.3438,100.9141 L789.3438,107.4297 L789.0938,107.4297 C788.6875,107.4297 788.5313,107.4453 788.375,107.5547 C788.125,107.7266 787.9688,107.9922 787.9688,108.2891 C787.9688,108.5547 788.1094,108.8047 788.3281,108.9609 C788.4688,109.0859 788.7031,109.1328 789.0938,109.1328 L797.0938,109.1328 L797.0938,106.5547 C797.0938,106.1172 797.0625,105.9766 796.9844,105.8203 C796.8125,105.5703 796.5313,105.4141 796.25,105.4141 C795.9844,105.4141 795.7188,105.5234 795.5469,105.7734 C795.4375,105.9297 795.4063,106.0703 795.4063,106.5547 L795.4063,107.4297 L791.0469,107.4297 L791.0469,105.0078 Z "
                  fill="#000000"/>
            <text fill="#000000" font-family="sans-serif" font-size="12" font-style="italic" lengthAdjust="spacing"
                  textLength="91" x="836.75" y="100.1387">&#171;enumeration&#187;
            </text>
            <text fill="#000000" font-family="sans-serif" font-size="14" lengthAdjust="spacing" textLength="139"
                  x="812.75" y="115.9639">ObjectiveCardType
            </text>
            <line style="stroke:#181818;stroke-width:0.5;" x1="726" x2="1006" y1="124.2656" y2="124.2656"/>
            <ellipse cx="736" cy="137.9141" fill="none" rx="3" ry="3" style="stroke:#038048;stroke-width:1.0;"/>
            <text fill="#000000" font-family="sans-serif" font-size="14" lengthAdjust="spacing" textLength="67" x="745"
                  y="141.2607">L_SHAPE:
            </text>
            <ellipse cx="736" cy="154.2109" fill="none" rx="3" ry="3" style="stroke:#038048;stroke-width:1.0;"/>
            <text fill="#000000" font-family="sans-serif" font-size="14" lengthAdjust="spacing" textLength="63" x="745"
                  y="157.5576">TRIPLET:
            </text>
            <ellipse cx="736" cy="170.5078" fill="none" rx="3" ry="3" style="stroke:#038048;stroke-width:1.0;"/>
            <text fill="#000000" font-family="sans-serif" font-size="14" lengthAdjust="spacing" textLength="130" x="745"
                  y="173.8545">OBJECT_COLLECT:
            </text>
            <ellipse cx="736" cy="186.8047" fill="none" rx="3" ry="3" style="stroke:#038048;stroke-width:1.0;"/>
            <text fill="#000000" font-family="sans-serif" font-size="14" lengthAdjust="spacing" textLength="127" x="745"
                  y="190.1514">COLOR_COLLECT:
            </text>
            <line style="stroke:#181818;stroke-width:0.5;" x1="726" x2="1006" y1="197.4531" y2="197.4531"/>
            <ellipse cx="736" cy="211.1016" fill="#84BE84" rx="3" ry="3" style="stroke:#038048;stroke-width:1.0;"/>
            <text fill="#000000" font-family="sans-serif" font-size="14" lengthAdjust="spacing" textLength="154" x="745"
                  y="214.4482">ObjectiveCardType():
            </text>
            <ellipse cx="736" cy="227.3984" fill="#84BE84" rx="3" ry="3" style="stroke:#038048;stroke-width:1.0;"/>
            <text fill="#000000" font-family="sans-serif" font-size="14" lengthAdjust="spacing" textLength="212" x="745"
                  y="230.7451">values(): ObjectiveCardType[]
            </text>
            <ellipse cx="736" cy="243.6953" fill="#84BE84" rx="3" ry="3" style="stroke:#038048;stroke-width:1.0;"/>
            <text fill="#000000" font-family="sans-serif" font-size="14" lengthAdjust="spacing" textLength="256" x="745"
                  y="247.042">valueOf(String): ObjectiveCardType
            </text>
        </g><!--class PlayableCardType-->
        <g id="elem_PlayableCardType">
            <rect codeLine="50" fill="#F1F1F1" height="154.0469" id="PlayableCardType" rx="2.5" ry="2.5"
                  style="stroke:#181818;stroke-width:0.5;" width="272" x="509" y="314"/>
            <ellipse cx="576.25" cy="334.1328" fill="#EB937F" rx="11" ry="11" style="stroke:#181818;stroke-width:1.0;"/>
            <path d="M575.0469,335.0078 L576.5,335.0078 L576.5,335.1172 C576.5,335.5234 576.5313,335.6797 576.6094,335.8359 C576.7656,336.0859 577.0469,336.2422 577.3438,336.2422 C577.5938,336.2422 577.8594,336.1016 578.0156,335.8828 C578.1406,335.7266 578.1719,335.5703 578.1719,335.1172 L578.1719,333.1953 C578.1719,333.0391 578.1719,332.9922 578.1563,332.8359 C578.0938,332.3672 577.7813,332.0547 577.3281,332.0547 C577.0781,332.0547 576.8125,332.1953 576.6406,332.4141 C576.5313,332.5859 576.5,332.7422 576.5,333.1953 L576.5,333.3203 L575.0469,333.3203 L575.0469,330.9141 L579.0313,330.9141 L579.0313,331.7734 C579.0313,332.1797 579.0625,332.3516 579.1406,332.5078 C579.3125,332.7578 579.5938,332.9141 579.875,332.9141 C580.1406,332.9141 580.4063,332.7734 580.5781,332.5547 C580.6875,332.3828 580.7188,332.2422 580.7188,331.7734 L580.7188,329.2266 L573.0938,329.2266 C572.6563,329.2266 572.5313,329.2422 572.375,329.3359 C572.125,329.4922 571.9688,329.7891 571.9688,330.0703 C571.9688,330.3516 572.1094,330.6016 572.3281,330.7734 C572.4844,330.8828 572.6719,330.9141 573.0938,330.9141 L573.3438,330.9141 L573.3438,337.4297 L573.0938,337.4297 C572.6875,337.4297 572.5313,337.4453 572.375,337.5547 C572.125,337.7266 571.9688,337.9922 571.9688,338.2891 C571.9688,338.5547 572.1094,338.8047 572.3281,338.9609 C572.4688,339.0859 572.7031,339.1328 573.0938,339.1328 L581.0938,339.1328 L581.0938,336.5547 C581.0938,336.1172 581.0625,335.9766 580.9844,335.8203 C580.8125,335.5703 580.5313,335.4141 580.25,335.4141 C579.9844,335.4141 579.7188,335.5234 579.5469,335.7734 C579.4375,335.9297 579.4063,336.0703 579.4063,336.5547 L579.4063,337.4297 L575.0469,337.4297 L575.0469,335.0078 Z "
                  fill="#000000"/>
            <text fill="#000000" font-family="sans-serif" font-size="12" font-style="italic" lengthAdjust="spacing"
                  textLength="91" x="615.75" y="330.1387">&#171;enumeration&#187;
            </text>
            <text fill="#000000" font-family="sans-serif" font-size="14" lengthAdjust="spacing" textLength="129"
                  x="596.75" y="345.9639">PlayableCardType
            </text>
            <line style="stroke:#181818;stroke-width:0.5;" x1="510" x2="780" y1="354.2656" y2="354.2656"/>
            <ellipse cx="520" cy="367.9141" fill="none" rx="3" ry="3" style="stroke:#038048;stroke-width:1.0;"/>
            <text fill="#000000" font-family="sans-serif" font-size="14" lengthAdjust="spacing" textLength="46" x="529"
                  y="371.2607">GOLD:
            </text>
            <ellipse cx="520" cy="384.2109" fill="none" rx="3" ry="3" style="stroke:#038048;stroke-width:1.0;"/>
            <text fill="#000000" font-family="sans-serif" font-size="14" lengthAdjust="spacing" textLength="82" x="529"
                  y="387.5576">RESOURCE:
            </text>
            <ellipse cx="520" cy="400.5078" fill="none" rx="3" ry="3" style="stroke:#038048;stroke-width:1.0;"/>
            <text fill="#000000" font-family="sans-serif" font-size="14" lengthAdjust="spacing" textLength="71" x="529"
                  y="403.8545">STARTER:
            </text>
            <line style="stroke:#181818;stroke-width:0.5;" x1="510" x2="780" y1="411.1563" y2="411.1563"/>
            <ellipse cx="520" cy="424.8047" fill="#84BE84" rx="3" ry="3" style="stroke:#038048;stroke-width:1.0;"/>
            <text fill="#000000" font-family="sans-serif" font-size="14" lengthAdjust="spacing" textLength="144" x="529"
                  y="428.1514">PlayableCardType():
            </text>
            <ellipse cx="520" cy="441.1016" fill="#84BE84" rx="3" ry="3" style="stroke:#038048;stroke-width:1.0;"/>
            <text fill="#000000" font-family="sans-serif" font-size="14" lengthAdjust="spacing" textLength="246" x="529"
                  y="444.4482">valueOf(String): PlayableCardType
            </text>
            <ellipse cx="520" cy="457.3984" fill="#84BE84" rx="3" ry="3" style="stroke:#038048;stroke-width:1.0;"/>
            <text fill="#000000" font-family="sans-serif" font-size="14" lengthAdjust="spacing" textLength="202" x="529"
                  y="460.7451">values(): PlayableCardType[]
            </text>
        </g><!--class PointsRequirementsType-->
        <g id="elem_PointsRequirementsType">
            <rect codeLine="58" fill="#F1F1F1" height="154.0469" id="PointsRequirementsType" rx="2.5" ry="2.5"
                  style="stroke:#181818;stroke-width:0.5;" width="325" x="816.5" y="314"/>
            <ellipse cx="883.75" cy="334.1328" fill="#EB937F" rx="11" ry="11" style="stroke:#181818;stroke-width:1.0;"/>
            <path d="M882.5469,335.0078 L884,335.0078 L884,335.1172 C884,335.5234 884.0313,335.6797 884.1094,335.8359 C884.2656,336.0859 884.5469,336.2422 884.8438,336.2422 C885.0938,336.2422 885.3594,336.1016 885.5156,335.8828 C885.6406,335.7266 885.6719,335.5703 885.6719,335.1172 L885.6719,333.1953 C885.6719,333.0391 885.6719,332.9922 885.6563,332.8359 C885.5938,332.3672 885.2813,332.0547 884.8281,332.0547 C884.5781,332.0547 884.3125,332.1953 884.1406,332.4141 C884.0313,332.5859 884,332.7422 884,333.1953 L884,333.3203 L882.5469,333.3203 L882.5469,330.9141 L886.5313,330.9141 L886.5313,331.7734 C886.5313,332.1797 886.5625,332.3516 886.6406,332.5078 C886.8125,332.7578 887.0938,332.9141 887.375,332.9141 C887.6406,332.9141 887.9063,332.7734 888.0781,332.5547 C888.1875,332.3828 888.2188,332.2422 888.2188,331.7734 L888.2188,329.2266 L880.5938,329.2266 C880.1563,329.2266 880.0313,329.2422 879.875,329.3359 C879.625,329.4922 879.4688,329.7891 879.4688,330.0703 C879.4688,330.3516 879.6094,330.6016 879.8281,330.7734 C879.9844,330.8828 880.1719,330.9141 880.5938,330.9141 L880.8438,330.9141 L880.8438,337.4297 L880.5938,337.4297 C880.1875,337.4297 880.0313,337.4453 879.875,337.5547 C879.625,337.7266 879.4688,337.9922 879.4688,338.2891 C879.4688,338.5547 879.6094,338.8047 879.8281,338.9609 C879.9688,339.0859 880.2031,339.1328 880.5938,339.1328 L888.5938,339.1328 L888.5938,336.5547 C888.5938,336.1172 888.5625,335.9766 888.4844,335.8203 C888.3125,335.5703 888.0313,335.4141 887.75,335.4141 C887.4844,335.4141 887.2188,335.5234 887.0469,335.7734 C886.9375,335.9297 886.9063,336.0703 886.9063,336.5547 L886.9063,337.4297 L882.5469,337.4297 L882.5469,335.0078 Z "
                  fill="#000000"/>
            <text fill="#000000" font-family="sans-serif" font-size="12" font-style="italic" lengthAdjust="spacing"
                  textLength="91" x="949.75" y="330.1387">&#171;enumeration&#187;
            </text>
            <text fill="#000000" font-family="sans-serif" font-size="14" lengthAdjust="spacing" textLength="182"
                  x="904.25" y="345.9639">PointsRequirementsType
            </text>
            <line style="stroke:#181818;stroke-width:0.5;" x1="817.5" x2="1140.5" y1="354.2656" y2="354.2656"/>
            <ellipse cx="827.5" cy="367.9141" fill="none" rx="3" ry="3" style="stroke:#038048;stroke-width:1.0;"/>
            <text fill="#000000" font-family="sans-serif" font-size="14" lengthAdjust="spacing" textLength="65"
                  x="836.5" y="371.2607">CLASSIC:
            </text>
            <ellipse cx="827.5" cy="384.2109" fill="none" rx="3" ry="3" style="stroke:#038048;stroke-width:1.0;"/>
            <text fill="#000000" font-family="sans-serif" font-size="14" lengthAdjust="spacing" textLength="156"
                  x="836.5" y="387.5576">COVERING_CORNERS:
            </text>
            <ellipse cx="827.5" cy="400.5078" fill="none" rx="3" ry="3" style="stroke:#038048;stroke-width:1.0;"/>
            <text fill="#000000" font-family="sans-serif" font-size="14" lengthAdjust="spacing" textLength="73"
                  x="836.5" y="403.8545">SYMBOLS:
            </text>
            <line style="stroke:#181818;stroke-width:0.5;" x1="817.5" x2="1140.5" y1="411.1563" y2="411.1563"/>
            <ellipse cx="827.5" cy="424.8047" fill="#84BE84" rx="3" ry="3" style="stroke:#038048;stroke-width:1.0;"/>
            <text fill="#000000" font-family="sans-serif" font-size="14" lengthAdjust="spacing" textLength="197"
                  x="836.5" y="428.1514">PointsRequirementsType():
            </text>
            <ellipse cx="827.5" cy="441.1016" fill="#84BE84" rx="3" ry="3" style="stroke:#038048;stroke-width:1.0;"/>
            <text fill="#000000" font-family="sans-serif" font-size="14" lengthAdjust="spacing" textLength="255"
                  x="836.5" y="444.4482">values(): PointsRequirementsType[]
            </text>
            <ellipse cx="827.5" cy="457.3984" fill="#84BE84" rx="3" ry="3" style="stroke:#038048;stroke-width:1.0;"/>
            <text fill="#000000" font-family="sans-serif" font-size="14" lengthAdjust="spacing" textLength="299"
                  x="836.5" y="460.7451">valueOf(String): PointsRequirementsType
            </text>
        </g><!--class PlayableCard-->
        <g id="elem_PlayableCard">
            <rect fill="#F1F1F1" height="48" id="PlayableCard" rx="2.5" ry="2.5"
                  style="stroke:#181818;stroke-width:0.5;" width="125" x="1198.5" y="367"/>
            <ellipse cx="1213.5" cy="383" fill="#ADD1B2" rx="11" ry="11" style="stroke:#181818;stroke-width:1.0;"/>
            <path d="M1215.8438,378.6719 C1214.9063,378.2344 1214.3125,378.0938 1213.4375,378.0938 C1210.8125,378.0938 1208.8125,380.1719 1208.8125,382.8906 L1208.8125,384.0156 C1208.8125,386.5938 1210.9219,388.4844 1213.8125,388.4844 C1215.0313,388.4844 1216.1875,388.1875 1216.9375,387.6406 C1217.5156,387.2344 1217.8438,386.7813 1217.8438,386.3906 C1217.8438,385.9375 1217.4531,385.5469 1216.9844,385.5469 C1216.7656,385.5469 1216.5625,385.625 1216.375,385.8125 C1215.9219,386.2969 1215.9219,386.2969 1215.7344,386.3906 C1215.3125,386.6563 1214.625,386.7813 1213.8594,386.7813 C1211.8125,386.7813 1210.5156,385.6875 1210.5156,383.9844 L1210.5156,382.8906 C1210.5156,381.1094 1211.7656,379.7969 1213.5,379.7969 C1214.0781,379.7969 1214.6875,379.9531 1215.1563,380.2031 C1215.6406,380.4844 1215.8125,380.7031 1215.9063,381.1094 C1215.9688,381.5156 1216,381.6406 1216.1406,381.7656 C1216.2813,381.9063 1216.5156,382.0156 1216.7344,382.0156 C1217,382.0156 1217.2656,381.875 1217.4375,381.6563 C1217.5469,381.5 1217.5781,381.3125 1217.5781,380.8906 L1217.5781,379.4688 C1217.5781,379.0313 1217.5625,378.9063 1217.4688,378.75 C1217.3125,378.4844 1217.0313,378.3438 1216.7344,378.3438 C1216.4375,378.3438 1216.2344,378.4375 1216.0156,378.75 L1215.8438,378.6719 Z "
                  fill="#000000"/>
            <text fill="#000000" font-family="sans-serif" font-size="14" lengthAdjust="spacing" textLength="93"
                  x="1227.5" y="387.8467">PlayableCard
            </text>
            <line style="stroke:#181818;stroke-width:0.5;" x1="1199.5" x2="1322.5" y1="399" y2="399"/>
            <line style="stroke:#181818;stroke-width:0.5;" x1="1199.5" x2="1322.5" y1="407" y2="407"/>
        </g><!--class StarterCard-->
        <g id="elem_StarterCard">
            <rect fill="#F1F1F1" height="48" id="StarterCard" rx="2.5" ry="2.5" style="stroke:#181818;stroke-width:0.5;"
                  width="117" x="1358.5" y="367"/>
            <ellipse cx="1373.5" cy="383" fill="#ADD1B2" rx="11" ry="11" style="stroke:#181818;stroke-width:1.0;"/>
            <path d="M1375.8438,378.6719 C1374.9063,378.2344 1374.3125,378.0938 1373.4375,378.0938 C1370.8125,378.0938 1368.8125,380.1719 1368.8125,382.8906 L1368.8125,384.0156 C1368.8125,386.5938 1370.9219,388.4844 1373.8125,388.4844 C1375.0313,388.4844 1376.1875,388.1875 1376.9375,387.6406 C1377.5156,387.2344 1377.8438,386.7813 1377.8438,386.3906 C1377.8438,385.9375 1377.4531,385.5469 1376.9844,385.5469 C1376.7656,385.5469 1376.5625,385.625 1376.375,385.8125 C1375.9219,386.2969 1375.9219,386.2969 1375.7344,386.3906 C1375.3125,386.6563 1374.625,386.7813 1373.8594,386.7813 C1371.8125,386.7813 1370.5156,385.6875 1370.5156,383.9844 L1370.5156,382.8906 C1370.5156,381.1094 1371.7656,379.7969 1373.5,379.7969 C1374.0781,379.7969 1374.6875,379.9531 1375.1563,380.2031 C1375.6406,380.4844 1375.8125,380.7031 1375.9063,381.1094 C1375.9688,381.5156 1376,381.6406 1376.1406,381.7656 C1376.2813,381.9063 1376.5156,382.0156 1376.7344,382.0156 C1377,382.0156 1377.2656,381.875 1377.4375,381.6563 C1377.5469,381.5 1377.5781,381.3125 1377.5781,380.8906 L1377.5781,379.4688 C1377.5781,379.0313 1377.5625,378.9063 1377.4688,378.75 C1377.3125,378.4844 1377.0313,378.3438 1376.7344,378.3438 C1376.4375,378.3438 1376.2344,378.4375 1376.0156,378.75 L1375.8438,378.6719 Z "
                  fill="#000000"/>
            <text fill="#000000" font-family="sans-serif" font-size="14" lengthAdjust="spacing" textLength="85"
                  x="1387.5" y="387.8467">StarterCard
            </text>
            <line style="stroke:#181818;stroke-width:0.5;" x1="1359.5" x2="1474.5" y1="399" y2="399"/>
            <line style="stroke:#181818;stroke-width:0.5;" x1="1359.5" x2="1474.5" y1="407" y2="407"/>
        </g><!--reverse link FieldCard to PlayableCard-->
        <g id="link_FieldCard_PlayableCard">
            <path codeLine="9" d="M1124.0266,211.6915 C1157.6566,255.4625 1211.89,326.07 1243.28,366.927 " fill="none"
                  id="FieldCard-backto-PlayableCard" style="stroke:#181818;stroke-width:1.0;stroke-dasharray:7.0,7.0;"/>
            <polygon fill="none" points="1113.06,197.418,1119.2688,215.3471,1128.7844,208.036,1113.06,197.418"
                     style="stroke:#181818;stroke-width:1.0;"/>
        </g><!--reverse link FieldCard to StarterCard-->
        <g id="link_FieldCard_StarterCard">
            <path codeLine="10"
                  d="M1158.2019,202.1234 C1210.2619,228.2164 1276.84,264.729 1341,314 C1361.57,329.797 1382.21,350.845 1396.78,366.785 "
                  fill="none" id="FieldCard-backto-StarterCard"
                  style="stroke:#181818;stroke-width:1.0;stroke-dasharray:7.0,7.0;"/>
            <polygon fill="none" points="1142.11,194.058,1155.5134,207.4874,1160.8904,196.7595,1142.11,194.058"
                     style="stroke:#181818;stroke-width:1.0;"/>
        </g><!--reverse link CornerContainer to Availability-->
        <g id="link_CornerContainer_Availability">
            <path d="M304.1035,220.9282 C329.0325,259.2822 358.788,305.059 385.544,346.222 " fill="none"
                  id="CornerContainer-backto-Availability"
                  style="stroke:#181818;stroke-width:1.0;stroke-dasharray:7.0,7.0;"/>
            <polygon fill="none" points="294.294,205.836,299.0728,224.198,309.1342,217.6584,294.294,205.836"
                     style="stroke:#181818;stroke-width:1.0;"/>
        </g><!--reverse link CornerContainer to Color-->
        <g id="link_CornerContainer_Color">
            <path d="M268.3093,223.8135 C266.6293,257.4185 264.983,290.332 262.995,330.107 " fill="none"
                  id="CornerContainer-backto-Color" style="stroke:#181818;stroke-width:1.0;stroke-dasharray:7.0,7.0;"/>
            <polygon fill="none" points="269.208,205.836,262.3167,223.514,274.3018,224.1131,269.208,205.836"
                     style="stroke:#181818;stroke-width:1.0;"/>
        </g><!--reverse link Item to Color-->
        <g id="link_Item_Color">
            <path d="M134.9406,212.1149 C146.2656,228.5709 150.812,235.11 164,254 C181.454,279 200.826,306.492 217.571,330.177 "
                  fill="none" id="Item-backto-Color" style="stroke:#181818;stroke-width:1.0;stroke-dasharray:7.0,7.0;"/>
            <polygon fill="none" points="124.736,197.287,129.9979,215.5164,139.8832,208.7134,124.736,197.287"
                     style="stroke:#181818;stroke-width:1.0;"/>
        </g><!--reverse link CornerContainer to Symbol-->
        <g id="link_CornerContainer_Symbol">
            <path d="M233.3231,220.236 C206.3841,256.155 175.435,297.42 144.885,338.154 " fill="none"
                  id="CornerContainer-backto-Symbol" style="stroke:#181818;stroke-width:1.0;stroke-dasharray:7.0,7.0;"/>
            <polygon fill="none" points="244.123,205.836,228.523,216.6361,238.1231,223.836,244.123,205.836"
                     style="stroke:#181818;stroke-width:1.0;"/>
        </g><!--reverse link Item to Symbol-->
        <g id="link_Item_Symbol">
            <path d="M106,215.418 C106,250.55 106,294.165 106,338.245 " fill="none" id="Item-backto-Symbol"
                  style="stroke:#181818;stroke-width:1.0;stroke-dasharray:7.0,7.0;"/>
            <polygon fill="none" points="106,197.418,100,215.418,112,215.418,106,197.418"
                     style="stroke:#181818;stroke-width:1.0;"/>
        </g><!--SRC=[fLDTRzem57tFh_1Zfqty05GX9QbBcRmuiiC-D4t8W4kzEZQp7IQqyT_d14gS4BMhoakuzvputEDpOn-5sZB3If2mrUF6w4gjKosr0Pi7RTtl1-5u56qznZOSh9XPsr7bXBH_8k1_GZbkxjcAWrl1vJhrEBY-jfn9lfvCeYWwH560_1sDG2xPdYqbhpjzZ3fc_84Dz3-YgJRAqxLoJFW_NXeSjS5a0eva0Du3OUCT4x9MlNet1akj9MUgWVrytIDdZfUTSuu4hgho95UZTSaDSqAhhjGD_f8joDVnkL7Wl5Ct1DGZFDM7GEmqif32xGSaHRcLlEJAsVujjCFCQPmWU2upN2o2rY4qLYV-6f4FpKMrKWJUj9RoESaHREi4pODgIY3CnlqHwBvSQlcc6V8uXoJGGJ6bRNaBu-Bk2G-4yV8dNpcnQnQos6_vi_bUiFr2dK6qe7T-XY1RClCNKRGDd7o4QR58CKB-sVPz0vFBzex9YjjwPozql__eil3z5NL6gCqGkUyv_0PVjDmdXuwd60Mv4qZndAJ11T0Y9aKOoiMi_TC7lFSf9-kX7-q_O4luhqgOuwwyx6hmbT1RMk_FB0r3-Wp9B9lwd4W6IR1RzDkd12Cw5DompdFf3Rznidpu1m00]-->
    </g>
</svg>