<?xml version="1.0" encoding="us-ascii" standalone="no"?>
<svg xmlns="http://www.w3.org/2000/svg" contentStyleType="text/css"
     height="492px" preserveAspectRatio="none" style="width:2622px;height:492px;background:#F8F8FF;" version="1.1"
     viewBox="0 0 2622 492" width="2622px" zoomAndPan="magnify">
    <defs/>
    <g>
        <rect fill="#F8F8FF" height="492" style="stroke:none;stroke-width:1.0;" width="2622" x="0"
              y="0"/><!--cluster decks-->
        <g id="cluster_decks">
            <path d="M8.5,6 L55.5,6 A3.75,3.75 0 0 1 58,8.5 L65,28.2969 L2612.5,28.2969 A2.5,2.5 0 0 1 2615,30.7969 L2615,483 A2.5,2.5 0 0 1 2612.5,485.5 L8.5,485.5 A2.5,2.5 0 0 1 6,483 L6,8.5 A2.5,2.5 0 0 1 8.5,6 "
                  fill="none" style="stroke:#000000;stroke-width:1.5;"/>
            <line style="stroke:#000000;stroke-width:1.5;" x1="6" x2="65" y1="28.2969" y2="28.2969"/>
            <text fill="#000000" font-family="sans-serif" font-size="14" font-weight="bold" lengthAdjust="spacing"
                  textLength="46" x="10" y="20.9951">decks
            </text>
        </g><!--cluster utils-->
        <g id="cluster_utils">
            <path d="M1341.5,209.5 L1379.5,209.5 A3.75,3.75 0 0 1 1382,212 L1389,231.7969 L1729.5,231.7969 A2.5,2.5 0 0 1 1732,234.2969 L1732,459 A2.5,2.5 0 0 1 1729.5,461.5 L1341.5,461.5 A2.5,2.5 0 0 1 1339,459 L1339,212 A2.5,2.5 0 0 1 1341.5,209.5 "
                  fill="none" style="stroke:#000000;stroke-width:1.5;"/>
            <line style="stroke:#000000;stroke-width:1.5;" x1="1339" x2="1389" y1="231.7969" y2="231.7969"/>
            <text fill="#000000" font-family="sans-serif" font-size="14" font-weight="bold" lengthAdjust="spacing"
                  textLength="37" x="1343" y="224.4951">utils
            </text>
        </g><!--cluster factories-->
        <g id="cluster_factories">
            <path d="M1758.5,49 L1833.5,49 A3.75,3.75 0 0 1 1836,51.5 L1843,71.2969 L2588.5,71.2969 A2.5,2.5 0 0 1 2591,73.7969 L2591,310 A2.5,2.5 0 0 1 2588.5,312.5 L1758.5,312.5 A2.5,2.5 0 0 1 1756,310 L1756,51.5 A2.5,2.5 0 0 1 1758.5,49 "
                  fill="none" style="stroke:#000000;stroke-width:1.5;"/>
            <line style="stroke:#000000;stroke-width:1.5;" x1="1756" x2="1843" y1="71.2969" y2="71.2969"/>
            <text fill="#000000" font-family="sans-serif" font-size="14" font-weight="bold" lengthAdjust="spacing"
                  textLength="74" x="1760" y="63.9951">factories
            </text>
        </g><!--class Deck-->
        <g id="elem_Deck">
            <rect codeLine="20" fill="#F1F1F1" height="129.4844" id="Deck" rx="2.5" ry="2.5"
                  style="stroke:#181818;stroke-width:0.5;" width="216" x="706" y="51.5"/>
            <ellipse cx="786.25" cy="67.5" fill="#B4A7E5" rx="11" ry="11" style="stroke:#181818;stroke-width:1.0;"/>
            <path d="M787.2031,64.2813 L788.9219,64.2813 C789.3125,64.2813 789.5,64.25 789.625,64.1719 C789.8906,64.0156 790.0313,63.7344 790.0313,63.4375 C790.0313,63.1719 789.9219,62.9063 789.6875,62.7344 C789.5156,62.625 789.375,62.5938 788.9219,62.5938 L783.7813,62.5938 C783.3438,62.5938 783.2188,62.6094 783.0625,62.7031 C782.8125,62.8594 782.6563,63.1563 782.6563,63.4375 C782.6563,63.7188 782.7969,63.9688 783.0156,64.1406 C783.1719,64.25 783.3594,64.2813 783.7813,64.2813 L785.5,64.2813 L785.5,70.7969 L783.7813,70.7969 C783.3438,70.7969 783.2188,70.8125 783.0625,70.9219 C782.8125,71.0781 782.6563,71.3594 782.6563,71.6563 C782.6563,71.9063 782.7969,72.1719 783.0156,72.3281 C783.1719,72.4531 783.375,72.5 783.7813,72.5 L788.9219,72.5 C789.6719,72.5 790.0313,72.2188 790.0313,71.6563 C790.0313,71.375 789.9219,71.125 789.6875,70.9531 C789.5156,70.8281 789.375,70.7969 788.9219,70.7969 L787.2031,70.7969 L787.2031,64.2813 Z "
                  fill="#000000"/>
            <text fill="#000000" font-family="sans-serif" font-size="14" font-style="italic" lengthAdjust="spacing"
                  textLength="36" x="806.75" y="72.3467">Deck
            </text>
            <rect fill="#F8F8FF" height="15.9688" style="stroke:#181818;stroke-width:1.0;stroke-dasharray:2.0,2.0;"
                  width="9" x="916" y="48.5"/>
            <text fill="#000000" font-family="sans-serif" font-size="12" font-style="italic" lengthAdjust="spacing"
                  textLength="7" x="917" y="60.6387">T
            </text>
            <line style="stroke:#181818;stroke-width:0.5;" x1="707" x2="921" y1="83.5" y2="83.5"/>
            <line style="stroke:#181818;stroke-width:0.5;" x1="707" x2="921" y1="91.5" y2="91.5"/>
            <ellipse cx="717" cy="105.1484" fill="#84BE84" rx="3" ry="3" style="stroke:#038048;stroke-width:1.0;"/>
            <text fill="#000000" font-family="sans-serif" font-size="14" lengthAdjust="spacing" textLength="136" x="726"
                  y="108.4951">shuffle(): Deck&lt;T&gt;
            </text>
            <ellipse cx="717" cy="121.4453" fill="#84BE84" rx="3" ry="3" style="stroke:#038048;stroke-width:1.0;"/>
            <text fill="#000000" font-family="sans-serif" font-size="14" lengthAdjust="spacing" textLength="95" x="726"
                  y="124.792">drawCard(): T
            </text>
            <ellipse cx="717" cy="137.7422" fill="#84BE84" rx="3" ry="3" style="stroke:#038048;stroke-width:1.0;"/>
            <text fill="#000000" font-family="sans-serif" font-size="14" lengthAdjust="spacing" textLength="180" x="726"
                  y="141.0889">getRemainingCards(): int
            </text>
            <ellipse cx="717" cy="154.0391" fill="#84BE84" rx="3" ry="3" style="stroke:#038048;stroke-width:1.0;"/>
            <text fill="#000000" font-family="sans-serif" font-size="14" lengthAdjust="spacing" textLength="190" x="726"
                  y="157.3857">getDeckType(): DeckType
            </text>
            <ellipse cx="717" cy="170.3359" fill="#84BE84" rx="3" ry="3" style="stroke:#038048;stroke-width:1.0;"/>
            <text fill="#000000" font-family="sans-serif" font-size="14" lengthAdjust="spacing" textLength="108" x="726"
                  y="173.6826">addCard(): void
            </text>
        </g><!--class GoldDeck-->
        <g id="elem_GoldDeck">
            <rect codeLine="28" fill="#F1F1F1" height="64.2969" id="GoldDeck" rx="2.5" ry="2.5"
                  style="stroke:#181818;stroke-width:0.5;" width="254" x="22" y="240.5"/>
            <ellipse cx="109.75" cy="256.5" fill="#ADD1B2" rx="11" ry="11" style="stroke:#181818;stroke-width:1.0;"/>
            <path d="M112.0938,252.1719 C111.1563,251.7344 110.5625,251.5938 109.6875,251.5938 C107.0625,251.5938 105.0625,253.6719 105.0625,256.3906 L105.0625,257.5156 C105.0625,260.0938 107.1719,261.9844 110.0625,261.9844 C111.2813,261.9844 112.4375,261.6875 113.1875,261.1406 C113.7656,260.7344 114.0938,260.2813 114.0938,259.8906 C114.0938,259.4375 113.7031,259.0469 113.2344,259.0469 C113.0156,259.0469 112.8125,259.125 112.625,259.3125 C112.1719,259.7969 112.1719,259.7969 111.9844,259.8906 C111.5625,260.1563 110.875,260.2813 110.1094,260.2813 C108.0625,260.2813 106.7656,259.1875 106.7656,257.4844 L106.7656,256.3906 C106.7656,254.6094 108.0156,253.2969 109.75,253.2969 C110.3281,253.2969 110.9375,253.4531 111.4063,253.7031 C111.8906,253.9844 112.0625,254.2031 112.1563,254.6094 C112.2188,255.0156 112.25,255.1406 112.3906,255.2656 C112.5313,255.4063 112.7656,255.5156 112.9844,255.5156 C113.25,255.5156 113.5156,255.375 113.6875,255.1563 C113.7969,255 113.8281,254.8125 113.8281,254.3906 L113.8281,252.9688 C113.8281,252.5313 113.8125,252.4063 113.7188,252.25 C113.5625,251.9844 113.2813,251.8438 112.9844,251.8438 C112.6875,251.8438 112.4844,251.9375 112.2656,252.25 L112.0938,252.1719 Z "
                  fill="#000000"/>
            <text fill="#000000" font-family="sans-serif" font-size="14" lengthAdjust="spacing" textLength="70"
                  x="130.25" y="261.3467">GoldDeck
            </text>
            <line style="stroke:#181818;stroke-width:0.5;" x1="23" x2="275" y1="272.5" y2="272.5"/>
            <rect fill="none" height="6" style="stroke:#C82930;stroke-width:1.0;" width="6" x="30" y="283.1484"/>
            <text fill="#000000" font-family="sans-serif" font-size="14" lengthAdjust="spacing" textLength="228" x="42"
                  y="289.4951">goldCards: Arraylist&lt;GoldCard&gt;
            </text>
            <line style="stroke:#181818;stroke-width:0.5;" x1="23" x2="275" y1="296.7969" y2="296.7969"/>
        </g><!--class ResourceDeck-->
        <g id="elem_ResourceDeck">
            <rect codeLine="32" fill="#F1F1F1" height="64.2969" id="ResourceDeck" rx="2.5" ry="2.5"
                  style="stroke:#181818;stroke-width:0.5;" width="322" x="311" y="240.5"/>
            <ellipse cx="416.25" cy="256.5" fill="#ADD1B2" rx="11" ry="11" style="stroke:#181818;stroke-width:1.0;"/>
            <path d="M418.5938,252.1719 C417.6563,251.7344 417.0625,251.5938 416.1875,251.5938 C413.5625,251.5938 411.5625,253.6719 411.5625,256.3906 L411.5625,257.5156 C411.5625,260.0938 413.6719,261.9844 416.5625,261.9844 C417.7813,261.9844 418.9375,261.6875 419.6875,261.1406 C420.2656,260.7344 420.5938,260.2813 420.5938,259.8906 C420.5938,259.4375 420.2031,259.0469 419.7344,259.0469 C419.5156,259.0469 419.3125,259.125 419.125,259.3125 C418.6719,259.7969 418.6719,259.7969 418.4844,259.8906 C418.0625,260.1563 417.375,260.2813 416.6094,260.2813 C414.5625,260.2813 413.2656,259.1875 413.2656,257.4844 L413.2656,256.3906 C413.2656,254.6094 414.5156,253.2969 416.25,253.2969 C416.8281,253.2969 417.4375,253.4531 417.9063,253.7031 C418.3906,253.9844 418.5625,254.2031 418.6563,254.6094 C418.7188,255.0156 418.75,255.1406 418.8906,255.2656 C419.0313,255.4063 419.2656,255.5156 419.4844,255.5156 C419.75,255.5156 420.0156,255.375 420.1875,255.1563 C420.2969,255 420.3281,254.8125 420.3281,254.3906 L420.3281,252.9688 C420.3281,252.5313 420.3125,252.4063 420.2188,252.25 C420.0625,251.9844 419.7813,251.8438 419.4844,251.8438 C419.1875,251.8438 418.9844,251.9375 418.7656,252.25 L418.5938,252.1719 Z "
                  fill="#000000"/>
            <text fill="#000000" font-family="sans-serif" font-size="14" lengthAdjust="spacing" textLength="103"
                  x="436.75" y="261.3467">ResourceDeck
            </text>
            <line style="stroke:#181818;stroke-width:0.5;" x1="312" x2="632" y1="272.5" y2="272.5"/>
            <rect fill="none" height="6" style="stroke:#C82930;stroke-width:1.0;" width="6" x="319" y="283.1484"/>
            <text fill="#000000" font-family="sans-serif" font-size="14" lengthAdjust="spacing" textLength="296" x="331"
                  y="289.4951">resourceCards: Arraylist&lt;ResourceDeck&gt;
            </text>
            <line style="stroke:#181818;stroke-width:0.5;" x1="312" x2="632" y1="296.7969" y2="296.7969"/>
        </g><!--class StarterDeck-->
        <g id="elem_StarterDeck">
            <rect codeLine="36" fill="#F1F1F1" height="64.2969" id="StarterDeck" rx="2.5" ry="2.5"
                  style="stroke:#181818;stroke-width:0.5;" width="292" x="668" y="240.5"/>
            <ellipse cx="765.25" cy="256.5" fill="#ADD1B2" rx="11" ry="11" style="stroke:#181818;stroke-width:1.0;"/>
            <path d="M767.5938,252.1719 C766.6563,251.7344 766.0625,251.5938 765.1875,251.5938 C762.5625,251.5938 760.5625,253.6719 760.5625,256.3906 L760.5625,257.5156 C760.5625,260.0938 762.6719,261.9844 765.5625,261.9844 C766.7813,261.9844 767.9375,261.6875 768.6875,261.1406 C769.2656,260.7344 769.5938,260.2813 769.5938,259.8906 C769.5938,259.4375 769.2031,259.0469 768.7344,259.0469 C768.5156,259.0469 768.3125,259.125 768.125,259.3125 C767.6719,259.7969 767.6719,259.7969 767.4844,259.8906 C767.0625,260.1563 766.375,260.2813 765.6094,260.2813 C763.5625,260.2813 762.2656,259.1875 762.2656,257.4844 L762.2656,256.3906 C762.2656,254.6094 763.5156,253.2969 765.25,253.2969 C765.8281,253.2969 766.4375,253.4531 766.9063,253.7031 C767.3906,253.9844 767.5625,254.2031 767.6563,254.6094 C767.7188,255.0156 767.75,255.1406 767.8906,255.2656 C768.0313,255.4063 768.2656,255.5156 768.4844,255.5156 C768.75,255.5156 769.0156,255.375 769.1875,255.1563 C769.2969,255 769.3281,254.8125 769.3281,254.3906 L769.3281,252.9688 C769.3281,252.5313 769.3125,252.4063 769.2188,252.25 C769.0625,251.9844 768.7813,251.8438 768.4844,251.8438 C768.1875,251.8438 767.9844,251.9375 767.7656,252.25 L767.5938,252.1719 Z "
                  fill="#000000"/>
            <text fill="#000000" font-family="sans-serif" font-size="14" lengthAdjust="spacing" textLength="89"
                  x="785.75" y="261.3467">StarterDeck
            </text>
            <line style="stroke:#181818;stroke-width:0.5;" x1="669" x2="959" y1="272.5" y2="272.5"/>
            <rect fill="none" height="6" style="stroke:#C82930;stroke-width:1.0;" width="6" x="676" y="283.1484"/>
            <text fill="#000000" font-family="sans-serif" font-size="14" lengthAdjust="spacing" textLength="266" x="688"
                  y="289.4951">starterCards: Arraylist&lt;StarterCard&gt;
            </text>
            <line style="stroke:#181818;stroke-width:0.5;" x1="669" x2="959" y1="296.7969" y2="296.7969"/>
        </g><!--class ObjectiveDeck-->
        <g id="elem_ObjectiveDeck">
            <rect codeLine="40" fill="#F1F1F1" height="64.2969" id="ObjectiveDeck" rx="2.5" ry="2.5"
                  style="stroke:#181818;stroke-width:0.5;" width="328" x="995" y="240.5"/>
            <ellipse cx="1101.25" cy="256.5" fill="#ADD1B2" rx="11" ry="11" style="stroke:#181818;stroke-width:1.0;"/>
            <path d="M1103.5938,252.1719 C1102.6563,251.7344 1102.0625,251.5938 1101.1875,251.5938 C1098.5625,251.5938 1096.5625,253.6719 1096.5625,256.3906 L1096.5625,257.5156 C1096.5625,260.0938 1098.6719,261.9844 1101.5625,261.9844 C1102.7813,261.9844 1103.9375,261.6875 1104.6875,261.1406 C1105.2656,260.7344 1105.5938,260.2813 1105.5938,259.8906 C1105.5938,259.4375 1105.2031,259.0469 1104.7344,259.0469 C1104.5156,259.0469 1104.3125,259.125 1104.125,259.3125 C1103.6719,259.7969 1103.6719,259.7969 1103.4844,259.8906 C1103.0625,260.1563 1102.375,260.2813 1101.6094,260.2813 C1099.5625,260.2813 1098.2656,259.1875 1098.2656,257.4844 L1098.2656,256.3906 C1098.2656,254.6094 1099.5156,253.2969 1101.25,253.2969 C1101.8281,253.2969 1102.4375,253.4531 1102.9063,253.7031 C1103.3906,253.9844 1103.5625,254.2031 1103.6563,254.6094 C1103.7188,255.0156 1103.75,255.1406 1103.8906,255.2656 C1104.0313,255.4063 1104.2656,255.5156 1104.4844,255.5156 C1104.75,255.5156 1105.0156,255.375 1105.1875,255.1563 C1105.2969,255 1105.3281,254.8125 1105.3281,254.3906 L1105.3281,252.9688 C1105.3281,252.5313 1105.3125,252.4063 1105.2188,252.25 C1105.0625,251.9844 1104.7813,251.8438 1104.4844,251.8438 C1104.1875,251.8438 1103.9844,251.9375 1103.7656,252.25 L1103.5938,252.1719 Z "
                  fill="#000000"/>
            <text fill="#000000" font-family="sans-serif" font-size="14" lengthAdjust="spacing" textLength="107"
                  x="1121.75" y="261.3467">ObjectiveDeck
            </text>
            <line style="stroke:#181818;stroke-width:0.5;" x1="996" x2="1322" y1="272.5" y2="272.5"/>
            <rect fill="none" height="6" style="stroke:#C82930;stroke-width:1.0;" width="6" x="1003" y="283.1484"/>
            <text fill="#000000" font-family="sans-serif" font-size="14" lengthAdjust="spacing" textLength="302"
                  x="1015" y="289.4951">objectiveCards: Arraylist&lt;ObjectiveCard&gt;
            </text>
            <line style="stroke:#181818;stroke-width:0.5;" x1="996" x2="1322" y1="296.7969" y2="296.7969"/>
        </g><!--class DeckType-->
        <g id="elem_DeckType">
            <rect codeLine="5" fill="#F1F1F1" height="56.2656" id="DeckType" rx="2.5" ry="2.5"
                  style="stroke:#181818;stroke-width:0.5;" width="103" x="1485.5" y="244.5"/>
            <ellipse cx="1500.5" cy="264.6328" fill="#B4A7E5" rx="11" ry="11" style="stroke:#181818;stroke-width:1.0;"/>
            <path d="M1501.4531,261.4141 L1503.1719,261.4141 C1503.5625,261.4141 1503.75,261.3828 1503.875,261.3047 C1504.1406,261.1484 1504.2813,260.8672 1504.2813,260.5703 C1504.2813,260.3047 1504.1719,260.0391 1503.9375,259.8672 C1503.7656,259.7578 1503.625,259.7266 1503.1719,259.7266 L1498.0313,259.7266 C1497.5938,259.7266 1497.4688,259.7422 1497.3125,259.8359 C1497.0625,259.9922 1496.9063,260.2891 1496.9063,260.5703 C1496.9063,260.8516 1497.0469,261.1016 1497.2656,261.2734 C1497.4219,261.3828 1497.6094,261.4141 1498.0313,261.4141 L1499.75,261.4141 L1499.75,267.9297 L1498.0313,267.9297 C1497.5938,267.9297 1497.4688,267.9453 1497.3125,268.0547 C1497.0625,268.2109 1496.9063,268.4922 1496.9063,268.7891 C1496.9063,269.0391 1497.0469,269.3047 1497.2656,269.4609 C1497.4219,269.5859 1497.625,269.6328 1498.0313,269.6328 L1503.1719,269.6328 C1503.9219,269.6328 1504.2813,269.3516 1504.2813,268.7891 C1504.2813,268.5078 1504.1719,268.2578 1503.9375,268.0859 C1503.7656,267.9609 1503.625,267.9297 1503.1719,267.9297 L1501.4531,267.9297 L1501.4531,261.4141 Z "
                  fill="#000000"/>
            <text fill="#000000" font-family="sans-serif" font-size="12" font-style="italic" lengthAdjust="spacing"
                  textLength="52" x="1524" y="260.6387">&#171;sealed&#187;
            </text>
            <text fill="#000000" font-family="sans-serif" font-size="14" font-style="italic" lengthAdjust="spacing"
                  textLength="71" x="1514.5" y="276.4639">DeckType
            </text>
            <line style="stroke:#181818;stroke-width:0.5;" x1="1486.5" x2="1587.5" y1="284.7656" y2="284.7656"/>
            <line style="stroke:#181818;stroke-width:0.5;" x1="1486.5" x2="1587.5" y1="292.7656" y2="292.7656"/>
        </g><!--class PlayableDeckType-->
        <g id="elem_PlayableDeckType">
            <rect codeLine="9" fill="#F1F1F1" height="80.5938" id="PlayableDeckType" rx="2.5" ry="2.5"
                  style="stroke:#181818;stroke-width:0.5;" width="165" x="1355.5" y="364.5"/>
            <ellipse cx="1370.5" cy="380.5" fill="#EB937F" rx="11" ry="11" style="stroke:#181818;stroke-width:1.0;"/>
            <path d="M1369.2969,381.375 L1370.75,381.375 L1370.75,381.4844 C1370.75,381.8906 1370.7813,382.0469 1370.8594,382.2031 C1371.0156,382.4531 1371.2969,382.6094 1371.5938,382.6094 C1371.8438,382.6094 1372.1094,382.4688 1372.2656,382.25 C1372.3906,382.0938 1372.4219,381.9375 1372.4219,381.4844 L1372.4219,379.5625 C1372.4219,379.4063 1372.4219,379.3594 1372.4063,379.2031 C1372.3438,378.7344 1372.0313,378.4219 1371.5781,378.4219 C1371.3281,378.4219 1371.0625,378.5625 1370.8906,378.7813 C1370.7813,378.9531 1370.75,379.1094 1370.75,379.5625 L1370.75,379.6875 L1369.2969,379.6875 L1369.2969,377.2813 L1373.2813,377.2813 L1373.2813,378.1406 C1373.2813,378.5469 1373.3125,378.7188 1373.3906,378.875 C1373.5625,379.125 1373.8438,379.2813 1374.125,379.2813 C1374.3906,379.2813 1374.6563,379.1406 1374.8281,378.9219 C1374.9375,378.75 1374.9688,378.6094 1374.9688,378.1406 L1374.9688,375.5938 L1367.3438,375.5938 C1366.9063,375.5938 1366.7813,375.6094 1366.625,375.7031 C1366.375,375.8594 1366.2188,376.1563 1366.2188,376.4375 C1366.2188,376.7188 1366.3594,376.9688 1366.5781,377.1406 C1366.7344,377.25 1366.9219,377.2813 1367.3438,377.2813 L1367.5938,377.2813 L1367.5938,383.7969 L1367.3438,383.7969 C1366.9375,383.7969 1366.7813,383.8125 1366.625,383.9219 C1366.375,384.0938 1366.2188,384.3594 1366.2188,384.6563 C1366.2188,384.9219 1366.3594,385.1719 1366.5781,385.3281 C1366.7188,385.4531 1366.9531,385.5 1367.3438,385.5 L1375.3438,385.5 L1375.3438,382.9219 C1375.3438,382.4844 1375.3125,382.3438 1375.2344,382.1875 C1375.0625,381.9375 1374.7813,381.7813 1374.5,381.7813 C1374.2344,381.7813 1373.9688,381.8906 1373.7969,382.1406 C1373.6875,382.2969 1373.6563,382.4375 1373.6563,382.9219 L1373.6563,383.7969 L1369.2969,383.7969 L1369.2969,381.375 Z "
                  fill="#000000"/>
            <text fill="#000000" font-family="sans-serif" font-size="14" lengthAdjust="spacing" textLength="133"
                  x="1384.5" y="385.3467">PlayableDeckType
            </text>
            <line style="stroke:#181818;stroke-width:0.5;" x1="1356.5" x2="1519.5" y1="396.5" y2="396.5"/>
            <text fill="#000000" font-family="sans-serif" font-size="14" lengthAdjust="spacing" textLength="41"
                  x="1361.5" y="413.4951">GOLD
            </text>
            <text fill="#000000" font-family="sans-serif" font-size="14" lengthAdjust="spacing" textLength="77"
                  x="1361.5" y="429.792">RESOURCE
            </text>
            <line style="stroke:#181818;stroke-width:0.5;" x1="1356.5" x2="1519.5" y1="437.0938" y2="437.0938"/>
        </g><!--class UtilitiesDeckType-->
        <g id="elem_UtilitiesDeckType">
            <rect codeLine="14" fill="#F1F1F1" height="80.5938" id="UtilitiesDeckType" rx="2.5" ry="2.5"
                  style="stroke:#181818;stroke-width:0.5;" width="160" x="1556" y="364.5"/>
            <ellipse cx="1571" cy="380.5" fill="#EB937F" rx="11" ry="11" style="stroke:#181818;stroke-width:1.0;"/>
            <path d="M1569.7969,381.375 L1571.25,381.375 L1571.25,381.4844 C1571.25,381.8906 1571.2813,382.0469 1571.3594,382.2031 C1571.5156,382.4531 1571.7969,382.6094 1572.0938,382.6094 C1572.3438,382.6094 1572.6094,382.4688 1572.7656,382.25 C1572.8906,382.0938 1572.9219,381.9375 1572.9219,381.4844 L1572.9219,379.5625 C1572.9219,379.4063 1572.9219,379.3594 1572.9063,379.2031 C1572.8438,378.7344 1572.5313,378.4219 1572.0781,378.4219 C1571.8281,378.4219 1571.5625,378.5625 1571.3906,378.7813 C1571.2813,378.9531 1571.25,379.1094 1571.25,379.5625 L1571.25,379.6875 L1569.7969,379.6875 L1569.7969,377.2813 L1573.7813,377.2813 L1573.7813,378.1406 C1573.7813,378.5469 1573.8125,378.7188 1573.8906,378.875 C1574.0625,379.125 1574.3438,379.2813 1574.625,379.2813 C1574.8906,379.2813 1575.1563,379.1406 1575.3281,378.9219 C1575.4375,378.75 1575.4688,378.6094 1575.4688,378.1406 L1575.4688,375.5938 L1567.8438,375.5938 C1567.4063,375.5938 1567.2813,375.6094 1567.125,375.7031 C1566.875,375.8594 1566.7188,376.1563 1566.7188,376.4375 C1566.7188,376.7188 1566.8594,376.9688 1567.0781,377.1406 C1567.2344,377.25 1567.4219,377.2813 1567.8438,377.2813 L1568.0938,377.2813 L1568.0938,383.7969 L1567.8438,383.7969 C1567.4375,383.7969 1567.2813,383.8125 1567.125,383.9219 C1566.875,384.0938 1566.7188,384.3594 1566.7188,384.6563 C1566.7188,384.9219 1566.8594,385.1719 1567.0781,385.3281 C1567.2188,385.4531 1567.4531,385.5 1567.8438,385.5 L1575.8438,385.5 L1575.8438,382.9219 C1575.8438,382.4844 1575.8125,382.3438 1575.7344,382.1875 C1575.5625,381.9375 1575.2813,381.7813 1575,381.7813 C1574.7344,381.7813 1574.4688,381.8906 1574.2969,382.1406 C1574.1875,382.2969 1574.1563,382.4375 1574.1563,382.9219 L1574.1563,383.7969 L1569.7969,383.7969 L1569.7969,381.375 Z "
                  fill="#000000"/>
            <text fill="#000000" font-family="sans-serif" font-size="14" lengthAdjust="spacing" textLength="128"
                  x="1585" y="385.3467">UtilitiesDeckType
            </text>
            <line style="stroke:#181818;stroke-width:0.5;" x1="1557" x2="1715" y1="396.5" y2="396.5"/>
            <text fill="#000000" font-family="sans-serif" font-size="14" lengthAdjust="spacing" textLength="66" x="1562"
                  y="413.4951">STARTER
            </text>
            <text fill="#000000" font-family="sans-serif" font-size="14" lengthAdjust="spacing" textLength="76" x="1562"
                  y="429.792">OBJECTIVE
            </text>
            <line style="stroke:#181818;stroke-width:0.5;" x1="1557" x2="1715" y1="437.0938" y2="437.0938"/>
        </g><!--class DeckFactory-->
        <g id="elem_DeckFactory">
            <rect codeLine="46" fill="#F1F1F1" height="64.2969" id="DeckFactory" rx="2.5" ry="2.5"
                  style="stroke:#181818;stroke-width:0.5;" width="270" x="1917" y="84"/>
            <ellipse cx="1997.75" cy="100" fill="#B4A7E5" rx="11" ry="11" style="stroke:#181818;stroke-width:1.0;"/>
            <path d="M1998.7031,96.7813 L2000.4219,96.7813 C2000.8125,96.7813 2001,96.75 2001.125,96.6719 C2001.3906,96.5156 2001.5313,96.2344 2001.5313,95.9375 C2001.5313,95.6719 2001.4219,95.4063 2001.1875,95.2344 C2001.0156,95.125 2000.875,95.0938 2000.4219,95.0938 L1995.2813,95.0938 C1994.8438,95.0938 1994.7188,95.1094 1994.5625,95.2031 C1994.3125,95.3594 1994.1563,95.6563 1994.1563,95.9375 C1994.1563,96.2188 1994.2969,96.4688 1994.5156,96.6406 C1994.6719,96.75 1994.8594,96.7813 1995.2813,96.7813 L1997,96.7813 L1997,103.2969 L1995.2813,103.2969 C1994.8438,103.2969 1994.7188,103.3125 1994.5625,103.4219 C1994.3125,103.5781 1994.1563,103.8594 1994.1563,104.1563 C1994.1563,104.4063 1994.2969,104.6719 1994.5156,104.8281 C1994.6719,104.9531 1994.875,105 1995.2813,105 L2000.4219,105 C2001.1719,105 2001.5313,104.7188 2001.5313,104.1563 C2001.5313,103.875 2001.4219,103.625 2001.1875,103.4531 C2001.0156,103.3281 2000.875,103.2969 2000.4219,103.2969 L1998.7031,103.2969 L1998.7031,96.7813 Z "
                  fill="#000000"/>
            <text fill="#000000" font-family="sans-serif" font-size="14" font-style="italic" lengthAdjust="spacing"
                  textLength="89" x="2018.25" y="104.8467">DeckFactory
            </text>
            <rect fill="#F8F8FF" height="15.9688" style="stroke:#181818;stroke-width:1.0;stroke-dasharray:2.0,2.0;"
                  width="9" x="2181" y="81"/>
            <text fill="#000000" font-family="sans-serif" font-size="12" font-style="italic" lengthAdjust="spacing"
                  textLength="7" x="2182" y="93.1387">T
            </text>
            <line style="stroke:#181818;stroke-width:0.5;" x1="1918" x2="2186" y1="116" y2="116"/>
            <line style="stroke:#181818;stroke-width:0.5;" x1="1918" x2="2186" y1="124" y2="124"/>
            <ellipse cx="1928" cy="137.6484" fill="#84BE84" rx="3" ry="3" style="stroke:#038048;stroke-width:1.0;"/>
            <text fill="#000000" font-family="sans-serif" font-size="14" lengthAdjust="spacing" textLength="244"
                  x="1937" y="140.9951">createDeck(DeckType): Deck&lt;T&gt;
            </text>
        </g><!--class GoldCardFactory-->
        <g id="elem_GoldCardFactory">
            <rect codeLine="50" fill="#F1F1F1" height="48" id="GoldCardFactory" rx="2.5" ry="2.5"
                  style="stroke:#181818;stroke-width:0.5;" width="152" x="1772" y="248.5"/>
            <ellipse cx="1787" cy="264.5" fill="#ADD1B2" rx="11" ry="11" style="stroke:#181818;stroke-width:1.0;"/>
            <path d="M1789.3438,260.1719 C1788.4063,259.7344 1787.8125,259.5938 1786.9375,259.5938 C1784.3125,259.5938 1782.3125,261.6719 1782.3125,264.3906 L1782.3125,265.5156 C1782.3125,268.0938 1784.4219,269.9844 1787.3125,269.9844 C1788.5313,269.9844 1789.6875,269.6875 1790.4375,269.1406 C1791.0156,268.7344 1791.3438,268.2813 1791.3438,267.8906 C1791.3438,267.4375 1790.9531,267.0469 1790.4844,267.0469 C1790.2656,267.0469 1790.0625,267.125 1789.875,267.3125 C1789.4219,267.7969 1789.4219,267.7969 1789.2344,267.8906 C1788.8125,268.1563 1788.125,268.2813 1787.3594,268.2813 C1785.3125,268.2813 1784.0156,267.1875 1784.0156,265.4844 L1784.0156,264.3906 C1784.0156,262.6094 1785.2656,261.2969 1787,261.2969 C1787.5781,261.2969 1788.1875,261.4531 1788.6563,261.7031 C1789.1406,261.9844 1789.3125,262.2031 1789.4063,262.6094 C1789.4688,263.0156 1789.5,263.1406 1789.6406,263.2656 C1789.7813,263.4063 1790.0156,263.5156 1790.2344,263.5156 C1790.5,263.5156 1790.7656,263.375 1790.9375,263.1563 C1791.0469,263 1791.0781,262.8125 1791.0781,262.3906 L1791.0781,260.9688 C1791.0781,260.5313 1791.0625,260.4063 1790.9688,260.25 C1790.8125,259.9844 1790.5313,259.8438 1790.2344,259.8438 C1789.9375,259.8438 1789.7344,259.9375 1789.5156,260.25 L1789.3438,260.1719 Z "
                  fill="#000000"/>
            <text fill="#000000" font-family="sans-serif" font-size="14" lengthAdjust="spacing" textLength="120"
                  x="1801" y="269.3467">GoldCardFactory
            </text>
            <line style="stroke:#181818;stroke-width:0.5;" x1="1773" x2="1923" y1="280.5" y2="280.5"/>
            <line style="stroke:#181818;stroke-width:0.5;" x1="1773" x2="1923" y1="288.5" y2="288.5"/>
        </g><!--class ResourceCardFactory-->
        <g id="elem_ResourceCardFactory">
            <rect codeLine="52" fill="#F1F1F1" height="48" id="ResourceCardFactory" rx="2.5" ry="2.5"
                  style="stroke:#181818;stroke-width:0.5;" width="185" x="1959.5" y="248.5"/>
            <ellipse cx="1974.5" cy="264.5" fill="#ADD1B2" rx="11" ry="11" style="stroke:#181818;stroke-width:1.0;"/>
            <path d="M1976.8438,260.1719 C1975.9063,259.7344 1975.3125,259.5938 1974.4375,259.5938 C1971.8125,259.5938 1969.8125,261.6719 1969.8125,264.3906 L1969.8125,265.5156 C1969.8125,268.0938 1971.9219,269.9844 1974.8125,269.9844 C1976.0313,269.9844 1977.1875,269.6875 1977.9375,269.1406 C1978.5156,268.7344 1978.8438,268.2813 1978.8438,267.8906 C1978.8438,267.4375 1978.4531,267.0469 1977.9844,267.0469 C1977.7656,267.0469 1977.5625,267.125 1977.375,267.3125 C1976.9219,267.7969 1976.9219,267.7969 1976.7344,267.8906 C1976.3125,268.1563 1975.625,268.2813 1974.8594,268.2813 C1972.8125,268.2813 1971.5156,267.1875 1971.5156,265.4844 L1971.5156,264.3906 C1971.5156,262.6094 1972.7656,261.2969 1974.5,261.2969 C1975.0781,261.2969 1975.6875,261.4531 1976.1563,261.7031 C1976.6406,261.9844 1976.8125,262.2031 1976.9063,262.6094 C1976.9688,263.0156 1977,263.1406 1977.1406,263.2656 C1977.2813,263.4063 1977.5156,263.5156 1977.7344,263.5156 C1978,263.5156 1978.2656,263.375 1978.4375,263.1563 C1978.5469,263 1978.5781,262.8125 1978.5781,262.3906 L1978.5781,260.9688 C1978.5781,260.5313 1978.5625,260.4063 1978.4688,260.25 C1978.3125,259.9844 1978.0313,259.8438 1977.7344,259.8438 C1977.4375,259.8438 1977.2344,259.9375 1977.0156,260.25 L1976.8438,260.1719 Z "
                  fill="#000000"/>
            <text fill="#000000" font-family="sans-serif" font-size="14" lengthAdjust="spacing" textLength="153"
                  x="1988.5" y="269.3467">ResourceCardFactory
            </text>
            <line style="stroke:#181818;stroke-width:0.5;" x1="1960.5" x2="2143.5" y1="280.5" y2="280.5"/>
            <line style="stroke:#181818;stroke-width:0.5;" x1="1960.5" x2="2143.5" y1="288.5" y2="288.5"/>
        </g><!--class StarterCardFactory-->
        <g id="elem_StarterCardFactory">
            <rect codeLine="54" fill="#F1F1F1" height="48" id="StarterCardFactory" rx="2.5" ry="2.5"
                  style="stroke:#181818;stroke-width:0.5;" width="171" x="2179.5" y="248.5"/>
            <ellipse cx="2194.5" cy="264.5" fill="#ADD1B2" rx="11" ry="11" style="stroke:#181818;stroke-width:1.0;"/>
            <path d="M2196.8438,260.1719 C2195.9063,259.7344 2195.3125,259.5938 2194.4375,259.5938 C2191.8125,259.5938 2189.8125,261.6719 2189.8125,264.3906 L2189.8125,265.5156 C2189.8125,268.0938 2191.9219,269.9844 2194.8125,269.9844 C2196.0313,269.9844 2197.1875,269.6875 2197.9375,269.1406 C2198.5156,268.7344 2198.8438,268.2813 2198.8438,267.8906 C2198.8438,267.4375 2198.4531,267.0469 2197.9844,267.0469 C2197.7656,267.0469 2197.5625,267.125 2197.375,267.3125 C2196.9219,267.7969 2196.9219,267.7969 2196.7344,267.8906 C2196.3125,268.1563 2195.625,268.2813 2194.8594,268.2813 C2192.8125,268.2813 2191.5156,267.1875 2191.5156,265.4844 L2191.5156,264.3906 C2191.5156,262.6094 2192.7656,261.2969 2194.5,261.2969 C2195.0781,261.2969 2195.6875,261.4531 2196.1563,261.7031 C2196.6406,261.9844 2196.8125,262.2031 2196.9063,262.6094 C2196.9688,263.0156 2197,263.1406 2197.1406,263.2656 C2197.2813,263.4063 2197.5156,263.5156 2197.7344,263.5156 C2198,263.5156 2198.2656,263.375 2198.4375,263.1563 C2198.5469,263 2198.5781,262.8125 2198.5781,262.3906 L2198.5781,260.9688 C2198.5781,260.5313 2198.5625,260.4063 2198.4688,260.25 C2198.3125,259.9844 2198.0313,259.8438 2197.7344,259.8438 C2197.4375,259.8438 2197.2344,259.9375 2197.0156,260.25 L2196.8438,260.1719 Z "
                  fill="#000000"/>
            <text fill="#000000" font-family="sans-serif" font-size="14" lengthAdjust="spacing" textLength="139"
                  x="2208.5" y="269.3467">StarterCardFactory
            </text>
            <line style="stroke:#181818;stroke-width:0.5;" x1="2180.5" x2="2349.5" y1="280.5" y2="280.5"/>
            <line style="stroke:#181818;stroke-width:0.5;" x1="2180.5" x2="2349.5" y1="288.5" y2="288.5"/>
        </g><!--class ObjectiveCardFactory-->
        <g id="elem_ObjectiveCardFactory">
            <rect codeLine="56" fill="#F1F1F1" height="48" id="ObjectiveCardFactory" rx="2.5" ry="2.5"
                  style="stroke:#181818;stroke-width:0.5;" width="189" x="2385.5" y="248.5"/>
            <ellipse cx="2400.5" cy="264.5" fill="#ADD1B2" rx="11" ry="11" style="stroke:#181818;stroke-width:1.0;"/>
            <path d="M2402.8438,260.1719 C2401.9063,259.7344 2401.3125,259.5938 2400.4375,259.5938 C2397.8125,259.5938 2395.8125,261.6719 2395.8125,264.3906 L2395.8125,265.5156 C2395.8125,268.0938 2397.9219,269.9844 2400.8125,269.9844 C2402.0313,269.9844 2403.1875,269.6875 2403.9375,269.1406 C2404.5156,268.7344 2404.8438,268.2813 2404.8438,267.8906 C2404.8438,267.4375 2404.4531,267.0469 2403.9844,267.0469 C2403.7656,267.0469 2403.5625,267.125 2403.375,267.3125 C2402.9219,267.7969 2402.9219,267.7969 2402.7344,267.8906 C2402.3125,268.1563 2401.625,268.2813 2400.8594,268.2813 C2398.8125,268.2813 2397.5156,267.1875 2397.5156,265.4844 L2397.5156,264.3906 C2397.5156,262.6094 2398.7656,261.2969 2400.5,261.2969 C2401.0781,261.2969 2401.6875,261.4531 2402.1563,261.7031 C2402.6406,261.9844 2402.8125,262.2031 2402.9063,262.6094 C2402.9688,263.0156 2403,263.1406 2403.1406,263.2656 C2403.2813,263.4063 2403.5156,263.5156 2403.7344,263.5156 C2404,263.5156 2404.2656,263.375 2404.4375,263.1563 C2404.5469,263 2404.5781,262.8125 2404.5781,262.3906 L2404.5781,260.9688 C2404.5781,260.5313 2404.5625,260.4063 2404.4688,260.25 C2404.3125,259.9844 2404.0313,259.8438 2403.7344,259.8438 C2403.4375,259.8438 2403.2344,259.9375 2403.0156,260.25 L2402.8438,260.1719 Z "
                  fill="#000000"/>
            <text fill="#000000" font-family="sans-serif" font-size="14" lengthAdjust="spacing" textLength="157"
                  x="2414.5" y="269.3467">ObjectiveCardFactory
            </text>
            <line style="stroke:#181818;stroke-width:0.5;" x1="2386.5" x2="2573.5" y1="280.5" y2="280.5"/>
            <line style="stroke:#181818;stroke-width:0.5;" x1="2386.5" x2="2573.5" y1="288.5" y2="288.5"/>
        </g><!--reverse link DeckType to PlayableDeckType-->
        <g id="link_DeckType_PlayableDeckType">
            <path d="M1505.6105,314.8801 C1491.6205,333.3201 1483.74,343.707 1468.07,364.363 " fill="none"
                  id="DeckType-backto-PlayableDeckType"
                  style="stroke:#181818;stroke-width:1.0;stroke-dasharray:7.0,7.0;"/>
            <polygon fill="none" points="1516.49,300.54,1500.8305,311.2536,1510.3906,318.5065,1516.49,300.54"
                     style="stroke:#181818;stroke-width:1.0;"/>
        </g><!--reverse link DeckType to UtilitiesDeckType-->
        <g id="link_DeckType_UtilitiesDeckType">
            <path d="M1568.3895,314.8801 C1582.3795,333.3201 1590.26,343.707 1605.93,364.363 " fill="none"
                  id="DeckType-backto-UtilitiesDeckType"
                  style="stroke:#181818;stroke-width:1.0;stroke-dasharray:7.0,7.0;"/>
            <polygon fill="none" points="1557.51,300.54,1563.6094,318.5065,1573.1695,311.2536,1557.51,300.54"
                     style="stroke:#181818;stroke-width:1.0;"/>
        </g><!--reverse link Deck to GoldDeck-->
        <g id="link_Deck_GoldDeck">
            <path d="M687.9414,127.0151 C581.0604,137.3421 431.792,157.556 293,201.5 C262.259,211.233 229.811,226.518 203.514,240.325 "
                  fill="none" id="Deck-backto-GoldDeck"
                  style="stroke:#181818;stroke-width:1.0;stroke-dasharray:7.0,7.0;"/>
            <polygon fill="none" points="705.858,125.284,687.3644,121.0429,688.5185,132.9873,705.858,125.284"
                     style="stroke:#181818;stroke-width:1.0;"/>
        </g><!--reverse link Deck to ResourceDeck-->
        <g id="link_Deck_ResourceDeck">
            <path d="M689.3852,173.2956 C635.3742,197.6956 588.061,219.069 540.797,240.42 " fill="none"
                  id="Deck-backto-ResourceDeck" style="stroke:#181818;stroke-width:1.0;stroke-dasharray:7.0,7.0;"/>
            <polygon fill="none" points="705.789,165.885,686.915,167.8276,691.8554,178.7635,705.789,165.885"
                     style="stroke:#181818;stroke-width:1.0;"/>
        </g><!--reverse link Deck to StarterDeck-->
        <g id="link_Deck_StarterDeck">
            <path d="M814,198.733 C814,219.347 814,223.287 814,240.432 " fill="none" id="Deck-backto-StarterDeck"
                  style="stroke:#181818;stroke-width:1.0;stroke-dasharray:7.0,7.0;"/>
            <polygon fill="none" points="814,180.733,808,198.733,820,198.733,814,180.733"
                     style="stroke:#181818;stroke-width:1.0;"/>
        </g><!--reverse link Deck to ObjectiveDeck-->
        <g id="link_Deck_ObjectiveDeck">
            <path d="M938.6419,172.8178 C993.3799,197.3308 1041.77,219.001 1089.74,240.482 " fill="none"
                  id="Deck-backto-ObjectiveDeck" style="stroke:#181818;stroke-width:1.0;stroke-dasharray:7.0,7.0;"/>
            <polygon fill="none" points="922.214,165.461,936.1897,178.2938,941.0942,167.3418,922.214,165.461"
                     style="stroke:#181818;stroke-width:1.0;"/>
        </g><!--reverse link DeckFactory to GoldCardFactory-->
        <g id="link_DeckFactory_GoldCardFactory">
            <path d="M1996.3707,159.1323 C1957.2507,188.7593 1913.75,221.706 1878.6,248.328 " fill="none"
                  id="DeckFactory-backto-GoldCardFactory"
                  style="stroke:#181818;stroke-width:1.0;stroke-dasharray:7.0,7.0;"/>
            <polygon fill="none" points="2010.72,148.265,1992.7483,154.3492,1999.9931,163.9154,2010.72,148.265"
                     style="stroke:#181818;stroke-width:1.0;"/>
        </g><!--reverse link DeckFactory to ResourceCardFactory-->
        <g id="link_DeckFactory_ResourceCardFactory">
            <path d="M2052,166.265 C2052,195.892 2052,221.706 2052,248.328 " fill="none"
                  id="DeckFactory-backto-ResourceCardFactory"
                  style="stroke:#181818;stroke-width:1.0;stroke-dasharray:7.0,7.0;"/>
            <polygon fill="none" points="2052,148.265,2046,166.265,2058,166.265,2052,148.265"
                     style="stroke:#181818;stroke-width:1.0;"/>
        </g><!--reverse link DeckFactory to StarterCardFactory-->
        <g id="link_DeckFactory_StarterCardFactory">
            <path d="M2109.4209,158.6483 C2150.2409,188.2553 2196.19,221.588 2232.97,248.271 " fill="none"
                  id="DeckFactory-backto-StarterCardFactory"
                  style="stroke:#181818;stroke-width:1.0;stroke-dasharray:7.0,7.0;"/>
            <polygon fill="none" points="2094.85,148.08,2105.8981,163.5053,2112.9436,153.7914,2094.85,148.08"
                     style="stroke:#181818;stroke-width:1.0;"/>
        </g><!--reverse link DeckFactory to ObjectiveCardFactory-->
        <g id="link_DeckFactory_ObjectiveCardFactory">
            <path d="M2204.7139,148.0067 C2261.8139,161.6967 2310.71,176.603 2368,201.5 C2396.81,214.02 2426.86,233.187 2448.57,248.301 "
                  fill="none" id="DeckFactory-backto-ObjectiveCardFactory"
                  style="stroke:#181818;stroke-width:1.0;stroke-dasharray:7.0,7.0;"/>
            <polygon fill="none" points="2187.21,143.81,2203.3151,153.8413,2206.1128,142.172,2187.21,143.81"
                     style="stroke:#181818;stroke-width:1.0;"/>
        </g><!--link Deck to DeckType-->
        <g id="link_Deck_DeckType">
            <path codeLine="61"
                  d="M922.046,120.906 C1085.8,128.445 1387.65,149.158 1481,201.5 C1498.51,211.319 1512.59,229.017 1522.26,244.16 "
                  fill="none" id="Deck-DeckType" style="stroke:#181818;stroke-width:1.0;"/>
        </g><!--link DeckFactory to DeckType-->
        <g id="link_DeckFactory_DeckType">
            <path codeLine="62"
                  d="M1994.29,148.006 C1969.84,159.903 1940.66,172.524 1913,180.5 C1845.36,200.006 1824.68,186.056 1756,201.5 C1697.58,214.635 1632.44,236.41 1588.5,252.19 "
                  fill="none" id="DeckFactory-DeckType" style="stroke:#181818;stroke-width:1.0;"/>
        </g><!--SRC=[bLF1Ze8m4Btp5JswsVW3Xf0eicOtcx01t7kb8tOjbBH5Gup_lWN55j6eFJNpthmtdPdABIrAB72EPZZTPe9N1V4vum9b6oxLVaCLE4wfCPm18f1kvS51-dIXIb4cqIdM75ee46kS0ffhSbANW5nN0cP0FE_WN7X7SuMYoj4FmpLUCRXaqRnaa4EXv4N9k3Hd4NxFUu4eYCDbv0TtFPQwLgeeoETDucGQ9K7KYuMphy1FFdzj8ykktm7a9fwHV9URQhrcC7gRjAW63KO4tljOa0PCJ3W35K6EQK6Bh85bWskJ7gEhlXDkxeQ02Uc4TvmIkzgKOIdHWZFILdlL45FvEDEKrdw2faBWcb6ftCKvw0qb8v2y4Yaya1Ldsa3QphyX7oiiT9yVgCiJQo0Uc_WDxN3r1wcYkqUryuutq0zjvEBG-pXwGnGNUXdl_PsFbb3t5wWTPoe0gxQuKJVh6_jaRRyPSbDF9tpri7FuEYko1lHQfjNarn9xtNicjUjjEw_nkFy3x5xQc7Fy1m00]-->
    </g>
</svg>