<?xml version="1.0" encoding="us-ascii" standalone="no"?>
<svg xmlns="http://www.w3.org/2000/svg" contentStyleType="text/css"
     height="594px" preserveAspectRatio="none" style="width:706px;height:594px;background:#F8F8FF;" version="1.1"
     viewBox="0 0 706 594" width="706px" zoomAndPan="magnify">
    <defs/>
    <g>
        <rect fill="#F8F8FF" height="594" style="stroke:none;stroke-width:1.0;" width="706" x="0"
              y="0"/><!--cluster ruleset-->
        <g id="cluster_ruleset">
            <path d="M430,78 L488,78 A3.75,3.75 0 0 1 490.5,80.5 L497.5,100.2969 L697,100.2969 A2.5,2.5 0 0 1 699.5,102.7969 L699.5,584.5 A2.5,2.5 0 0 1 697,587 L430,587 A2.5,2.5 0 0 1 427.5,584.5 L427.5,80.5 A2.5,2.5 0 0 1 430,78 "
                  fill="none" style="stroke:#000000;stroke-width:1.5;"/>
            <line style="stroke:#000000;stroke-width:1.5;" x1="427.5" x2="497.5" y1="100.2969" y2="100.2969"/>
            <text fill="#000000" font-family="sans-serif" font-size="14" font-weight="bold" lengthAdjust="spacing"
                  textLength="57" x="431.5" y="92.9951">ruleset
            </text>
        </g><!--class RuleSet-->
        <g id="elem_RuleSet">
            <rect codeLine="38" fill="#F1F1F1" height="145.7813" id="RuleSet" rx="2.5" ry="2.5"
                  style="stroke:#181818;stroke-width:0.5;" width="240" x="443.5" y="113"/>
            <ellipse cx="531.75" cy="129" fill="#B4A7E5" rx="11" ry="11" style="stroke:#181818;stroke-width:1.0;"/>
            <path d="M532.7031,125.7813 L534.4219,125.7813 C534.8125,125.7813 535,125.75 535.125,125.6719 C535.3906,125.5156 535.5313,125.2344 535.5313,124.9375 C535.5313,124.6719 535.4219,124.4063 535.1875,124.2344 C535.0156,124.125 534.875,124.0938 534.4219,124.0938 L529.2813,124.0938 C528.8438,124.0938 528.7188,124.1094 528.5625,124.2031 C528.3125,124.3594 528.1563,124.6563 528.1563,124.9375 C528.1563,125.2188 528.2969,125.4688 528.5156,125.6406 C528.6719,125.75 528.8594,125.7813 529.2813,125.7813 L531,125.7813 L531,132.2969 L529.2813,132.2969 C528.8438,132.2969 528.7188,132.3125 528.5625,132.4219 C528.3125,132.5781 528.1563,132.8594 528.1563,133.1563 C528.1563,133.4063 528.2969,133.6719 528.5156,133.8281 C528.6719,133.9531 528.875,134 529.2813,134 L534.4219,134 C535.1719,134 535.5313,133.7188 535.5313,133.1563 C535.5313,132.875 535.4219,132.625 535.1875,132.4531 C535.0156,132.3281 534.875,132.2969 534.4219,132.2969 L532.7031,132.2969 L532.7031,125.7813 Z "
                  fill="#000000"/>
            <text fill="#000000" font-family="sans-serif" font-size="14" font-style="italic" lengthAdjust="spacing"
                  textLength="55" x="552.25" y="133.8467">RuleSet
            </text>
            <line style="stroke:#181818;stroke-width:0.5;" x1="444.5" x2="682.5" y1="145" y2="145"/>
            <line style="stroke:#181818;stroke-width:0.5;" x1="444.5" x2="682.5" y1="153" y2="153"/>
            <ellipse cx="454.5" cy="166.6484" fill="#84BE84" rx="3" ry="3" style="stroke:#038048;stroke-width:1.0;"/>
            <text fill="#000000" font-family="sans-serif" font-size="14" lengthAdjust="spacing" textLength="133"
                  x="463.5" y="169.9951">MaxHandSize(): int
            </text>
            <ellipse cx="454.5" cy="182.9453" fill="#84BE84" rx="3" ry="3" style="stroke:#038048;stroke-width:1.0;"/>
            <text fill="#000000" font-family="sans-serif" font-size="14" lengthAdjust="spacing" textLength="214"
                  x="463.5" y="186.292">MaxShownCardsPerType(): int
            </text>
            <ellipse cx="454.5" cy="199.2422" fill="#84BE84" rx="3" ry="3" style="stroke:#038048;stroke-width:1.0;"/>
            <text fill="#000000" font-family="sans-serif" font-size="14" lengthAdjust="spacing" textLength="188"
                  x="463.5" y="202.5889">MaxPlayerObjectives(): int
            </text>
            <ellipse cx="454.5" cy="215.5391" fill="#84BE84" rx="3" ry="3" style="stroke:#038048;stroke-width:1.0;"/>
            <text fill="#000000" font-family="sans-serif" font-size="14" lengthAdjust="spacing" textLength="184"
                  x="463.5" y="218.8857">MaxTableObjectives(): int
            </text>
            <ellipse cx="454.5" cy="231.8359" fill="#84BE84" rx="3" ry="3" style="stroke:#038048;stroke-width:1.0;"/>
            <text fill="#000000" font-family="sans-serif" font-size="14" lengthAdjust="spacing" textLength="118"
                  x="463.5" y="235.1826">MaxPlayers(): int
            </text>
            <ellipse cx="454.5" cy="248.1328" fill="#84BE84" rx="3" ry="3" style="stroke:#038048;stroke-width:1.0;"/>
            <text fill="#000000" font-family="sans-serif" font-size="14" lengthAdjust="spacing" textLength="149"
                  x="463.5" y="251.4795">ToArmageddon(): int
            </text>
        </g><!--class BasicRuleset-->
        <g id="elem_BasicRuleset">
            <rect codeLine="48" fill="#F1F1F1" height="145.7813" id="BasicRuleset" rx="2.5" ry="2.5"
                  style="stroke:#181818;stroke-width:0.5;" width="232" x="447.5" y="425"/>
            <ellipse cx="513.75" cy="441" fill="#ADD1B2" rx="11" ry="11" style="stroke:#181818;stroke-width:1.0;"/>
            <path d="M516.0938,436.6719 C515.1563,436.2344 514.5625,436.0938 513.6875,436.0938 C511.0625,436.0938 509.0625,438.1719 509.0625,440.8906 L509.0625,442.0156 C509.0625,444.5938 511.1719,446.4844 514.0625,446.4844 C515.2813,446.4844 516.4375,446.1875 517.1875,445.6406 C517.7656,445.2344 518.0938,444.7813 518.0938,444.3906 C518.0938,443.9375 517.7031,443.5469 517.2344,443.5469 C517.0156,443.5469 516.8125,443.625 516.625,443.8125 C516.1719,444.2969 516.1719,444.2969 515.9844,444.3906 C515.5625,444.6563 514.875,444.7813 514.1094,444.7813 C512.0625,444.7813 510.7656,443.6875 510.7656,441.9844 L510.7656,440.8906 C510.7656,439.1094 512.0156,437.7969 513.75,437.7969 C514.3281,437.7969 514.9375,437.9531 515.4063,438.2031 C515.8906,438.4844 516.0625,438.7031 516.1563,439.1094 C516.2188,439.5156 516.25,439.6406 516.3906,439.7656 C516.5313,439.9063 516.7656,440.0156 516.9844,440.0156 C517.25,440.0156 517.5156,439.875 517.6875,439.6563 C517.7969,439.5 517.8281,439.3125 517.8281,438.8906 L517.8281,437.4688 C517.8281,437.0313 517.8125,436.9063 517.7188,436.75 C517.5625,436.4844 517.2813,436.3438 516.9844,436.3438 C516.6875,436.3438 516.4844,436.4375 516.2656,436.75 L516.0938,436.6719 Z "
                  fill="#000000"/>
            <text fill="#000000" font-family="sans-serif" font-size="14" lengthAdjust="spacing" textLength="91"
                  x="534.25" y="445.8467">BasicRuleset
            </text>
            <line style="stroke:#181818;stroke-width:0.5;" x1="448.5" x2="678.5" y1="457" y2="457"/>
            <rect fill="none" height="6" style="stroke:#C82930;stroke-width:1.0;" width="6" x="455.5" y="467.6484"/>
            <text fill="#000000" font-family="sans-serif" font-size="14" lengthAdjust="spacing" textLength="135"
                  x="467.5" y="473.9951">maxHandCards: int
            </text>
            <rect fill="none" height="6" style="stroke:#C82930;stroke-width:1.0;" width="6" x="455.5" y="483.9453"/>
            <text fill="#000000" font-family="sans-serif" font-size="14" lengthAdjust="spacing" textLength="206"
                  x="467.5" y="490.292">maxShownCardsPerType: int
            </text>
            <rect fill="none" height="6" style="stroke:#C82930;stroke-width:1.0;" width="6" x="455.5" y="500.2422"/>
            <text fill="#000000" font-family="sans-serif" font-size="14" lengthAdjust="spacing" textLength="197"
                  x="467.5" y="506.5889">maxPersonalObjectives: int
            </text>
            <rect fill="none" height="6" style="stroke:#C82930;stroke-width:1.0;" width="6" x="455.5" y="516.5391"/>
            <text fill="#000000" font-family="sans-serif" font-size="14" lengthAdjust="spacing" textLength="201"
                  x="467.5" y="522.8857">maxCommonObjectives: int
            </text>
            <rect fill="none" height="6" style="stroke:#C82930;stroke-width:1.0;" width="6" x="455.5" y="532.8359"/>
            <text fill="#000000" font-family="sans-serif" font-size="14" lengthAdjust="spacing" textLength="110"
                  x="467.5" y="539.1826">maxPlayers: int
            </text>
            <rect fill="none" height="6" style="stroke:#C82930;stroke-width:1.0;" width="6" x="455.5" y="549.1328"/>
            <text fill="#000000" font-family="sans-serif" font-size="14" lengthAdjust="spacing" textLength="185"
                  x="467.5" y="555.4795">pointsToArmageddon: int
            </text>
            <line style="stroke:#181818;stroke-width:0.5;" x1="448.5" x2="678.5" y1="562.7813" y2="562.7813"/>
        </g><!--class GameModel-->
        <g id="elem_GameModel">
            <rect codeLine="3" fill="#F1F1F1" height="357.6406" id="GameModel" rx="2.5" ry="2.5"
                  style="stroke:#181818;stroke-width:0.5;" width="401" x="7" y="7"/>
            <ellipse cx="160.25" cy="23" fill="#B4A7E5" rx="11" ry="11" style="stroke:#181818;stroke-width:1.0;"/>
            <path d="M161.2031,19.7813 L162.9219,19.7813 C163.3125,19.7813 163.5,19.75 163.625,19.6719 C163.8906,19.5156 164.0313,19.2344 164.0313,18.9375 C164.0313,18.6719 163.9219,18.4063 163.6875,18.2344 C163.5156,18.125 163.375,18.0938 162.9219,18.0938 L157.7813,18.0938 C157.3438,18.0938 157.2188,18.1094 157.0625,18.2031 C156.8125,18.3594 156.6563,18.6563 156.6563,18.9375 C156.6563,19.2188 156.7969,19.4688 157.0156,19.6406 C157.1719,19.75 157.3594,19.7813 157.7813,19.7813 L159.5,19.7813 L159.5,26.2969 L157.7813,26.2969 C157.3438,26.2969 157.2188,26.3125 157.0625,26.4219 C156.8125,26.5781 156.6563,26.8594 156.6563,27.1563 C156.6563,27.4063 156.7969,27.6719 157.0156,27.8281 C157.1719,27.9531 157.375,28 157.7813,28 L162.9219,28 C163.6719,28 164.0313,27.7188 164.0313,27.1563 C164.0313,26.875 163.9219,26.625 163.6875,26.4531 C163.5156,26.3281 163.375,26.2969 162.9219,26.2969 L161.2031,26.2969 L161.2031,19.7813 Z "
                  fill="#000000"/>
            <text fill="#000000" font-family="sans-serif" font-size="14" font-style="italic" lengthAdjust="spacing"
                  textLength="86" x="180.75" y="27.8467">GameModel
            </text>
            <line style="stroke:#181818;stroke-width:0.5;" x1="8" x2="407" y1="39" y2="39"/>
            <line style="stroke:#181818;stroke-width:0.5;" x1="8" x2="407" y1="47" y2="47"/>
            <ellipse cx="18" cy="60.6484" fill="#84BE84" rx="3" ry="3" style="stroke:#038048;stroke-width:1.0;"/>
            <text fill="#000000" font-family="sans-serif" font-size="14" lengthAdjust="spacing" textLength="115" x="27"
                  y="63.9951">initGame(): void
            </text>
            <ellipse cx="18" cy="76.9453" fill="#84BE84" rx="3" ry="3" style="stroke:#038048;stroke-width:1.0;"/>
            <text fill="#000000" font-family="sans-serif" font-size="14" lengthAdjust="spacing" textLength="311" x="27"
                  y="80.292">addPlayerToTable(String, PlayerColor): void
            </text>
            <ellipse cx="18" cy="93.2422" fill="#84BE84" rx="3" ry="3" style="stroke:#038048;stroke-width:1.0;"/>
            <text fill="#000000" font-family="sans-serif" font-size="14" lengthAdjust="spacing" textLength="149" x="27"
                  y="96.5889">shufflePlayers(): void
            </text>
            <ellipse cx="18" cy="109.5391" fill="#84BE84" rx="3" ry="3" style="stroke:#038048;stroke-width:1.0;"/>
            <text fill="#000000" font-family="sans-serif" font-size="14" lengthAdjust="spacing" textLength="175" x="27"
                  y="112.8857">setStartingPlayer(): void
            </text>
            <ellipse cx="18" cy="125.8359" fill="#84BE84" rx="3" ry="3" style="stroke:#038048;stroke-width:1.0;"/>
            <text fill="#000000" font-family="sans-serif" font-size="14" lengthAdjust="spacing" textLength="133" x="27"
                  y="129.1826">goNextTurn(): void
            </text>
            <ellipse cx="18" cy="142.1328" fill="#84BE84" rx="3" ry="3" style="stroke:#038048;stroke-width:1.0;"/>
            <text fill="#000000" font-family="sans-serif" font-size="14" lengthAdjust="spacing" textLength="141" x="27"
                  y="145.4795">placeCard(int): void
            </text>
            <ellipse cx="18" cy="158.4297" fill="#84BE84" rx="3" ry="3" style="stroke:#038048;stroke-width:1.0;"/>
            <text fill="#000000" font-family="sans-serif" font-size="14" lengthAdjust="spacing" textLength="349" x="27"
                  y="161.7764">drawCardFrom(PlayableDeckType): PlayableCard
            </text>
            <text fill="#000000" font-family="sans-serif" font-size="14" lengthAdjust="spacing" textLength="4" x="27"
                  y="178.0732">&#160;
            </text>
            <ellipse cx="18" cy="191.0234" fill="#84BE84" rx="3" ry="3" style="stroke:#038048;stroke-width:1.0;"/>
            <text fill="#000000" font-family="sans-serif" font-size="14" lengthAdjust="spacing" textLength="324" x="27"
                  y="194.3701">getExposedCards(): ArrayList&lt;PlayableCard&gt;
            </text>
            <ellipse cx="18" cy="207.3203" fill="#84BE84" rx="3" ry="3" style="stroke:#038048;stroke-width:1.0;"/>
            <text fill="#000000" font-family="sans-serif" font-size="14" lengthAdjust="spacing" textLength="347" x="27"
                  y="210.667">getPlayerHand(String): ArrayList&lt;PlayableCard&gt;
            </text>
            <ellipse cx="18" cy="223.6172" fill="#84BE84" rx="3" ry="3" style="stroke:#038048;stroke-width:1.0;"/>
            <text fill="#000000" font-family="sans-serif" font-size="14" lengthAdjust="spacing" textLength="305" x="27"
                  y="226.9639">getPlayerObjective(String): ObjectiveCard
            </text>
            <ellipse cx="18" cy="239.9141" fill="#84BE84" rx="3" ry="3" style="stroke:#038048;stroke-width:1.0;"/>
            <text fill="#000000" font-family="sans-serif" font-size="14" lengthAdjust="spacing" textLength="375" x="27"
                  y="243.2607">getCommonObjectives(): ArrayList&lt;ObjectiveCard&gt;
            </text>
            <ellipse cx="18" cy="256.2109" fill="#84BE84" rx="3" ry="3" style="stroke:#038048;stroke-width:1.0;"/>
            <text fill="#000000" font-family="sans-serif" font-size="14" lengthAdjust="spacing" textLength="254" x="27"
                  y="259.5576">getPlateau(): Map&lt;String, Integer&gt;
            </text>
            <ellipse cx="18" cy="272.5078" fill="#84BE84" rx="3" ry="3" style="stroke:#038048;stroke-width:1.0;"/>
            <text fill="#000000" font-family="sans-serif" font-size="14" lengthAdjust="spacing" textLength="252" x="27"
                  y="275.8545">getPlayerColor(String): PlayerColor
            </text>
            <ellipse cx="18" cy="288.8047" fill="#84BE84" rx="3" ry="3" style="stroke:#038048;stroke-width:1.0;"/>
            <text fill="#000000" font-family="sans-serif" font-size="14" lengthAdjust="spacing" textLength="225" x="27"
                  y="292.1514">getPlayers(): ArrayList&lt;String&gt;
            </text>
            <ellipse cx="18" cy="305.1016" fill="#84BE84" rx="3" ry="3" style="stroke:#038048;stroke-width:1.0;"/>
            <text fill="#000000" font-family="sans-serif" font-size="14" lengthAdjust="spacing" textLength="219" x="27"
                  y="308.4482">getCurrentTurnPlayer(): String
            </text>
            <ellipse cx="18" cy="321.3984" fill="#84BE84" rx="3" ry="3" style="stroke:#038048;stroke-width:1.0;"/>
            <text fill="#000000" font-family="sans-serif" font-size="14" lengthAdjust="spacing" textLength="147" x="27"
                  y="324.7451">isFinished(): boolean
            </text>
            <ellipse cx="18" cy="337.6953" fill="#84BE84" rx="3" ry="3" style="stroke:#038048;stroke-width:1.0;"/>
            <text fill="#000000" font-family="sans-serif" font-size="14" lengthAdjust="spacing" textLength="253" x="27"
                  y="341.042">getResults(): Map&lt;String, Integer&gt;
            </text>
            <ellipse cx="18" cy="353.9922" fill="#84BE84" rx="3" ry="3" style="stroke:#038048;stroke-width:1.0;"/>
            <text fill="#000000" font-family="sans-serif" font-size="14" lengthAdjust="spacing" textLength="139" x="27"
                  y="357.3389">getWinner(): String
            </text>
        </g><!--class GameLogic-->
        <g id="elem_GameLogic">
            <rect codeLine="27" fill="#F1F1F1" height="145.7813" id="GameLogic" rx="2.5" ry="2.5"
                  style="stroke:#181818;stroke-width:0.5;" width="287" x="94" y="425"/>
            <ellipse cx="193.25" cy="441" fill="#ADD1B2" rx="11" ry="11" style="stroke:#181818;stroke-width:1.0;"/>
            <path d="M195.5938,436.6719 C194.6563,436.2344 194.0625,436.0938 193.1875,436.0938 C190.5625,436.0938 188.5625,438.1719 188.5625,440.8906 L188.5625,442.0156 C188.5625,444.5938 190.6719,446.4844 193.5625,446.4844 C194.7813,446.4844 195.9375,446.1875 196.6875,445.6406 C197.2656,445.2344 197.5938,444.7813 197.5938,444.3906 C197.5938,443.9375 197.2031,443.5469 196.7344,443.5469 C196.5156,443.5469 196.3125,443.625 196.125,443.8125 C195.6719,444.2969 195.6719,444.2969 195.4844,444.3906 C195.0625,444.6563 194.375,444.7813 193.6094,444.7813 C191.5625,444.7813 190.2656,443.6875 190.2656,441.9844 L190.2656,440.8906 C190.2656,439.1094 191.5156,437.7969 193.25,437.7969 C193.8281,437.7969 194.4375,437.9531 194.9063,438.2031 C195.3906,438.4844 195.5625,438.7031 195.6563,439.1094 C195.7188,439.5156 195.75,439.6406 195.8906,439.7656 C196.0313,439.9063 196.2656,440.0156 196.4844,440.0156 C196.75,440.0156 197.0156,439.875 197.1875,439.6563 C197.2969,439.5 197.3281,439.3125 197.3281,438.8906 L197.3281,437.4688 C197.3281,437.0313 197.3125,436.9063 197.2188,436.75 C197.0625,436.4844 196.7813,436.3438 196.4844,436.3438 C196.1875,436.3438 195.9844,436.4375 195.7656,436.75 L195.5938,436.6719 Z "
                  fill="#000000"/>
            <text fill="#000000" font-family="sans-serif" font-size="14" lengthAdjust="spacing" textLength="80"
                  x="213.75" y="445.8467">GameLogic
            </text>
            <line style="stroke:#181818;stroke-width:0.5;" x1="95" x2="380" y1="457" y2="457"/>
            <rect fill="none" height="6" style="stroke:#C82930;stroke-width:1.0;" width="6" x="102" y="467.6484"/>
            <text fill="#000000" font-family="sans-serif" font-size="14" lengthAdjust="spacing" textLength="239" x="114"
                  y="473.9951">playerQueue: LinkedList&lt;Player&gt;
            </text>
            <rect fill="none" height="6" style="stroke:#C82930;stroke-width:1.0;" width="6" x="102" y="483.9453"/>
            <text fill="#000000" font-family="sans-serif" font-size="14" lengthAdjust="spacing" textLength="128" x="114"
                  y="490.292">numOfPlayers: int
            </text>
            <rect fill="none" height="6" style="stroke:#C82930;stroke-width:1.0;" width="6" x="102" y="500.2422"/>
            <text fill="#000000" font-family="sans-serif" font-size="14" lengthAdjust="spacing" textLength="129" x="114"
                  y="506.5889">gameTable: Table
            </text>
            <rect fill="none" height="6" style="stroke:#C82930;stroke-width:1.0;" width="6" x="102" y="516.5391"/>
            <text fill="#000000" font-family="sans-serif" font-size="14" lengthAdjust="spacing" textLength="155" x="114"
                  y="522.8857">gamePlateau: Plateau
            </text>
            <rect fill="none" height="6" style="stroke:#C82930;stroke-width:1.0;" width="6" x="102" y="532.8359"/>
            <text fill="#000000" font-family="sans-serif" font-size="14" lengthAdjust="spacing" textLength="127" x="114"
                  y="539.1826">firstPlayer: Player
            </text>
            <rect fill="none" height="6" style="stroke:#C82930;stroke-width:1.0;" width="6" x="102" y="549.1328"/>
            <text fill="#000000" font-family="sans-serif" font-size="14" lengthAdjust="spacing" textLength="261" x="114"
                  y="555.4795">decks: EnumMap&lt;DeckType, Deck&gt;
            </text>
            <line style="stroke:#181818;stroke-width:0.5;" x1="95" x2="380" y1="562.7813" y2="562.7813"/>
        </g><!--reverse link GameModel to GameLogic-->
        <g id="link_GameModel_GameLogic">
            <path d="M226.4678,382.9993 C228.5048,404.0493 228.752,406.602 230.522,424.89 " fill="none"
                  id="GameModel-backto-GameLogic" style="stroke:#181818;stroke-width:1.0;stroke-dasharray:7.0,7.0;"/>
            <polygon fill="none" points="224.734,365.083,220.4957,383.5772,232.4399,382.4214,224.734,365.083"
                     style="stroke:#181818;stroke-width:1.0;"/>
        </g><!--reverse link RuleSet to BasicRuleset-->
        <g id="link_RuleSet_BasicRuleset">
            <path d="M563.5,277.29 C563.5,327.117 563.5,375.07 563.5,424.864 " fill="none"
                  id="RuleSet-backto-BasicRuleset" style="stroke:#181818;stroke-width:1.0;stroke-dasharray:7.0,7.0;"/>
            <polygon fill="none" points="563.5,259.29,557.5,277.29,569.5,277.29,563.5,259.29"
                     style="stroke:#181818;stroke-width:1.0;"/>
        </g><!--link RuleSet to GameLogic-->
        <g id="link_RuleSet_GameLogic">
            <path codeLine="58"
                  d="M515.223,259.082 C490.547,293.19 458.748,333.29 425.5,365 C403.278,386.194 377.416,406.58 352.114,424.728 "
                  fill="none" id="RuleSet-GameLogic" style="stroke:#181818;stroke-width:1.0;"/>
        </g><!--SRC=[ZLFRZjem47tFL_YjgRhy05gjj4jtsqfGje3KPnDFWelZYMndWLRyUyTsGYwWRda1vfmPpvmvO_TILzpmaZtnR5yOhBMOeKB3YXrQTzX91qaYjGEJympO5rx20WMeFqd2wFD1AfQXTWQL0iEa0EraBZFE9AiKFu6n7cT4ewB8D9OG4Zz9BPslbdwSiZUK8aQv4AyXROCRlbMGhfsHkhXZCHfQ6oJONPtd2Y9iXyKikBNZnb61Y0_X0h_3qMrgeuTnwZk36JSYfRa7Y33yu84NWsNgI_eMFqEstvmg86ORyfoaUGJSyx522y87GuEFnl3JN5ftt-S_NFYnrwzSYsRw_yvPRdz1vkGRT8cNKEYffS-mB55Vi55RWvp16mvuxRaBNjstc_b6vYZ0Z7i9g-hww0L7nD7ZCQEhDgkD8LFvDNLBZAJ6IFQ5l6Ht83ooHLJ0zILz1RPMphxRz4-fzQ3sEKaonQqDbfzZ8JCcoqf1IStO_Xtu2fFezHyrr31bSwdt82xRQf-PwBfSvitGKqRcYk62QWMpJrduwgADua4z_oCYkJIsqQxLDGA2d4Y5d-aTFsjhp3lcVptuYPAAhfmNm4ojWCuZTj-Tzuh2wpOSf5dmetVYMluEbzes7MxVW-iT7dImzZ9F-zviJgAVCEI_qf4J9xr16hdPtk84gVvDwVbh06tmqPIaWX2e- -0vtcnS-nEtCbj5cVgRlv9eKaQ9mb0ZXJpMJTojPYpKo91jsIknXkKzXG2BcgjEYMlE-DflL1cRCfeQwQ_jgzNNwfmqKh39f3kIlm00]-->
    </g>
</svg>