<?xml version="1.0" encoding="us-ascii" standalone="no"?>
<svg xmlns="http://www.w3.org/2000/svg" contentStyleType="text/css"
     height="291px" preserveAspectRatio="none" style="width:760px;height:291px;background:#F8F8FF;" version="1.1"
     viewBox="0 0 760 291" width="760px" zoomAndPan="magnify">
    <defs/>
    <g>
        <rect fill="#F8F8FF" height="291" style="stroke:none;stroke-width:1.0;" width="760" x="0"
              y="0"/><!--cluster table-->
        <g id="cluster_table">
            <path d="M8.5,6 L51.5,6 A3.75,3.75 0 0 1 54,8.5 L61,28.2969 L750.5,28.2969 A2.5,2.5 0 0 1 753,30.7969 L753,281.5 A2.5,2.5 0 0 1 750.5,284 L8.5,284 A2.5,2.5 0 0 1 6,281.5 L6,8.5 A2.5,2.5 0 0 1 8.5,6 "
                  fill="none" style="stroke:#000000;stroke-width:1.5;"/>
            <line style="stroke:#000000;stroke-width:1.5;" x1="6" x2="61" y1="28.2969" y2="28.2969"/>
            <text fill="#000000" font-family="sans-serif" font-size="14" font-weight="bold" lengthAdjust="spacing"
                  textLength="42" x="10" y="20.9951">table
            </text>
        </g><!--class PickablesTable-->
        <g id="elem_PickablesTable">
            <rect codeLine="4" fill="#F1F1F1" height="227.2656" id="PickablesTable" rx="2.5" ry="2.5"
                  style="stroke:#181818;stroke-width:0.5;" width="397" x="339.5" y="41"/>
            <ellipse cx="479.75" cy="57" fill="#ADD1B2" rx="11" ry="11" style="stroke:#181818;stroke-width:1.0;"/>
            <path d="M482.0938,52.6719 C481.1563,52.2344 480.5625,52.0938 479.6875,52.0938 C477.0625,52.0938 475.0625,54.1719 475.0625,56.8906 L475.0625,58.0156 C475.0625,60.5938 477.1719,62.4844 480.0625,62.4844 C481.2813,62.4844 482.4375,62.1875 483.1875,61.6406 C483.7656,61.2344 484.0938,60.7813 484.0938,60.3906 C484.0938,59.9375 483.7031,59.5469 483.2344,59.5469 C483.0156,59.5469 482.8125,59.625 482.625,59.8125 C482.1719,60.2969 482.1719,60.2969 481.9844,60.3906 C481.5625,60.6563 480.875,60.7813 480.1094,60.7813 C478.0625,60.7813 476.7656,59.6875 476.7656,57.9844 L476.7656,56.8906 C476.7656,55.1094 478.0156,53.7969 479.75,53.7969 C480.3281,53.7969 480.9375,53.9531 481.4063,54.2031 C481.8906,54.4844 482.0625,54.7031 482.1563,55.1094 C482.2188,55.5156 482.25,55.6406 482.3906,55.7656 C482.5313,55.9063 482.7656,56.0156 482.9844,56.0156 C483.25,56.0156 483.5156,55.875 483.6875,55.6563 C483.7969,55.5 483.8281,55.3125 483.8281,54.8906 L483.8281,53.4688 C483.8281,53.0313 483.8125,52.9063 483.7188,52.75 C483.5625,52.4844 483.2813,52.3438 482.9844,52.3438 C482.6875,52.3438 482.4844,52.4375 482.2656,52.75 L482.0938,52.6719 Z "
                  fill="#000000"/>
            <text fill="#000000" font-family="sans-serif" font-size="14" lengthAdjust="spacing" textLength="108"
                  x="500.25" y="61.8467">PickablesTable
            </text>
            <line style="stroke:#181818;stroke-width:0.5;" x1="340.5" x2="735.5" y1="73" y2="73"/>
            <rect fill="none" height="6" style="stroke:#C82930;stroke-width:1.0;" width="6" x="347.5" y="83.6484"/>
            <text fill="#000000" font-family="sans-serif" font-size="14" lengthAdjust="spacing" textLength="338"
                  x="359.5" y="89.9951">commonObjectives : Arraylist&lt;ObjectiveCard&gt;
            </text>
            <rect fill="none" height="6" style="stroke:#C82930;stroke-width:1.0;" width="6" x="347.5" y="99.9453"/>
            <text fill="#000000" font-family="sans-serif" font-size="14" lengthAdjust="spacing" textLength="269"
                  x="359.5" y="106.292">shownCards: Arraylist&lt;PlayableCard&gt;
            </text>
            <rect fill="none" height="6" style="stroke:#C82930;stroke-width:1.0;" width="6" x="347.5" y="116.2422"/>
            <text fill="#000000" font-family="sans-serif" font-size="14" lengthAdjust="spacing" textLength="159"
                  x="359.5" y="122.5889">NumOfObjectives : int
            </text>
            <rect fill="none" height="6" style="stroke:#C82930;stroke-width:1.0;" width="6" x="347.5" y="132.5391"/>
            <text fill="#000000" font-family="sans-serif" font-size="14" lengthAdjust="spacing" textLength="189"
                  x="359.5" y="138.8857">NumOfShownPerType : int
            </text>
            <line style="stroke:#181818;stroke-width:0.5;" x1="340.5" x2="735.5" y1="146.1875" y2="146.1875"/>
            <ellipse cx="350.5" cy="159.8359" fill="#84BE84" rx="3" ry="3" style="stroke:#038048;stroke-width:1.0;"/>
            <text fill="#000000" font-family="sans-serif" font-size="14" lengthAdjust="spacing" textLength="306"
                  x="359.5" y="163.1826">getShownCards(): Arraylist&lt;PlayableCard&gt;
            </text>
            <ellipse cx="350.5" cy="176.1328" fill="#84BE84" rx="3" ry="3" style="stroke:#038048;stroke-width:1.0;"/>
            <text fill="#000000" font-family="sans-serif" font-size="14" lengthAdjust="spacing" textLength="371"
                  x="359.5" y="179.4795">getCommonObjectives(): Arraylist&lt;ObjectiveCard&gt;
            </text>
            <text fill="#000000" font-family="sans-serif" font-size="14" lengthAdjust="spacing" textLength="4" x="359.5"
                  y="195.7764">&#160;
            </text>
            <ellipse cx="350.5" cy="208.7266" fill="#84BE84" rx="3" ry="3" style="stroke:#038048;stroke-width:1.0;"/>
            <text fill="#000000" font-family="sans-serif" font-size="14" lengthAdjust="spacing" textLength="200"
                  x="359.5" y="212.0732">putCard(PlayableCard): void
            </text>
            <ellipse cx="350.5" cy="225.0234" fill="#84BE84" rx="3" ry="3" style="stroke:#038048;stroke-width:1.0;"/>
            <text fill="#000000" font-family="sans-serif" font-size="14" lengthAdjust="spacing" textLength="247"
                  x="359.5" y="228.3701">putObjective(ObjectiveCard): void
            </text>
            <ellipse cx="350.5" cy="241.3203" fill="#84BE84" rx="3" ry="3" style="stroke:#038048;stroke-width:1.0;"/>
            <text fill="#000000" font-family="sans-serif" font-size="14" lengthAdjust="spacing" textLength="196"
                  x="359.5" y="244.667">pickCard(int): PlayableCard
            </text>
            <ellipse cx="350.5" cy="257.6172" fill="#84BE84" rx="3" ry="3" style="stroke:#038048;stroke-width:1.0;"/>
            <text fill="#000000" font-family="sans-serif" font-size="14" lengthAdjust="spacing" textLength="268"
                  x="359.5" y="260.9639">pickAll(Map&lt;DeckType, Deck&gt;): void
            </text>
        </g><!--class Plateau-->
        <g id="elem_Plateau">
            <rect codeLine="20" fill="#F1F1F1" height="194.6719" id="Plateau" rx="2.5" ry="2.5"
                  style="stroke:#181818;stroke-width:0.5;" width="282" x="22" y="57"/>
            <ellipse cx="132.25" cy="73" fill="#ADD1B2" rx="11" ry="11" style="stroke:#181818;stroke-width:1.0;"/>
            <path d="M134.5938,68.6719 C133.6563,68.2344 133.0625,68.0938 132.1875,68.0938 C129.5625,68.0938 127.5625,70.1719 127.5625,72.8906 L127.5625,74.0156 C127.5625,76.5938 129.6719,78.4844 132.5625,78.4844 C133.7813,78.4844 134.9375,78.1875 135.6875,77.6406 C136.2656,77.2344 136.5938,76.7813 136.5938,76.3906 C136.5938,75.9375 136.2031,75.5469 135.7344,75.5469 C135.5156,75.5469 135.3125,75.625 135.125,75.8125 C134.6719,76.2969 134.6719,76.2969 134.4844,76.3906 C134.0625,76.6563 133.375,76.7813 132.6094,76.7813 C130.5625,76.7813 129.2656,75.6875 129.2656,73.9844 L129.2656,72.8906 C129.2656,71.1094 130.5156,69.7969 132.25,69.7969 C132.8281,69.7969 133.4375,69.9531 133.9063,70.2031 C134.3906,70.4844 134.5625,70.7031 134.6563,71.1094 C134.7188,71.5156 134.75,71.6406 134.8906,71.7656 C135.0313,71.9063 135.2656,72.0156 135.4844,72.0156 C135.75,72.0156 136.0156,71.875 136.1875,71.6563 C136.2969,71.5 136.3281,71.3125 136.3281,70.8906 L136.3281,69.4688 C136.3281,69.0313 136.3125,68.9063 136.2188,68.75 C136.0625,68.4844 135.7813,68.3438 135.4844,68.3438 C135.1875,68.3438 134.9844,68.4375 134.7656,68.75 L134.5938,68.6719 Z "
                  fill="#000000"/>
            <text fill="#000000" font-family="sans-serif" font-size="14" lengthAdjust="spacing" textLength="53"
                  x="152.75" y="77.8467">Plateau
            </text>
            <line style="stroke:#181818;stroke-width:0.5;" x1="23" x2="303" y1="89" y2="89"/>
            <rect fill="none" height="6" style="stroke:#C82930;stroke-width:1.0;" width="6" x="30" y="99.6484"/>
            <text fill="#000000" font-family="sans-serif" font-size="14" lengthAdjust="spacing" textLength="256" x="42"
                  y="105.9951">playerPoints: Map&lt;Player, Integer&gt;
            </text>
            <rect fill="none" height="6" style="stroke:#C82930;stroke-width:1.0;" width="6" x="30" y="115.9453"/>
            <text fill="#000000" font-family="sans-serif" font-size="14" lengthAdjust="spacing" textLength="159" x="42"
                  y="122.292">armageddonTime : int
            </text>
            <rect fill="none" height="6" style="stroke:#C82930;stroke-width:1.0;" width="6" x="30" y="132.2422"/>
            <text fill="#000000" font-family="sans-serif" font-size="14" lengthAdjust="spacing" textLength="132" x="42"
                  y="138.5889">numOfPlayers : int
            </text>
            <rect fill="none" height="6" style="stroke:#C82930;stroke-width:1.0;" width="6" x="30" y="148.5391"/>
            <text fill="#000000" font-family="sans-serif" font-size="14" lengthAdjust="spacing" textLength="210" x="42"
                  y="154.8857">isArmageddonTime : boolean
            </text>
            <line style="stroke:#181818;stroke-width:0.5;" x1="23" x2="303" y1="162.1875" y2="162.1875"/>
            <ellipse cx="33" cy="175.8359" fill="#84BE84" rx="3" ry="3" style="stroke:#038048;stroke-width:1.0;"/>
            <text fill="#000000" font-family="sans-serif" font-size="14" lengthAdjust="spacing" textLength="87" x="42"
                  y="179.1826">reset(): void
            </text>
            <ellipse cx="33" cy="192.1328" fill="#84BE84" rx="3" ry="3" style="stroke:#038048;stroke-width:1.0;"/>
            <text fill="#000000" font-family="sans-serif" font-size="14" lengthAdjust="spacing" textLength="163" x="42"
                  y="195.4795">addPlayer(Player): void
            </text>
            <ellipse cx="33" cy="208.4297" fill="#84BE84" rx="3" ry="3" style="stroke:#038048;stroke-width:1.0;"/>
            <text fill="#000000" font-family="sans-serif" font-size="14" lengthAdjust="spacing" textLength="236" x="42"
                  y="211.7764">addPlayerPoints(Player, int): void
            </text>
            <ellipse cx="33" cy="224.7266" fill="#84BE84" rx="3" ry="3" style="stroke:#038048;stroke-width:1.0;"/>
            <text fill="#000000" font-family="sans-serif" font-size="14" lengthAdjust="spacing" textLength="197" x="42"
                  y="228.0732">getPlayerPoints(Player): int
            </text>
            <ellipse cx="33" cy="241.0234" fill="#84BE84" rx="3" ry="3" style="stroke:#038048;stroke-width:1.0;"/>
            <text fill="#000000" font-family="sans-serif" font-size="14" lengthAdjust="spacing" textLength="236" x="42"
                  y="244.3701">getLeadingPlayer(): List&lt;Player&gt;
            </text>
        </g><!--SRC=[XL91Ri8m4Bpd5RxL2Fg12Y6bz58fBP7W0qky3MuSEx8T4AhuUzS4WXEewakYtPbPpuvT9NK35chs2aLLMjDgiJJAM5RkZFE7dVIO90tre4JcOQlm9s5q2WNEiLnIWsfkS-k4yroOkZPwjVt6miizElR2KclXgAJpyxwy12iMDvBRcOCEDHUZSmN7e3u2VxRrwcimG6e_Qg-3O8vsSspm0kWHqnBzkX_89_-F38pboDUGDp9sOpQj3oKU2nDpRwGOW7e1Ff2wXzBUpu9aYPgnR0zwcXOAmQPPnX_oKwNu1pJpDoogiA0P2t-B2vQTmQSa3bk1HsYZb1kQYpOtT0kAB8ZbvygClMkF9TeeBx0rFI4XZDx86iTnwH1NHxwBKhfqpDqQGzvqj66B3lszKH2YK-NTvsz0vu9V3NIB7M8f_mVOoV2w0PKX2AdBosG2PDTNTLt9AJdz0W00]-->
    </g>
</svg>