<?xml version="1.0" encoding="us-ascii" standalone="no"?>
<svg xmlns="http://www.w3.org/2000/svg" contentStyleType="text/css"
     height="117px" preserveAspectRatio="none" style="width:425px;height:117px;background:#FFFFFF;" version="1.1"
     viewBox="0 0 425 117" width="425px" zoomAndPan="magnify">
    <defs/>
    <g><!--class DynamicMatrix-->
        <g id="elem_DynamicMatrix">
            <rect codeLine="1" fill="#F1F1F1" height="96.8906" id="DynamicMatrix" rx="2.5" ry="2.5"
                  style="stroke:#181818;stroke-width:0.5;" width="404" x="7" y="7"/>
            <ellipse cx="73.25" cy="23" fill="#ADD1B2" rx="11" ry="11" style="stroke:#181818;stroke-width:1.0;"/>
            <path d="M75.5938,18.6719 C74.6563,18.2344 74.0625,18.0938 73.1875,18.0938 C70.5625,18.0938 68.5625,20.1719 68.5625,22.8906 L68.5625,24.0156 C68.5625,26.5938 70.6719,28.4844 73.5625,28.4844 C74.7813,28.4844 75.9375,28.1875 76.6875,27.6406 C77.2656,27.2344 77.5938,26.7813 77.5938,26.3906 C77.5938,25.9375 77.2031,25.5469 76.7344,25.5469 C76.5156,25.5469 76.3125,25.625 76.125,25.8125 C75.6719,26.2969 75.6719,26.2969 75.4844,26.3906 C75.0625,26.6563 74.375,26.7813 73.6094,26.7813 C71.5625,26.7813 70.2656,25.6875 70.2656,23.9844 L70.2656,22.8906 C70.2656,21.1094 71.5156,19.7969 73.25,19.7969 C73.8281,19.7969 74.4375,19.9531 74.9063,20.2031 C75.3906,20.4844 75.5625,20.7031 75.6563,21.1094 C75.7188,21.5156 75.75,21.6406 75.8906,21.7656 C76.0313,21.9063 76.2656,22.0156 76.4844,22.0156 C76.75,22.0156 77.0156,21.875 77.1875,21.6563 C77.2969,21.5 77.3281,21.3125 77.3281,20.8906 L77.3281,19.4688 C77.3281,19.0313 77.3125,18.9063 77.2188,18.75 C77.0625,18.4844 76.7813,18.3438 76.4844,18.3438 C76.1875,18.3438 75.9844,18.4375 75.7656,18.75 L75.5938,18.6719 Z "
                  fill="#000000"/>
            <text fill="#000000" font-family="sans-serif" font-size="14" lengthAdjust="spacing" textLength="107"
                  x="93.75" y="27.8467">DynamicMatrix
            </text>
            <rect fill="#FFFFFF" height="15.9688" style="stroke:#181818;stroke-width:1.0;stroke-dasharray:2.0,2.0;"
                  width="154" x="260" y="4"/>
            <text fill="#000000" font-family="sans-serif" font-size="12" font-style="italic" lengthAdjust="spacing"
                  textLength="152" x="261" y="16.1387">K,T extends PlayableCard
            </text>
            <line style="stroke:#181818;stroke-width:0.5;" x1="8" x2="410" y1="39" y2="39"/>
            <line style="stroke:#181818;stroke-width:0.5;" x1="8" x2="410" y1="47" y2="47"/>
            <ellipse cx="18" cy="60.6484" fill="#84BE84" rx="3" ry="3" style="stroke:#038048;stroke-width:1.0;"/>
            <text fill="#000000" font-family="sans-serif" font-size="14" lengthAdjust="spacing" textLength="378" x="27"
                  y="63.9951">insert(card: T, cardToBeCovered: T, corner: int): void
            </text>
            <ellipse cx="18" cy="76.9453" fill="#84BE84" rx="3" ry="3" style="stroke:#038048;stroke-width:1.0;"/>
            <text fill="#000000" font-family="sans-serif" font-size="14" lengthAdjust="spacing" textLength="203" x="27"
                  y="80.292">getCardIn(card: T, corner): T
            </text>
            <ellipse cx="18" cy="93.2422" fill="#84BE84" rx="3" ry="3" style="stroke:#038048;stroke-width:1.0;"/>
            <text fill="#000000" font-family="sans-serif" font-size="14" lengthAdjust="spacing" textLength="87" x="27"
                  y="96.5889">find(card): T
            </text>
        </g><!--SRC=[JOn12W8n34NtdY9BnJb14HUE6n5X5hr0RAC4QWff66OGxswduyA_2Y_l_v2m53ZFWYyEDpJbwN3jFD1a9B70a736Uw8UDHxV6wZPinHIsuQA7FWEbiFd4_Lv9AKVooga3bXivs3C7DVkasoPkiXVlQdLygloO8djsz3d2m00]-->
    </g>
</svg>